<svg width="20" height="18" viewBox="0 0 20 18" fill="none" xmlns="http://www.w3.org/2000/svg">
<path d="M19.3536 6.33831L13.358 5.51709L10.6778 0.396152C10.6046 0.255944 10.4841 0.142442 10.3354 0.0734507C9.96226 -0.100141 9.50887 0.0445188 9.32232 0.396152L6.64213 5.51709L0.646516 6.33831C0.481218 6.36057 0.330088 6.43401 0.214379 6.54529C0.0744931 6.68079 -0.00259025 6.86309 6.6464e-05 7.05213C0.00272317 7.24117 0.0849026 7.42149 0.228547 7.55345L4.56645 11.5394L3.5416 17.1677C3.51757 17.2987 3.53294 17.4333 3.58598 17.5564C3.63901 17.6795 3.72759 17.7862 3.84166 17.8643C3.95573 17.9424 4.09074 17.9887 4.23137 17.9982C4.37199 18.0076 4.51262 17.9798 4.63729 17.9177L10 15.2605L15.3628 17.9177C15.5092 17.9912 15.6792 18.0157 15.8422 17.989C16.2531 17.9222 16.5293 17.555 16.4585 17.1677L15.4336 11.5394L19.7715 7.55345C19.8896 7.4444 19.9675 7.30197 19.9912 7.14618C20.0549 6.75671 19.7668 6.39618 19.3536 6.33831V6.33831ZM13.6083 10.9785L14.4607 15.6588L10 13.4511L5.53935 15.661L6.39182 10.9808L2.78359 7.66473L7.77088 6.98149L10 2.72405L12.2292 6.98149L17.2165 7.66473L13.6083 10.9785Z" fill="#F2C94C"/>
</svg>
