<svg width="41" height="36" viewBox="0 0 41 36" fill="none" xmlns="http://www.w3.org/2000/svg">
<g filter="url(#filter0_d)">
<path d="M9.54346 20.5V19.4136L12.9774 15.2536H9.65049V14H14.7435V15.0864L11.3095 19.2464H14.7435V20.5H9.54346Z" fill="#55021A" stroke="#55021A" stroke-width="0.5"/>
<path d="M18.6431 15.3V14.6481L21.2185 12.1521H18.7233V11.4H22.5431V12.0519L19.9676 14.5479H22.5431V15.3H18.6431Z" fill="#55021A" stroke="#55021A" stroke-width="0.5"/>
<path d="M26.4434 12.7V12.0481L28.1603 9.55214H26.4969V8.8H29.0434V9.45186L27.3264 11.9479H29.0434V12.7H26.4434Z" fill="#55021A" stroke="#55021A" stroke-width="0.5"/>
<path fill-rule="evenodd" clip-rule="evenodd" d="M6.08911 1.0261C6.06765 1.04041 6.01497 1.05248 5.97205 1.0529C5.81484 1.05446 5.60865 1.14616 5.30867 1.34788C5.08838 1.49601 5.08372 1.50012 4.99592 1.62525C4.96078 1.67533 4.90263 1.74739 4.8667 1.78537C4.77854 1.87855 4.64147 2.10949 4.58184 2.26524C4.42718 2.66922 4.41988 2.71485 4.43215 3.19914C4.44259 3.61096 4.45721 3.73736 4.52542 4.0056C4.53996 4.06283 4.56277 4.15649 4.57609 4.21372C4.60554 4.34015 4.65224 4.49288 4.80669 4.96815C4.8718 5.16846 4.93473 5.37333 4.94657 5.42341C4.95841 5.47349 4.98122 5.56714 4.99727 5.63153C5.08632 5.98866 5.11174 6.75058 5.05151 7.25745C5.00656 7.63573 4.97368 7.89554 4.9461 8.08992C4.92201 8.25972 4.90789 8.34846 4.8404 8.7533C4.8261 8.83915 4.80268 8.97963 4.78837 9.06548C4.77407 9.15133 4.75065 9.29181 4.73634 9.37766C4.72204 9.4635 4.6981 9.60692 4.68317 9.69634C4.66821 9.78578 4.6448 9.94967 4.63114 10.0605C4.5776 10.4947 4.55463 10.6729 4.52802 10.8605C4.3981 11.7766 4.34326 12.7106 4.34326 14.0083C4.34326 15.3059 4.3981 16.24 4.52802 17.1561C4.55463 17.3436 4.5776 17.5218 4.63114 17.956C4.6448 18.0669 4.66821 18.2308 4.68317 18.3202C4.6981 18.4097 4.72204 18.5531 4.73634 18.6389C4.75065 18.7248 4.77407 18.8652 4.78837 18.9511C4.80268 19.0369 4.8261 19.1774 4.8404 19.2633C4.90789 19.6681 4.92201 19.7569 4.9461 19.9267C4.97368 20.121 5.00656 20.3808 5.05151 20.7591C5.11135 21.2627 5.08614 22.0324 4.99847 22.3785C4.98307 22.4393 4.96025 22.533 4.94777 22.5867C4.93528 22.6403 4.8718 22.8481 4.80669 23.0484C4.65861 23.5041 4.60625 23.6742 4.57849 23.7899C4.56647 23.8399 4.54365 23.9336 4.52778 23.998C4.45577 24.2903 4.44266 24.4027 4.43215 24.8174C4.42138 25.2427 4.42953 25.3227 4.50622 25.5458C4.62339 25.8867 4.73905 26.0957 4.91231 26.2798C4.97334 26.3446 5.04145 26.4284 5.06369 26.466C5.0992 26.5261 5.44473 26.7715 5.61796 26.8597C5.99161 27.0498 6.87515 27.0461 7.37685 26.8523C7.43408 26.8302 7.58041 26.775 7.70203 26.7295C8.21593 26.5377 8.32056 26.4979 8.45646 26.4428C8.78399 26.3102 9.5989 26.0431 9.73769 26.0229C9.81997 26.0109 9.96045 25.9889 10.0499 25.9739C10.2358 25.9429 10.5138 25.9077 10.8888 25.8679C11.3955 25.814 13.3319 25.8447 14.3358 25.9224C14.67 25.9483 14.9421 25.9682 15.7666 26.0271C15.9669 26.0414 16.2918 26.0647 16.4885 26.0787C16.6853 26.0928 16.9926 26.1164 17.1714 26.1312C18.2128 26.2172 19.2554 26.2626 20.1891 26.2626C21.1228 26.2626 22.1655 26.2172 23.2069 26.1312C23.3857 26.1164 23.693 26.0928 23.8897 26.0787C24.0865 26.0647 24.4113 26.0414 24.6117 26.0271C25.4362 25.9682 25.7082 25.9483 26.0425 25.9224C27.0464 25.8447 28.9828 25.814 29.4894 25.8679C29.8645 25.9077 30.1425 25.9429 30.3284 25.9739C30.4178 25.9889 30.5583 26.0109 30.6406 26.0229C30.7794 26.0431 31.5943 26.3102 31.9218 26.4428C32.0005 26.4747 32.1556 26.5347 32.2665 26.5761C32.7536 26.7582 32.9038 26.8146 33.0014 26.8523C33.2521 26.9491 33.56 26.9959 33.951 26.9966C34.4817 26.9975 34.657 26.9461 35.0696 26.6687C35.2899 26.5206 35.2945 26.5165 35.3823 26.3913C35.4175 26.3412 35.4756 26.2692 35.5116 26.2312C35.5997 26.138 35.7368 25.9071 35.7964 25.7513C35.9511 25.3474 35.9584 25.3017 35.9461 24.8174C35.9356 24.4027 35.9225 24.2903 35.8505 23.998C35.8346 23.9336 35.8118 23.8399 35.7998 23.7899C35.772 23.6742 35.7197 23.5041 35.5716 23.0484C35.5065 22.8481 35.443 22.6403 35.4305 22.5867C35.418 22.533 35.3952 22.4393 35.3798 22.3785C35.2921 22.0324 35.2669 21.2627 35.3268 20.7591C35.3717 20.3808 35.4046 20.121 35.4322 19.9267C35.4563 19.7569 35.4704 19.6681 35.5379 19.2633C35.5522 19.1774 35.5756 19.0369 35.5899 18.9511C35.6042 18.8652 35.6276 18.7248 35.6419 18.6389C35.6562 18.5531 35.6802 18.4097 35.6951 18.3202C35.7101 18.2308 35.7335 18.0669 35.7471 17.956C35.8007 17.5218 35.8236 17.3436 35.8503 17.1561C35.9802 16.24 36.035 15.3059 36.035 14.0083C36.035 12.7106 35.9802 11.7766 35.8503 10.8605C35.8236 10.6729 35.8007 10.4947 35.7471 10.0605C35.7335 9.94967 35.7101 9.78578 35.6951 9.69634C35.6802 9.60692 35.6562 9.4635 35.6419 9.37766C35.6276 9.29181 35.6042 9.15133 35.5899 9.06548C35.5756 8.97963 35.5522 8.83915 35.5379 8.7533C35.4704 8.34846 35.4563 8.25972 35.4322 8.08992C35.4046 7.89554 35.3717 7.63573 35.3268 7.25745C35.2669 6.75388 35.2921 5.98421 35.3798 5.63803C35.3952 5.57723 35.418 5.48358 35.4305 5.42991C35.443 5.37627 35.5065 5.16846 35.5716 4.96815C35.726 4.49288 35.7727 4.34015 35.8022 4.21372C35.8155 4.15649 35.8383 4.06283 35.8529 4.0056C35.9211 3.73736 35.9357 3.61096 35.9461 3.19914C35.9569 2.7739 35.9487 2.69388 35.872 2.47073C35.7549 2.12991 35.6392 1.92088 35.466 1.73682C35.4049 1.67202 35.3368 1.5882 35.3146 1.55056C35.2791 1.49046 34.9335 1.24504 34.7603 1.15688C34.3867 0.966761 33.5031 0.970481 33.0014 1.16427C32.9038 1.20199 32.7536 1.25841 32.2665 1.44044C32.1556 1.48188 32.0005 1.54187 31.9218 1.57374C31.5943 1.70639 30.7794 1.97348 30.6406 1.99369C30.5583 2.00566 30.4178 2.0277 30.3284 2.04263C30.1423 2.07372 29.8642 2.10889 29.4894 2.14872C28.9881 2.20197 27.1619 2.17288 26.075 2.09429C25.8711 2.07957 25.5404 2.05579 25.3401 2.04148C25.1398 2.02718 24.812 2.00376 24.6117 1.98945C24.4113 1.97515 24.0865 1.95192 23.8897 1.93784C23.693 1.92377 23.3857 1.90017 23.2069 1.8854C22.1655 1.79936 21.1228 1.75394 20.1891 1.75394C19.2554 1.75394 18.2128 1.79936 17.1714 1.8854C16.9926 1.90017 16.6853 1.92377 16.4885 1.93784C16.2918 1.95192 15.9669 1.97515 15.7666 1.98945C15.5663 2.00376 15.2385 2.02718 15.0382 2.04148C14.8379 2.05579 14.5072 2.07957 14.3033 2.09429C13.2164 2.17288 11.3901 2.20197 10.8888 2.14872C10.514 2.10889 10.2359 2.07372 10.0499 2.04263C9.96045 2.0277 9.81997 2.00566 9.73769 1.99369C9.5989 1.97348 8.78399 1.70639 8.45646 1.57374C8.37777 1.54187 8.21973 1.48087 8.10526 1.4382C7.75755 1.30854 7.48642 1.20659 7.37685 1.16427C7.07065 1.04598 6.19944 0.952505 6.08911 1.0261ZM6.72463 2.27385C6.76857 2.28719 6.8572 2.31134 6.92159 2.32749C7.0584 2.36183 7.14836 2.3919 7.31831 2.46014C7.38626 2.48743 7.50333 2.53439 7.57846 2.56449C7.65359 2.59458 7.80284 2.6519 7.91015 2.69185C8.01746 2.73181 8.16965 2.79045 8.24834 2.82216C8.53464 2.93759 9.23188 3.15947 9.406 3.19058C9.47754 3.20336 9.59461 3.22568 9.66615 3.24019C10.645 3.43861 12.4362 3.47846 14.2968 3.34324C14.4971 3.32867 14.819 3.30481 15.0122 3.29019C15.2053 3.27557 15.5214 3.25224 15.7146 3.23832C15.9078 3.2244 16.2092 3.20109 16.3845 3.18655C16.5597 3.17201 16.8466 3.14823 17.0218 3.13369C18.1467 3.04035 19.0666 3.00213 20.1891 3.00213C21.3116 3.00213 22.2315 3.04035 23.3564 3.13369C23.5317 3.14823 23.8185 3.17201 23.9938 3.18655C24.1691 3.20109 24.4705 3.2244 24.6637 3.23832C24.8568 3.25224 25.1729 3.27557 25.3661 3.29019C25.5592 3.30481 25.8812 3.32867 26.0815 3.34324C27.9421 3.47846 29.7333 3.43861 30.7121 3.24019C30.7837 3.22568 30.9007 3.20336 30.9723 3.19058C31.1464 3.15947 31.8436 2.93759 32.1299 2.82216C32.2086 2.79045 32.3608 2.73181 32.4681 2.69185C32.5754 2.6519 32.7247 2.59458 32.7998 2.56449C32.8749 2.53439 32.992 2.48743 33.06 2.46014C33.2299 2.3919 33.3199 2.36183 33.4567 2.32749C33.5211 2.31134 33.6097 2.28719 33.6536 2.27385C34.0402 2.15652 34.4596 2.33506 34.6417 2.69453C34.7444 2.89719 34.7182 3.52643 34.5898 3.94056C34.5654 4.01926 34.5238 4.15974 34.4974 4.25274C34.471 4.34574 34.3943 4.59158 34.327 4.79905C34.0592 5.62372 33.9853 6.35096 34.0789 7.23794C34.0944 7.38458 34.1181 7.61872 34.1315 7.75823C34.145 7.89775 34.1684 8.08506 34.1836 8.17447C34.1987 8.26391 34.2223 8.40436 34.2359 8.48665C34.2496 8.56893 34.2737 8.70062 34.2894 8.77931C34.3052 8.85801 34.3287 8.99849 34.3418 9.09149C34.3547 9.18449 34.3779 9.33668 34.3932 9.42968C34.4085 9.52269 34.4323 9.67781 34.4462 9.77438C34.46 9.87095 34.483 10.0319 34.4973 10.1321C34.5116 10.2322 34.535 10.3961 34.5493 10.4963C34.6569 11.2495 34.6761 11.4063 34.7072 11.784C34.768 12.5251 34.7865 13.0428 34.7865 14.0083C34.7865 15.3603 34.7375 16.1939 34.6021 17.1496C34.5874 17.2533 34.5634 17.4231 34.5488 17.5268C34.4691 18.0941 34.4261 18.3869 34.3932 18.5869C34.3779 18.6799 34.3547 18.8321 34.3418 18.9251C34.3287 19.0181 34.3052 19.1586 34.2894 19.2373C34.2737 19.316 34.2496 19.4476 34.2359 19.5299C34.2223 19.6122 34.1987 19.7527 34.1836 19.8421C34.1684 19.9315 34.1451 20.1159 34.1318 20.2518C34.1185 20.3878 34.0948 20.6219 34.0792 20.7721C34.043 21.1198 34.0416 21.8931 34.0767 22.1639C34.1271 22.5537 34.1699 22.7337 34.327 23.2175C34.3943 23.425 34.471 23.6708 34.4974 23.7638C34.5238 23.8568 34.5654 23.9973 34.5898 24.076C34.7182 24.4901 34.7444 25.1194 34.6417 25.322C34.4596 25.6815 34.0402 25.8601 33.6536 25.7427C33.6097 25.7294 33.5211 25.7052 33.4567 25.6891C33.3199 25.6547 33.2299 25.6247 33.06 25.5564C32.992 25.5291 32.8749 25.4822 32.7998 25.4521C32.7247 25.422 32.5754 25.3647 32.4681 25.3247C32.3608 25.2848 32.2086 25.2261 32.1299 25.1944C31.8512 25.082 31.1481 24.8575 30.9788 24.8268C30.9108 24.8145 30.7938 24.7922 30.7186 24.7772C29.8861 24.6114 28.4979 24.5527 27.018 24.6206C26.4786 24.6453 26.2076 24.6627 25.3661 24.7264C25.1729 24.741 24.8568 24.7643 24.6637 24.7783C24.4705 24.7922 24.1691 24.8155 23.9938 24.83C23.8185 24.8446 23.5317 24.8683 23.3564 24.8829C22.2315 24.9762 21.3116 25.0144 20.1891 25.0144C19.0666 25.0144 18.1467 24.9762 17.0218 24.8829C16.8466 24.8683 16.5597 24.8446 16.3845 24.83C16.2092 24.8155 15.9078 24.7922 15.7146 24.7783C15.5214 24.7643 15.2053 24.741 15.0122 24.7264C14.1706 24.6627 13.8997 24.6453 13.3603 24.6206C11.8804 24.5527 10.4922 24.6114 9.65965 24.7772C9.58451 24.7922 9.46745 24.8145 9.3995 24.8268C9.23019 24.8575 8.52709 25.082 8.24834 25.1944C8.16965 25.2261 8.01746 25.2848 7.91015 25.3247C7.80284 25.3647 7.65359 25.422 7.57846 25.4521C7.50333 25.4822 7.38626 25.5291 7.31831 25.5564C7.14836 25.6247 7.0584 25.6547 6.92159 25.6891C6.8572 25.7052 6.76857 25.7294 6.72463 25.7427C6.3381 25.8601 5.91872 25.6815 5.73656 25.322C5.63386 25.1194 5.66008 24.4901 5.78846 24.076C5.81286 23.9973 5.85444 23.8568 5.88084 23.7638C5.90725 23.6708 5.98396 23.425 6.05131 23.2175C6.31903 22.3929 6.39299 21.6656 6.29937 20.7786C6.28389 20.632 6.26021 20.3978 6.24674 20.2583C6.23329 20.1189 6.20988 19.9315 6.19471 19.8421C6.17957 19.7527 6.156 19.6122 6.14234 19.5299C6.12868 19.4476 6.10459 19.316 6.08883 19.2373C6.07306 19.1586 6.04952 19.0181 6.03651 18.9251C6.02353 18.8321 6.00038 18.6799 5.98506 18.5869C5.96973 18.4939 5.94593 18.3388 5.93212 18.2422C5.9183 18.1456 5.8953 17.9846 5.881 17.8845C5.86669 17.7843 5.84327 17.6204 5.82897 17.5203C5.72137 16.7671 5.70214 16.6103 5.67111 16.2326C5.54408 14.6862 5.567 12.4964 5.72311 11.2637C5.74785 11.0684 5.76505 10.9437 5.82897 10.4963C5.84327 10.3961 5.8669 10.2293 5.88149 10.1256C5.92772 9.79652 5.95641 9.60365 5.98506 9.42968C6.00038 9.33668 6.02353 9.18449 6.03651 9.09149C6.04952 8.99849 6.07306 8.85801 6.08883 8.77931C6.10459 8.70062 6.12868 8.56893 6.14234 8.48665C6.156 8.40436 6.17957 8.26391 6.19471 8.17447C6.20988 8.08506 6.23339 7.89481 6.247 7.75173C6.2606 7.60865 6.2843 7.37452 6.29963 7.23143C6.33534 6.89824 6.33644 6.12193 6.3016 5.85265C6.25116 5.4629 6.20839 5.28293 6.05131 4.79905C5.98396 4.59158 5.90725 4.34574 5.88084 4.25274C5.85444 4.15974 5.81286 4.01926 5.78846 3.94056C5.66148 3.53101 5.63393 2.89706 5.73448 2.69864C5.91919 2.33412 6.33524 2.15564 6.72463 2.27385ZM8.57342 4.96815C8.54481 4.98017 8.48588 5.00314 8.44252 5.01924C8.23651 5.09562 8.03258 5.42975 8.078 5.61646C8.08705 5.65374 8.10565 5.72814 8.11933 5.78179C8.13299 5.83545 8.15677 5.92911 8.17217 5.9899C8.28716 6.44394 8.32678 7.21799 8.27438 7.98654C8.21918 8.79635 8.21551 9.14683 8.26132 9.23541C8.40927 9.52149 8.81224 9.66553 9.0534 9.51852C9.17936 9.44176 9.35795 9.24631 9.37868 9.16254C9.58126 8.34427 9.60332 6.65835 9.42088 5.93788C9.36157 5.70366 9.34011 5.61586 9.31916 5.52164C9.23511 5.14396 8.84484 4.85431 8.57342 4.96815ZM8.19621 10.2304C7.96801 10.3907 7.91028 10.4884 7.91015 10.7144C7.90979 11.3389 8.63099 11.5739 9.02369 11.0774C9.09028 10.9931 9.15831 10.7659 9.13178 10.7163C9.11799 10.6905 9.10667 10.6424 9.10662 10.6092C9.10605 10.2557 8.51195 10.0085 8.19621 10.2304ZM30.9592 16.24C30.3876 16.5885 30.5802 17.3833 31.2362 17.3836C31.7175 17.3839 31.9887 16.9282 31.7605 16.5028C31.6051 16.2132 31.2137 16.0848 30.9592 16.24ZM30.6959 18.0109C30.5699 18.0877 30.3913 18.2832 30.3706 18.3669C30.168 19.1852 30.146 20.8711 30.3284 21.5916C30.3438 21.6524 30.3681 21.749 30.3824 21.8062C30.3967 21.8635 30.4196 21.9542 30.4333 22.0078C30.447 22.0615 30.4659 22.1376 30.4753 22.1769C30.5168 22.3491 30.855 22.5867 31.0588 22.5867C31.3724 22.5867 31.7375 22.1851 31.6713 21.913C31.6622 21.8757 31.6442 21.8043 31.6311 21.7542C31.5254 21.3474 31.503 21.2063 31.472 20.7526C31.4403 20.2873 31.4409 20.0423 31.4749 19.5429C31.5301 18.7331 31.5338 18.3826 31.488 18.2941C31.34 18.008 30.937 17.8639 30.6959 18.0109Z" fill="#55021A" stroke="#55021A" stroke-width="0.5"/>
</g>
<defs>
<filter id="filter0_d" x="0.0932617" y="0.75" width="40.1917" height="34.5" filterUnits="userSpaceOnUse" color-interpolation-filters="sRGB">
<feFlood flood-opacity="0" result="BackgroundImageFix"/>
<feColorMatrix in="SourceAlpha" type="matrix" values="0 0 0 0 0 0 0 0 0 0 0 0 0 0 0 0 0 0 127 0"/>
<feOffset dy="4"/>
<feGaussianBlur stdDeviation="2"/>
<feColorMatrix type="matrix" values="0 0 0 0 0 0 0 0 0 0 0 0 0 0 0 0 0 0 0.25 0"/>
<feBlend mode="normal" in2="BackgroundImageFix" result="effect1_dropShadow"/>
<feBlend mode="normal" in="SourceGraphic" in2="effect1_dropShadow" result="shape"/>
</filter>
</defs>
</svg>
