<svg width="24" height="21" viewBox="0 0 24 21" fill="none" xmlns="http://www.w3.org/2000/svg">
<path fill-rule="evenodd" clip-rule="evenodd" d="M9.81555 0.019426C9.80917 0.0302428 9.78723 0.0390929 9.7668 0.0390929C9.55446 0.0390929 9.09384 0.356714 8.98848 0.575783C8.97177 0.610515 8.93853 0.661059 8.91458 0.688101C8.89064 0.715143 8.8473 0.769758 8.81828 0.809466C8.78925 0.849193 8.72754 0.932423 8.68114 0.994433C8.57885 1.13114 8.51015 1.22597 8.44711 1.31744C8.42103 1.3553 8.37025 1.4261 8.33425 1.47478C8.29825 1.52345 8.24762 1.59425 8.22175 1.63211C8.19587 1.66997 8.14731 1.73776 8.11384 1.78278C7.96603 1.98153 7.88223 2.09655 7.85611 2.13649C7.84064 2.16013 7.78994 2.23113 7.74344 2.29422C7.69694 2.35733 7.64423 2.43108 7.62634 2.45812C7.60843 2.48517 7.55993 2.55154 7.51853 2.60563C7.47712 2.65971 7.4222 2.73494 7.39646 2.77279C7.37071 2.81065 7.32228 2.8786 7.28881 2.9238C7.16521 3.09073 7.03197 3.27613 6.98995 3.33971C6.96617 3.37568 6.91717 3.44328 6.88108 3.48993C6.81258 3.57845 6.71328 3.71378 6.62407 3.8402C6.59526 3.881 6.54638 3.94939 6.51544 3.99214C6.48451 4.0349 6.43388 4.10584 6.40294 4.14979C6.372 4.19375 6.31492 4.26986 6.27611 4.31895C6.23728 4.36804 6.19198 4.43626 6.17544 4.47058C6.1589 4.5049 6.11238 4.56673 6.07207 4.60799C6.03175 4.64923 5.97818 4.71561 5.95306 4.75549C5.92791 4.79536 5.88194 4.86339 5.8509 4.90665C5.81985 4.94992 5.77313 5.0163 5.74703 5.05416C5.70135 5.12045 5.67919 5.15086 5.49337 5.40204C5.44687 5.4649 5.39438 5.53845 5.37674 5.5655C5.35911 5.59254 5.31933 5.65006 5.28831 5.69333C5.25732 5.7366 5.21061 5.80297 5.18451 5.84083C5.15843 5.87869 5.10971 5.94648 5.07624 5.9915C4.93364 6.18327 4.84482 6.30495 4.81852 6.34458C4.80305 6.36791 4.75242 6.43804 4.70601 6.50046C4.60309 6.63888 4.53467 6.73338 4.47163 6.82418C4.44534 6.86204 4.39854 6.92841 4.3676 6.97168C4.15323 7.27162 4.07869 7.57577 4.12182 7.97469C4.16723 8.39472 4.46473 8.8174 4.82789 8.97792C4.86914 8.99615 4.92821 9.02498 4.95915 9.04198C5.0937 9.11588 5.4686 9.13606 5.65292 9.07932C5.98188 8.97804 6.203 8.80859 6.45501 8.46467C6.57485 8.30114 6.64432 8.20517 6.70295 8.12219C6.73389 8.07842 6.78451 8.00762 6.81545 7.96486C6.84639 7.9221 6.89702 7.8513 6.92796 7.80752C6.9882 7.72227 7.06669 7.61536 7.17344 7.47319C7.24349 7.37989 7.35943 7.21644 7.49985 7.013C7.58546 6.88896 7.6683 6.7792 7.77387 6.64987C7.80597 6.61054 7.84593 6.55026 7.86265 6.51594C7.87938 6.48162 7.92483 6.41353 7.96366 6.3646C8.00248 6.31569 8.06377 6.23427 8.09987 6.18369C8.13596 6.1331 8.19503 6.05331 8.23112 6.00639C8.26722 5.95946 8.32206 5.8851 8.353 5.84115C8.38394 5.79719 8.43457 5.72625 8.4655 5.6835C8.49644 5.64074 8.54707 5.56994 8.57801 5.52616C8.60895 5.48238 8.65957 5.41172 8.69051 5.36912C8.72145 5.32654 8.7763 5.25045 8.81239 5.20003C8.87745 5.10914 8.96146 4.99927 9.08178 4.84765C9.11611 4.80439 9.15802 4.7409 9.17491 4.70658C9.19179 4.67226 9.23737 4.60404 9.27621 4.55495C9.31502 4.50586 9.3721 4.42975 9.40303 4.3858C9.4597 4.30528 9.52651 4.21408 9.64814 4.05114C9.7697 3.8883 9.89762 3.70811 9.9832 3.57914C10.0298 3.50883 10.1058 3.40263 10.1521 3.34313C10.1984 3.28364 10.2668 3.18851 10.3043 3.13172C10.3417 3.07494 10.3785 3.02846 10.3861 3.02846C10.3937 3.02846 10.4283 2.98199 10.4629 2.92521C10.5217 2.82896 10.5902 2.73073 10.7386 2.53012C10.7718 2.48511 10.8296 2.40184 10.8669 2.34504C10.9043 2.28826 10.9414 2.24179 10.9494 2.24179C10.9574 2.24179 10.9924 2.19246 11.0272 2.1322C11.0621 2.07192 11.1136 1.98563 11.1416 1.94045C11.1697 1.89526 11.2063 1.80961 11.223 1.75011C11.2397 1.69062 11.261 1.62161 11.2704 1.59677C11.3285 1.44282 11.2718 0.977303 11.1648 0.730562C11.0203 0.397326 10.5754 0.0390929 10.306 0.0390929C10.2798 0.0390929 10.2532 0.0302428 10.2468 0.019426C10.2315 -0.00647533 9.83081 -0.00647533 9.81555 0.019426ZM13.7532 0.019426C13.7468 0.0302428 13.7145 0.0390929 13.6815 0.0390929C13.4287 0.0390929 12.996 0.387827 12.8395 0.717601C12.6829 1.04751 12.6741 1.56174 12.82 1.85525C12.9139 2.04419 12.946 2.0993 12.9935 2.15329C13.0221 2.18574 13.0806 2.26539 13.1235 2.33029C13.1664 2.39519 13.2286 2.48489 13.2617 2.52963C13.2948 2.57437 13.3599 2.66585 13.4063 2.73291C13.4527 2.79997 13.5371 2.91825 13.5938 2.99574C13.7224 3.17138 13.7486 3.20794 13.9209 3.4513C13.9975 3.55947 14.0797 3.67313 14.1036 3.70386C14.1274 3.73462 14.1891 3.82021 14.2407 3.8941C14.2922 3.96799 14.3977 4.11451 14.4751 4.21973C14.773 4.62493 14.8141 4.68265 14.8545 4.75227C14.8724 4.78309 14.9253 4.857 14.9721 4.91649C15.019 4.97598 15.1452 5.14856 15.2525 5.29999C15.3599 5.45143 15.4757 5.61189 15.5099 5.65657C15.544 5.70128 15.6015 5.7792 15.6376 5.82974C15.6737 5.8803 15.7328 5.95992 15.7689 6.00668C15.805 6.05345 15.864 6.1331 15.9001 6.18369C15.9362 6.23427 15.9975 6.31569 16.0363 6.3646C16.0751 6.41353 16.1206 6.48162 16.1373 6.51594C16.1541 6.55026 16.194 6.6102 16.2261 6.64916C16.2582 6.6881 16.314 6.76146 16.3501 6.81218C16.4569 6.96226 16.5253 7.05603 16.5751 7.12085C16.6009 7.15439 16.6642 7.24226 16.7158 7.31615C16.7673 7.39004 16.8728 7.5362 16.9501 7.64099C17.0275 7.74577 17.1034 7.85061 17.1189 7.87398C17.1344 7.89736 17.185 7.96858 17.2314 8.03222C17.395 8.2566 17.4188 8.28983 17.4515 8.33957C17.7837 8.8445 18.19 9.1175 18.6002 9.11138C18.7867 9.10861 18.9824 9.08104 19.0148 9.05299C19.0291 9.04054 19.0852 9.01271 19.1394 8.99114C19.877 8.69751 20.1298 7.65609 19.6293 6.97249C19.5267 6.83234 19.5021 6.79818 19.3523 6.58818C19.279 6.48542 19.203 6.37921 19.1835 6.35217C19.1639 6.32513 19.1111 6.25132 19.0662 6.18817C19.0213 6.125 18.9593 6.03882 18.9283 5.99665C18.8769 5.92652 18.7411 5.73638 18.5105 5.41139C18.4071 5.26573 18.3589 5.19959 18.2439 5.04562C18.0594 4.79851 18.0361 4.76615 17.9879 4.69032C17.9604 4.64705 17.9224 4.60003 17.9033 4.58585C17.8842 4.57165 17.8535 4.52923 17.8351 4.49158C17.8167 4.45394 17.7615 4.37264 17.7123 4.3109C17.6244 4.20041 17.4157 3.91062 17.2502 3.66911C17.2037 3.6014 17.1384 3.51331 17.1048 3.47339C17.0713 3.43344 17.0439 3.39389 17.0439 3.3855C17.0439 3.3771 17.0255 3.34947 17.0029 3.3241C16.9804 3.29873 16.9327 3.23288 16.8969 3.17779C16.8612 3.12271 16.8058 3.04567 16.7738 3.00659C16.7419 2.96752 16.6839 2.88787 16.6451 2.82959C16.6062 2.77132 16.5327 2.67053 16.4817 2.60563C16.4307 2.54072 16.3537 2.43452 16.3105 2.36962C16.2674 2.30472 16.2059 2.21903 16.1739 2.17923C16.1419 2.1394 16.092 2.07303 16.0629 2.03172C15.9053 1.80748 15.8297 1.70085 15.7876 1.64307C15.7618 1.60769 15.6291 1.4248 15.4926 1.23667C15.3562 1.04854 15.2065 0.845928 15.1601 0.786436C15.1137 0.726943 15.0611 0.656142 15.0432 0.6291C14.8436 0.328 14.6596 0.170606 14.4131 0.0900106C14.3274 0.0620049 14.2435 0.0390929 14.2267 0.0390929C14.2098 0.0390929 14.1908 0.0302428 14.1844 0.019426C14.1692 -0.00647533 13.7684 -0.00647533 13.7532 0.019426ZM1.04965 6.8738C0.762127 6.92655 0.773884 6.92147 0.517094 7.10327C0.466543 7.13907 0.409035 7.18605 0.389309 7.20768C0.282581 7.32474 0.216654 7.41271 0.182959 7.48302C0.162221 7.52629 0.132482 7.57693 0.116882 7.59553C0.090256 7.62734 0.0664802 7.7131 0.0430607 7.86179C0.0375105 7.89705 0.0254727 7.93076 0.0163036 7.9367C-0.00544704 7.9508 -0.00542829 8.34842 0.0163224 8.39289C0.0255289 8.41167 0.0476359 8.48013 0.0654677 8.54503C0.17604 8.94744 0.516363 9.30386 0.899644 9.4187C0.946051 9.4326 1.00341 9.45189 1.02709 9.46159C1.05077 9.47129 1.17336 9.47921 1.2995 9.47921C1.55846 9.47921 1.60142 9.49573 1.61809 9.6017C1.62366 9.6371 1.63778 9.70587 1.64948 9.75455C1.6612 9.80322 1.67815 9.88288 1.68717 9.93155C1.71064 10.0582 1.73399 10.1568 1.7803 10.3249C1.83151 10.5107 1.8542 10.6063 1.87366 10.7182C1.88212 10.7669 1.90747 10.8731 1.93001 10.9542C1.95253 11.0354 1.97883 11.1349 1.98845 11.1755C1.99805 11.2161 2.01489 11.2869 2.02586 11.3328C2.03681 11.3788 2.05269 11.4562 2.06117 11.5049C2.06962 11.5536 2.09501 11.6598 2.11761 11.7409C2.14018 11.822 2.16604 11.9282 2.17506 11.9769C2.1841 12.0256 2.20114 12.0964 2.21295 12.1342C2.23967 12.2199 2.26613 12.3336 2.28617 12.4489C2.29463 12.4976 2.31998 12.6038 2.34252 12.6849C2.39356 12.8687 2.41651 12.9651 2.43618 13.0783C2.44464 13.1269 2.46999 13.2331 2.49252 13.3143C2.53972 13.4843 2.56348 13.583 2.58718 13.7076C2.59642 13.7563 2.6138 13.8271 2.62579 13.8649C2.63777 13.9028 2.6541 13.9736 2.66207 14.0223C2.67004 14.0709 2.69499 14.1771 2.71753 14.2583C2.76666 14.4352 2.7903 14.5334 2.8122 14.6516C2.83594 14.7797 2.85932 14.8781 2.90566 15.0449C2.92819 15.1261 2.95383 15.2323 2.96262 15.281C2.98495 15.4046 3.00824 15.5033 3.05534 15.6743C3.07771 15.7554 3.10424 15.8572 3.11433 15.9005C3.12442 15.9437 3.14126 16.0145 3.15174 16.0578C3.16224 16.1011 3.1782 16.1763 3.18722 16.225C3.21069 16.3516 3.23404 16.4502 3.28035 16.6183C3.32961 16.797 3.35308 16.8948 3.37472 17.0116C3.39846 17.1397 3.42184 17.2381 3.46817 17.405C3.49071 17.4861 3.51634 17.5923 3.52514 17.641C3.54771 17.766 3.57108 17.8647 3.61818 18.0343C3.64072 18.1154 3.66635 18.2216 3.67514 18.2703C3.69029 18.3542 3.70824 18.4348 3.75174 18.6145C3.76222 18.6578 3.77521 18.7197 3.78062 18.7522C3.78602 18.7846 3.82348 18.9188 3.86385 19.0504C3.90422 19.1821 3.93724 19.3024 3.93724 19.318C3.93724 19.3606 4.13391 19.7638 4.19845 19.8535C4.2296 19.8968 4.27559 19.9632 4.30066 20.001C4.54116 20.3642 5.16911 20.8115 5.56854 20.9042C5.62526 20.9174 5.69698 20.9367 5.72792 20.9471C5.87417 20.9965 7.20839 21.0062 12.4969 20.9968C17.7588 20.9873 18.082 20.9836 18.3503 20.9285C18.529 20.8917 18.9112 20.7163 19.1025 20.5831C19.2722 20.465 19.6255 20.1168 19.7132 19.9813C19.7307 19.9543 19.7705 19.8968 19.8016 19.8535C19.8618 19.7697 20.0627 19.3617 20.0627 19.3232C20.0627 19.3106 20.0929 19.2035 20.1297 19.0852C20.1666 18.9669 20.205 18.8259 20.2151 18.7718C20.2601 18.5305 20.2677 18.492 20.2848 18.4178C20.2947 18.3746 20.3163 18.2883 20.3328 18.2261C20.3493 18.1639 20.3762 18.0621 20.3927 17.9999C20.4278 17.8672 20.4527 17.7599 20.4737 17.6508C20.482 17.6075 20.5077 17.5013 20.5308 17.4148C20.5819 17.2232 20.6041 17.1276 20.6243 17.0116C20.6328 16.963 20.6534 16.8723 20.67 16.8101C20.7678 16.4445 20.7856 16.3715 20.8128 16.225C20.8353 16.1031 20.8585 16.0044 20.9049 15.8316C20.9267 15.7505 20.9525 15.6443 20.9623 15.5956C20.9721 15.5469 20.9892 15.4761 21.0003 15.4383C21.0114 15.4004 21.0285 15.3296 21.0382 15.281C21.048 15.2323 21.0739 15.1261 21.0957 15.0449C21.144 14.8651 21.1666 14.7676 21.1868 14.6516C21.1953 14.6029 21.2159 14.5122 21.2325 14.45C21.3303 14.0845 21.3481 14.0115 21.3753 13.8649C21.3843 13.8163 21.3998 13.741 21.4098 13.6978C21.4269 13.6234 21.4415 13.5673 21.5168 13.2848C21.5341 13.2199 21.5553 13.1269 21.5637 13.0783C21.584 12.9623 21.6062 12.8667 21.6573 12.6751C21.6804 12.5886 21.7056 12.4823 21.7134 12.4391C21.7211 12.3958 21.7464 12.2896 21.7695 12.2031C21.7925 12.1165 21.8177 12.0148 21.8253 11.9769C21.8329 11.9391 21.8581 11.8373 21.8813 11.7507C21.9044 11.6642 21.9299 11.5536 21.9379 11.5049C21.9458 11.4562 21.9659 11.3655 21.9826 11.3033C21.9992 11.2411 22.0264 11.1394 22.043 11.0771C22.0597 11.0149 22.0803 10.9242 22.0888 10.8756C22.109 10.7596 22.1312 10.664 22.1823 10.4724C22.2054 10.3859 22.2311 10.2797 22.2394 10.2364C22.2477 10.1931 22.2634 10.1201 22.2743 10.0741C22.2852 10.0282 22.3029 9.95293 22.3137 9.90697C22.3327 9.82606 22.3455 9.77241 22.3855 9.60758C22.4141 9.48993 22.4397 9.47921 22.6923 9.47921C23.2863 9.47921 23.8183 9.06996 23.945 8.51553C23.9586 8.45604 23.9766 8.39895 23.985 8.38868C24.0058 8.36339 24.0046 7.973 23.9837 7.93017C23.9745 7.91138 23.9523 7.84292 23.9345 7.77802C23.8382 7.42772 23.699 7.24977 23.316 6.98718C23.1389 6.86575 22.9332 6.84615 21.8242 6.84493C20.6928 6.84367 20.7702 6.82909 20.8318 7.03184C20.8734 7.1687 20.8914 7.241 20.9292 7.42402C20.9556 7.55158 20.9554 8.02508 20.929 8.1517C20.9177 8.20578 20.9002 8.29428 20.8902 8.34836C20.8626 8.49689 20.7599 8.81392 20.7214 8.86954C20.7026 8.89658 20.6722 8.94968 20.6537 8.98754C20.6352 9.0254 20.598 9.08434 20.5711 9.11854C20.5442 9.15274 20.501 9.21383 20.4753 9.25428C20.4051 9.36446 20.2165 9.57198 20.1033 9.66367C20.0482 9.70823 19.968 9.77325 19.9251 9.80814C19.6305 10.0477 19.1046 10.2106 18.6189 10.2127C18.4872 10.2133 18.3476 10.2031 18.3002 10.1894C18.2189 10.166 18.1577 10.1523 17.9514 10.1112C17.8441 10.0899 17.4599 9.89511 17.369 9.81599C17.3364 9.78761 17.2774 9.74226 17.2378 9.71521C17.1279 9.64011 16.766 9.24541 16.6501 9.07441C16.5934 8.99069 16.4922 8.84916 16.4251 8.75991C16.3581 8.67069 16.2653 8.54295 16.2189 8.47604C16.1725 8.40915 16.1134 8.32557 16.0876 8.29033C15.9592 8.11476 15.6436 7.67576 15.6189 7.63833C15.6034 7.61489 15.5528 7.54523 15.5063 7.48353C15.348 7.27294 15.301 7.20766 15.2306 7.10052C15.1919 7.04158 15.1297 6.95972 15.0925 6.9186L15.0246 6.84385H12.0054C9.03518 6.84385 8.98544 6.84447 8.93948 6.88239C8.91379 6.90359 8.85571 6.97504 8.81038 7.04118C8.63889 7.29154 8.52776 7.44416 8.42609 7.56896C8.39408 7.60822 8.3308 7.69647 8.28546 7.76502C8.14401 7.97892 8.12304 8.00803 7.89401 8.30903C7.85285 8.36311 7.77059 8.48259 7.71119 8.57453C7.65179 8.66648 7.57187 8.7771 7.53358 8.82037C7.46394 8.89908 7.43252 8.94256 7.29918 9.14466C7.10192 9.44367 6.6905 9.80889 6.36544 9.97356C6.19738 10.0587 6.10173 10.0938 5.8873 10.1489C5.8512 10.1582 5.7837 10.1766 5.73729 10.1898C5.49489 10.2589 4.94148 10.2027 4.55601 10.0698C4.45804 10.0361 4.3479 9.9867 4.31124 9.96015C4.2746 9.9336 4.23567 9.91188 4.22476 9.91188C4.20575 9.91188 4.17423 9.88856 3.9667 9.721C3.80589 9.59118 3.57873 9.35419 3.54085 9.27674C3.52077 9.2357 3.47669 9.16932 3.44286 9.12924C3.36938 9.04217 3.25187 8.82381 3.21583 8.70736C3.20158 8.66134 3.17555 8.58388 3.15796 8.5352C3.01387 8.13628 3.00848 7.57455 3.14443 7.12111C3.20895 6.90593 3.21026 6.89579 3.17711 6.87036C3.128 6.83269 1.25716 6.83572 1.04965 6.8738ZM14.3532 9.35582C14.6557 9.43132 14.8783 9.85066 14.7857 10.1707C14.7552 10.2759 14.1508 11.5499 14.0977 11.6206C14.0784 11.6464 14.0623 11.6818 14.062 11.6993C14.0616 11.7168 14.0287 11.793 13.9889 11.8687C13.949 11.9445 13.7547 12.3419 13.5572 12.7521C13.3596 13.1622 13.1815 13.5196 13.1615 13.5463C13.1414 13.573 13.1248 13.6092 13.1246 13.6267C13.1243 13.6441 13.0995 13.7027 13.0693 13.7568C13.0391 13.8108 12.9963 13.8949 12.9741 13.9436C12.952 13.9923 12.91 14.0808 12.8808 14.1403C12.8517 14.1998 12.801 14.306 12.7682 14.3763C12.6996 14.5231 12.6942 14.5345 12.337 15.2711C12.1901 15.574 12.0542 15.8429 12.035 15.8687C12.0157 15.8945 11.9998 15.9299 11.9996 15.9474C11.9993 15.9648 11.9744 16.0234 11.9443 16.0775C11.9141 16.1315 11.8713 16.2156 11.8491 16.2643C11.8269 16.313 11.7851 16.4015 11.7562 16.461C11.7272 16.5205 11.4907 17.0116 11.2305 17.5525C10.9704 18.0933 10.7418 18.5569 10.7225 18.5827C10.7032 18.6085 10.6872 18.6439 10.687 18.6614C10.6868 18.6789 10.662 18.7374 10.632 18.7915C10.5297 18.9758 10.482 19.0737 10.4562 19.1522C10.4291 19.2348 10.3887 19.2967 10.2656 19.4447C9.89557 19.8894 9.18873 19.6077 9.18352 19.0135C9.18191 18.8286 9.22067 18.6654 9.29248 18.5544C9.31824 18.5145 9.58053 17.9764 9.87536 17.3584C10.1702 16.7404 10.422 16.2215 10.4349 16.2053C10.4478 16.1891 10.6708 15.7333 10.9306 15.1924C11.1903 14.6516 11.4181 14.1781 11.4369 14.1403C11.4557 14.1024 11.4893 14.0316 11.5115 13.9829C11.5338 13.9343 11.5673 13.8635 11.586 13.8256C11.6422 13.7116 11.6996 13.5939 12.1033 12.7636C12.618 11.7048 12.5617 11.8213 13.1535 10.5904C13.3874 10.1036 13.6121 9.65991 13.6526 9.60431C13.8264 9.36621 14.0612 9.28294 14.3532 9.35582ZM9.34335 10.0617C9.42398 10.0655 9.49757 10.0735 9.50691 10.0795C9.51625 10.0856 9.58951 10.1084 9.66972 10.1301C9.74992 10.1519 9.89419 10.209 9.99028 10.2571C10.0864 10.3052 10.1741 10.3446 10.1852 10.3446C10.22 10.3446 10.3978 10.4772 10.4927 10.5739C10.5427 10.6249 10.6101 10.6854 10.6424 10.7085C10.7428 10.7799 10.9687 11.074 10.9687 11.1332C10.9687 11.1511 10.9821 11.1774 10.9984 11.1916C11.0147 11.2058 11.0536 11.271 11.0848 11.3366C11.1161 11.4021 11.1545 11.471 11.1701 11.4896C11.1858 11.5082 11.2059 11.5591 11.2149 11.6027C11.2239 11.6462 11.2393 11.7151 11.2491 11.7557C11.2589 11.7962 11.2765 11.8692 11.2882 11.9179C11.3112 12.0139 11.3463 12.291 11.3455 12.3702C11.3443 12.4828 11.3085 12.8188 11.2893 12.8963C11.2518 13.0484 11.229 13.1464 11.2187 13.2005C11.213 13.2299 11.1966 13.2642 11.1823 13.2767C11.168 13.2892 11.1562 13.307 11.1562 13.3163C11.1562 13.3676 10.945 13.7738 10.8848 13.8383C10.8459 13.88 10.7945 13.9463 10.7706 13.9856C10.6064 14.2559 9.8553 14.7106 9.57303 14.7106C9.54385 14.7106 9.49366 14.7273 9.4615 14.7476C9.38344 14.7971 8.85387 14.7962 8.66177 14.7463C8.34595 14.6642 7.89547 14.4576 7.77173 14.338C7.74079 14.3081 7.67751 14.2563 7.6311 14.2229C7.49394 14.1243 7.29356 13.8861 7.1992 13.7096C7.1834 13.68 7.15175 13.6309 7.12889 13.6004C7.10603 13.5699 7.08734 13.5302 7.08734 13.5121C7.08734 13.494 7.06639 13.4494 7.0408 13.4131C6.99377 13.3462 6.96011 13.2596 6.91834 13.0979C6.90578 13.0492 6.88612 12.9829 6.87467 12.9504C6.86323 12.918 6.8519 12.8604 6.84952 12.8226C6.84712 12.7847 6.83775 12.6764 6.82867 12.5818C6.80608 12.3461 6.83998 12.0324 6.91958 11.7409C6.94172 11.6598 6.96608 11.5624 6.97369 11.5246C6.9813 11.4867 7.01329 11.4159 7.04477 11.3672C7.07626 11.3186 7.11438 11.2475 7.12949 11.2093C7.1446 11.1712 7.19615 11.097 7.24404 11.0446C7.29191 10.9922 7.33109 10.942 7.33109 10.9331C7.33109 10.8899 7.53225 10.6718 7.67588 10.5593C7.76457 10.4899 7.83719 10.4264 7.83725 10.4183C7.8373 10.4102 7.85514 10.4036 7.87685 10.4036C7.89856 10.4036 7.94806 10.3772 7.98686 10.345C8.05228 10.2906 8.24127 10.2082 8.4655 10.1362C8.51707 10.1196 8.58517 10.0978 8.61684 10.0876C8.64851 10.0775 8.76242 10.0686 8.86997 10.0678C8.97753 10.0671 9.0824 10.0589 9.10302 10.0496C9.12365 10.0402 9.15318 10.0376 9.16865 10.0437C9.18412 10.0498 9.26274 10.0579 9.34335 10.0617ZM9.06552 11.3476C9.0449 11.3569 8.99005 11.3653 8.94364 11.3663C8.89724 11.3673 8.82454 11.3846 8.78209 11.4049C8.73964 11.4251 8.67847 11.4477 8.64615 11.4552C8.61382 11.4626 8.58738 11.4768 8.58738 11.4868C8.58738 11.4968 8.57332 11.5049 8.55613 11.5049C8.51309 11.5049 8.25732 11.7859 8.20948 11.8857C8.18805 11.9305 8.16 11.9804 8.14718 11.9966C8.08721 12.0724 8.05746 12.4438 8.09578 12.6383C8.11734 12.7478 8.1906 12.9406 8.21065 12.9406C8.21745 12.9406 8.23866 12.9693 8.25777 13.0045C8.31042 13.1014 8.43779 13.234 8.52176 13.2793C8.56301 13.3015 8.61673 13.336 8.64112 13.356C8.74727 13.4429 9.01608 13.4892 9.21553 13.4549C9.39362 13.4243 9.45349 13.4033 9.54366 13.3397C9.59007 13.307 9.65101 13.2657 9.67908 13.248C9.76303 13.195 10.0123 12.8403 10.0126 12.7736C10.0126 12.7519 10.0294 12.7075 10.0499 12.6751C10.1858 12.4598 9.96641 11.7361 9.72108 11.5905C9.55463 11.4917 9.32299 11.3834 9.24365 11.3674C9.19725 11.358 9.14662 11.3459 9.13115 11.3405C9.11568 11.3351 9.08615 11.3383 9.06552 11.3476ZM15.1782 14.2283C15.277 14.2335 15.3897 14.2531 15.4501 14.2755C15.5068 14.2966 15.6489 14.3491 15.7657 14.3923C15.8826 14.4354 16.0092 14.4962 16.047 14.5275C16.1371 14.6018 16.3018 14.7106 16.3243 14.7106C16.3459 14.7106 16.6314 15.0047 16.6314 15.0269C16.6314 15.0356 16.6721 15.0915 16.7219 15.1512C16.8223 15.2715 17.0626 15.7441 17.0626 15.8211C17.0626 15.8477 17.0812 15.9207 17.1039 15.9833C17.1265 16.0459 17.1484 16.137 17.1524 16.1856C17.1685 16.3788 17.1616 16.9091 17.1418 17.0018C17.1074 17.1633 17.0469 17.3677 17.0256 17.3945C17.0147 17.4083 17.0112 17.4346 17.0179 17.4528C17.0255 17.4737 17.0077 17.5184 16.9692 17.5746C16.9358 17.6234 16.8934 17.7067 16.8749 17.7597C16.827 17.8973 16.5822 18.1886 16.2779 18.4702C16.1782 18.5625 15.8539 18.7434 15.6845 18.8012C15.6123 18.8259 15.5279 18.8595 15.497 18.8761C15.3535 18.9527 14.6902 18.9786 14.5126 18.9145C14.4558 18.8941 14.3876 18.875 14.3609 18.8722C14.3342 18.8694 14.2923 18.8522 14.2677 18.8342C14.2431 18.8161 14.1998 18.8013 14.1715 18.8013C14.0991 18.8013 13.6561 18.5572 13.5657 18.4675C13.5244 18.4266 13.4551 18.3667 13.4116 18.3344C13.3382 18.2798 13.2325 18.1581 13.1285 18.0083C13.1046 17.9739 13.0694 17.9281 13.0502 17.9065C13.031 17.8849 12.9718 17.7742 12.9187 17.6606C12.8655 17.5471 12.8151 17.4409 12.8066 17.4246C12.7899 17.3927 12.7764 17.3408 12.694 16.992C12.6557 16.8298 12.6786 16.1838 12.7293 15.9988C12.753 15.9123 12.7767 15.8169 12.7821 15.7868C12.7875 15.7568 12.8078 15.7233 12.8272 15.7124C12.8466 15.7015 12.8625 15.6766 12.8625 15.6571C12.8625 15.5955 13.0475 15.222 13.111 15.1553C13.1445 15.1201 13.2088 15.0433 13.2538 14.9846C13.2989 14.9258 13.379 14.844 13.432 14.8027C13.4849 14.7614 13.5371 14.7156 13.5481 14.7008C13.5776 14.6609 13.767 14.5336 13.7969 14.5336C13.8111 14.5336 13.8477 14.5116 13.8783 14.4846C13.9088 14.4577 13.9818 14.4211 14.0404 14.4035C14.099 14.3858 14.1765 14.3562 14.2126 14.3377C14.3687 14.2578 14.6747 14.1986 14.8688 14.2107C14.9462 14.2155 15.0854 14.2235 15.1782 14.2283ZM14.8313 15.5163C14.8055 15.5251 14.7212 15.5521 14.6438 15.5763C14.4529 15.636 14.2616 15.7551 14.2002 15.8524C14.1733 15.8951 14.1446 15.93 14.1363 15.93C14.1281 15.93 14.0743 16.0285 14.0169 16.1489C13.8998 16.3944 13.8726 16.6312 13.9415 16.8042C13.9574 16.8442 13.9657 16.8924 13.96 16.9114C13.954 16.9314 13.9662 16.9661 13.9891 16.9936C14.0108 17.0197 14.041 17.0661 14.0562 17.0967C14.1527 17.2915 14.3602 17.4842 14.5488 17.5543C14.5959 17.5718 14.6518 17.5947 14.6731 17.6051C14.7297 17.6328 15.0838 17.6134 15.2252 17.5749C15.5348 17.4905 15.8528 17.1213 15.9049 16.7857C15.9466 16.5167 15.9237 16.31 15.8375 16.178C15.8101 16.1359 15.7876 16.0872 15.7876 16.0697C15.7876 16.0251 15.6713 15.8587 15.6037 15.8065C15.5725 15.7824 15.5122 15.7347 15.4695 15.7003C15.3978 15.6425 15.234 15.5802 14.9951 15.5198C14.8946 15.4945 14.8956 15.4945 14.8313 15.5163Z" fill="#4F4F4F"/>
</svg>
