<svg width="22" height="22" viewBox="0 0 22 22" fill="none" xmlns="http://www.w3.org/2000/svg">
<path fill-rule="evenodd" clip-rule="evenodd" d="M1.3622 1.04817C1.17189 1.15652 1.18356 1.01973 1.18356 3.14292C1.18356 5.43098 1.14587 5.26176 1.66092 5.28584L1.89961 5.297L1.89775 6.7591C1.8964 7.80715 1.88815 8.25598 1.8686 8.34397C1.84119 8.46732 1.81673 8.58344 1.77458 8.79041C1.76208 8.8518 1.74194 8.94973 1.72985 9.00805C1.696 9.17114 1.66477 9.32518 1.63819 9.46008C1.62489 9.5276 1.60444 9.62805 1.59273 9.6833C1.58102 9.73854 1.5609 9.83649 1.54799 9.90094C1.53508 9.96538 1.5143 10.0684 1.5018 10.1297C1.4893 10.1911 1.46852 10.2941 1.45561 10.3585C1.4427 10.423 1.42258 10.5209 1.41087 10.5762C1.39917 10.6314 1.37905 10.7294 1.36614 10.7938C1.35323 10.8583 1.33277 10.9587 1.32067 11.017C1.30858 11.0753 1.28812 11.1758 1.27521 11.2403C1.2623 11.3047 1.2412 11.4102 1.22829 11.4746C1.21538 11.5391 1.19492 11.6396 1.18283 11.6979C1.17073 11.7562 1.15059 11.8541 1.13809 11.9155C1.10706 12.0679 1.07633 12.2157 1.0453 12.3619C0.925503 12.9266 1.05694 13.3775 1.41867 13.6427C1.49294 13.6971 1.5038 13.7155 1.49116 13.7654C1.48296 13.7976 1.46634 13.8743 1.4542 13.9357C1.44208 13.997 1.42258 14.0925 1.41087 14.1477C1.39917 14.203 1.37871 14.3034 1.36541 14.3709C1.35211 14.4385 1.33131 14.5414 1.31922 14.5997C1.30713 14.658 1.28699 14.756 1.27448 14.8174C1.26198 14.8788 1.24152 14.9792 1.22902 15.0406C1.21652 15.102 1.19574 15.2049 1.18283 15.2694C1.16992 15.3339 1.14946 15.4343 1.13736 15.4926C1.12527 15.5509 1.10513 15.6489 1.09263 15.7103C1.08013 15.7717 1.05851 15.8746 1.04457 15.9391C0.924594 16.4944 1.0583 16.9501 1.41867 17.2142C1.49294 17.2687 1.5038 17.2871 1.49116 17.3369C1.47707 17.3924 1.46629 17.4432 1.41233 17.7081C1.39983 17.7695 1.37937 17.8699 1.36687 17.9313C1.35436 17.9927 1.3339 18.0931 1.3214 18.1545C1.3089 18.2159 1.28844 18.3164 1.27594 18.3778C1.26343 18.4391 1.24232 18.5446 1.22902 18.6121C1.21572 18.6797 1.19492 18.7826 1.18283 18.8409C1.17073 18.8992 1.15028 18.9997 1.13736 19.0642C1.1064 19.2188 1.07562 19.3669 1.04457 19.5106C0.890655 20.223 1.13852 20.732 1.73926 20.9374L1.92234 21H11.0037H20.0851L20.2682 20.9374C20.6465 20.8081 20.8405 20.6133 20.9732 20.2295C21.0134 20.1133 21.0073 19.7181 20.9622 19.505C20.9311 19.3588 20.9004 19.211 20.8694 19.0586C20.8569 18.9972 20.8364 18.8967 20.8239 18.8354C20.8114 18.774 20.7909 18.6735 20.7784 18.6121C20.7659 18.5508 20.7452 18.4478 20.7322 18.3833C20.7193 18.3189 20.6989 18.2184 20.6868 18.1601C20.6747 18.1018 20.6545 18.0039 20.642 17.9425C20.6295 17.8811 20.6088 17.7781 20.5959 17.7137C20.5505 17.4873 20.531 17.395 20.5163 17.3369C20.5037 17.2871 20.5145 17.2687 20.5888 17.2142C20.771 17.0807 20.8832 16.9183 20.9732 16.658C21.0128 16.5432 21.0075 16.1438 20.9636 15.9446C20.9501 15.8833 20.9285 15.7803 20.9156 15.7158C20.9026 15.6514 20.8822 15.5509 20.8701 15.4926C20.858 15.4343 20.8372 15.3313 20.8239 15.2638C20.8106 15.1963 20.7898 15.0933 20.7777 15.035C20.7656 14.9767 20.7455 14.8788 20.733 14.8174C20.7205 14.756 20.7 14.6555 20.6875 14.5942C20.675 14.5328 20.6545 14.4323 20.642 14.3709C20.6295 14.3096 20.6088 14.2066 20.5959 14.1421C20.5505 13.9157 20.531 13.8235 20.5163 13.7654C20.5037 13.7155 20.5145 13.6971 20.5888 13.6427C20.771 13.5091 20.8832 13.3468 20.9732 13.0865C21.0131 12.9709 21.0074 12.5737 20.9629 12.3675C20.9489 12.3031 20.9273 12.2001 20.9148 12.1387C20.9023 12.0773 20.8822 11.9794 20.8701 11.9211C20.858 11.8628 20.8375 11.7623 20.8246 11.6979C20.8117 11.6334 20.7913 11.533 20.7792 11.4746C20.7671 11.4163 20.7469 11.3184 20.7344 11.257C20.7219 11.1956 20.7015 11.0952 20.689 11.0338C20.6765 10.9724 20.6557 10.8694 20.6428 10.805C20.6299 10.7405 20.6088 10.635 20.5959 10.5706C20.5829 10.5062 20.5628 10.4082 20.5511 10.353C20.5278 10.2426 20.497 10.0924 20.4609 9.9121C20.448 9.84766 20.4272 9.74468 20.4147 9.6833C20.4022 9.62191 20.3818 9.52146 20.3693 9.46008C20.3568 9.39869 20.3363 9.29824 20.3238 9.23686C20.3113 9.17547 20.2908 9.07502 20.2783 9.01363C20.2658 8.95225 20.2451 8.84928 20.2321 8.78483C20.1939 8.59376 20.1663 8.46277 20.1381 8.33839C20.1195 8.25607 20.111 7.78612 20.1097 6.7591L20.1078 5.297L20.3465 5.28584C20.8616 5.26176 20.8239 5.43098 20.8239 3.14292C20.8239 1.01643 20.8359 1.15429 20.642 1.04728L20.5563 1L11.0006 1.00051L1.44497 1.00103L1.3622 1.04817ZM20.0851 3.14292V4.56038H11.0037H1.92234L1.91645 3.16524C1.9132 2.39792 1.91545 1.75755 1.92143 1.74219C1.93012 1.71987 3.75951 1.71538 11.0087 1.71987L20.0851 1.72547V3.14292ZM17.9029 9.21453V13.1321L9.95131 13.1377C2.90638 13.1426 1.99222 13.1395 1.93357 13.1097C1.76692 13.0251 1.66622 12.8651 1.703 12.7435C1.71634 12.6994 1.73319 12.6281 1.74042 12.5852C1.74765 12.5422 1.76342 12.4593 1.77545 12.401C1.78747 12.3427 1.80755 12.2448 1.82005 12.1834C1.83255 12.122 1.85269 12.024 1.86478 11.9657C1.89279 11.8308 1.92584 11.6685 1.95571 11.5193C1.96862 11.4548 1.98972 11.3494 2.00263 11.2849C2.01554 11.2204 2.036 11.12 2.04809 11.0617C2.06019 11.0034 2.08001 10.908 2.0921 10.8496C2.1042 10.7913 2.125 10.6883 2.13829 10.6208C2.15159 10.5533 2.17239 10.4504 2.18449 10.392C2.21249 10.257 2.24554 10.0948 2.27541 9.94558C2.28832 9.88114 2.30844 9.78319 2.32015 9.72794C2.33186 9.67269 2.35197 9.57475 2.36489 9.5103C2.3778 9.44586 2.39857 9.34289 2.41108 9.2815C2.42358 9.22011 2.44404 9.11966 2.45654 9.05828C2.46904 8.99689 2.4895 8.89644 2.502 8.83506C2.51451 8.77367 2.53497 8.67322 2.54747 8.61184C2.55997 8.55045 2.58211 8.44748 2.59668 8.38304C2.61485 8.30254 2.62555 7.80791 2.63083 6.80375C2.63505 5.99959 2.64328 5.32908 2.64912 5.31372C2.65758 5.2914 4.19587 5.28691 10.2813 5.2914L17.9029 5.297V9.21453ZM19.3711 6.78142C19.3801 7.77962 19.3931 8.30424 19.4109 8.38304C19.4254 8.44748 19.4475 8.55045 19.46 8.61184C19.4725 8.67322 19.4926 8.77115 19.5047 8.82948C19.5168 8.8878 19.537 8.98573 19.5495 9.04712C19.562 9.1085 19.5824 9.20895 19.5949 9.27034C19.6074 9.33172 19.6285 9.4372 19.6418 9.50472C19.6551 9.57224 19.6759 9.67519 19.688 9.73352C19.7001 9.79185 19.7199 9.88725 19.732 9.94558C19.76 10.0806 19.7931 10.2428 19.823 10.392C19.8359 10.4565 19.8563 10.5569 19.8684 10.6152C19.8805 10.6736 19.901 10.774 19.9139 10.8385C19.9268 10.9029 19.9476 11.0059 19.9601 11.0673C19.9726 11.1287 19.9934 11.2316 20.0063 11.2961C20.0361 11.4453 20.0692 11.6075 20.0972 11.7425C20.1093 11.8008 20.1294 11.8988 20.1419 11.9602C20.1544 12.0215 20.1752 12.1245 20.1881 12.189C20.201 12.2534 20.2211 12.3513 20.2327 12.4066C20.2444 12.4618 20.2598 12.5422 20.267 12.5852C20.2743 12.6281 20.2911 12.6994 20.3045 12.7435C20.3321 12.8347 20.2991 12.9199 20.1978 13.0194C20.0718 13.1431 20.0627 13.1444 19.3298 13.138L18.653 13.1321L18.6472 9.23686C18.644 7.09449 18.6463 5.32884 18.6524 5.31317C18.6608 5.2914 18.7453 5.28613 19.0106 5.29084L19.3577 5.297L19.3711 6.78142ZM17.9029 15.2861V16.7036L9.95131 16.7092C2.90638 16.7142 1.99222 16.711 1.93357 16.6812C1.76692 16.5966 1.66622 16.4366 1.703 16.315C1.71634 16.2709 1.73319 16.1997 1.74042 16.1567C1.75272 16.0836 1.76365 16.0287 1.81932 15.7605C1.83141 15.7022 1.85221 15.5992 1.86551 15.5317C1.87881 15.4642 1.89927 15.3637 1.91098 15.3085C1.92268 15.2532 1.9428 15.1553 1.95571 15.0908C1.98558 14.9416 2.01863 14.7794 2.04664 14.6444C2.05873 14.5861 2.07919 14.4856 2.0921 14.4212C2.10501 14.3567 2.12622 14.2512 2.13925 14.1868C2.15227 14.1223 2.1683 14.0344 2.17489 13.9915C2.18148 13.9485 2.19096 13.9008 2.19599 13.8854C2.20326 13.8631 3.78606 13.8586 10.054 13.8631L17.9029 13.8687V15.2861ZM19.8284 13.9691C19.8434 14.0626 19.855 14.1229 19.9146 14.4156C19.9271 14.477 19.9476 14.5774 19.9601 14.6388C19.9726 14.7002 19.993 14.8006 20.0056 14.862C20.0181 14.9234 20.0382 15.0214 20.0503 15.0797C20.0624 15.138 20.0828 15.2384 20.0958 15.3029C20.1256 15.4521 20.1587 15.6143 20.1867 15.7493C20.2312 15.9639 20.2542 16.0805 20.267 16.1567C20.2743 16.1997 20.2911 16.2709 20.3045 16.315C20.3321 16.4062 20.2991 16.4914 20.1978 16.591C20.0718 16.7147 20.0627 16.7159 19.3298 16.7095L18.653 16.7036L18.6471 15.3085C18.6439 14.5411 18.6462 13.9006 18.6522 13.8851C18.6608 13.863 18.7904 13.8581 19.2378 13.8627L19.8123 13.8687L19.8284 13.9691ZM17.9094 17.6458L17.9159 17.8514L17.8298 17.8948C17.7825 17.9186 17.7182 17.9601 17.6869 17.9869C17.6556 18.0138 17.6033 18.0513 17.5707 18.0702C17.538 18.0892 17.4954 18.1311 17.476 18.1632C17.4567 18.1952 17.4185 18.2466 17.3912 18.2773C17.2332 18.4547 17.2034 18.5902 17.1934 19.1768C17.18 19.96 17.1356 19.9291 18.2779 19.9291C19.4203 19.9291 19.3758 19.96 19.3624 19.1768C19.3524 18.5902 19.3226 18.4547 19.1647 18.2773C19.1374 18.2466 19.0992 18.1952 19.0798 18.1632C19.0605 18.1311 19.0179 18.0892 18.9852 18.0702C18.9525 18.0513 18.9002 18.0138 18.869 17.9869C18.8377 17.9601 18.7734 17.9186 18.726 17.8948L18.64 17.8514L18.6465 17.6458L18.653 17.4402H19.2327H19.8123L19.8284 17.5407C19.8437 17.6362 19.8646 17.744 19.9139 17.9815C19.926 18.0398 19.9464 18.1403 19.9594 18.2048C19.9723 18.2692 19.993 18.3722 20.0056 18.4336C20.0181 18.4949 20.0385 18.5954 20.051 18.6568C20.0635 18.7182 20.0837 18.8161 20.0958 18.8744C20.1238 19.0094 20.1568 19.1717 20.1867 19.3209C20.1996 19.3853 20.22 19.4858 20.232 19.5441C20.244 19.6024 20.2598 19.6853 20.267 19.7282C20.2743 19.7712 20.2911 19.8424 20.3045 19.8865C20.3345 19.9859 20.2961 20.0691 20.1607 20.1982L20.0683 20.2863H11.0037H1.93919L1.84671 20.1982C1.71132 20.0691 1.67295 19.9859 1.703 19.8865C1.71634 19.8424 1.73319 19.7712 1.74042 19.7282C1.75272 19.6551 1.76365 19.6002 1.81932 19.332C1.83141 19.2737 1.85221 19.1707 1.86551 19.1032C1.87881 19.0357 1.89927 18.9353 1.91098 18.88C1.92268 18.8248 1.9428 18.7268 1.95571 18.6624C1.96862 18.5979 1.9894 18.4949 2.0019 18.4336C2.01441 18.3722 2.03455 18.2742 2.04664 18.2159C2.05873 18.1576 2.07919 18.0572 2.0921 17.9927C2.10501 17.9282 2.12622 17.8228 2.13925 17.7583C2.15227 17.6939 2.1683 17.606 2.17489 17.563C2.18148 17.52 2.19096 17.4723 2.19599 17.4569C2.20326 17.4346 3.78606 17.4301 10.054 17.4346L17.9029 17.4402L17.9094 17.6458ZM18.4985 18.5443C18.6195 18.6167 18.644 18.6914 18.6367 18.964L18.6303 19.2037H18.2779H17.9256L17.9191 18.964C17.9094 18.6012 17.9872 18.5007 18.2779 18.5007C18.3845 18.5007 18.446 18.5128 18.4985 18.5443Z" fill="#4F4F4F" stroke="#4F4F4F" stroke-width="0.5"/>
</svg>
