<svg width="40" height="28" viewBox="0 0 40 28" fill="none" xmlns="http://www.w3.org/2000/svg">
<rect x="0.21582" width="39.5389" height="28" rx="3" fill="#828282"/>
<path fill-rule="evenodd" clip-rule="evenodd" d="M8.31722 10.0711C8.31722 10.0872 8.09198 10.0962 7.69157 10.0962H7.06592V14.025V17.9539H8.31722H9.56852V15.5766C9.56852 14.0083 9.57703 13.1992 9.59354 13.1992C9.60731 13.1992 9.61857 13.233 9.61857 13.2743C9.61857 13.3156 9.62983 13.3494 9.6436 13.3494C9.65736 13.3494 9.66862 13.3719 9.66862 13.3994C9.66862 13.4269 9.67988 13.4495 9.69365 13.4495C9.70741 13.4495 9.71867 13.4832 9.71867 13.5245C9.71867 13.5658 9.72994 13.5996 9.7437 13.5996C9.75746 13.5996 9.76873 13.6334 9.76873 13.6747C9.76873 13.716 9.77999 13.7498 9.79375 13.7498C9.80752 13.7498 9.81878 13.7835 9.81878 13.8248C9.81878 13.8661 9.83004 13.8999 9.8438 13.8999C9.85757 13.8999 9.86883 13.9337 9.86883 13.975C9.86883 14.0163 9.88009 14.0501 9.89386 14.0501C9.90762 14.0501 9.91888 14.0838 9.91888 14.1251C9.91888 14.1664 9.93014 14.2002 9.94391 14.2002C9.95767 14.2002 9.96893 14.234 9.96893 14.2753C9.96893 14.3166 9.9802 14.3503 9.99396 14.3503C10.0077 14.3503 10.019 14.3841 10.019 14.4254C10.019 14.4667 10.0302 14.5005 10.044 14.5005C10.0578 14.5005 10.069 14.523 10.069 14.5505C10.069 14.5781 10.0803 14.6006 10.0941 14.6006C10.1078 14.6006 10.1191 14.6344 10.1191 14.6757C10.1191 14.717 10.1304 14.7507 10.1441 14.7507C10.1579 14.7507 10.1691 14.7845 10.1691 14.8258C10.1691 14.8671 10.1804 14.9009 10.1942 14.9009C10.2079 14.9009 10.2192 14.9347 10.2192 14.976C10.2192 15.0173 10.2305 15.051 10.2442 15.051C10.258 15.051 10.2692 15.0848 10.2692 15.1261C10.2692 15.1674 10.2805 15.2012 10.2943 15.2012C10.308 15.2012 10.3193 15.235 10.3193 15.2763C10.3193 15.3175 10.3306 15.3513 10.3443 15.3513C10.3581 15.3513 10.3693 15.3851 10.3693 15.4264C10.3693 15.4677 10.3806 15.5015 10.3944 15.5015C10.4081 15.5015 10.4194 15.5353 10.4194 15.5766C10.4194 15.6178 10.4307 15.6516 10.4444 15.6516C10.4582 15.6516 10.4695 15.6854 10.4695 15.7267C10.4695 15.768 10.4807 15.8018 10.4945 15.8018C10.5082 15.8018 10.5195 15.8243 10.5195 15.8518C10.5195 15.8794 10.5308 15.9019 10.5445 15.9019C10.5583 15.9019 10.5696 15.9357 10.5696 15.9769C10.5696 16.0182 10.5808 16.052 10.5946 16.052C10.6083 16.052 10.6196 16.0858 10.6196 16.1271C10.6196 16.1684 10.6309 16.2022 10.6446 16.2022C10.6584 16.2022 10.6697 16.236 10.6697 16.2772C10.6697 16.3185 10.6809 16.3523 10.6947 16.3523C10.7085 16.3523 10.7197 16.3861 10.7197 16.4274C10.7197 16.4687 10.731 16.5025 10.7447 16.5025C10.7585 16.5025 10.7698 16.5362 10.7698 16.5775C10.7698 16.6188 10.781 16.6526 10.7948 16.6526C10.8086 16.6526 10.8198 16.6864 10.8198 16.7277C10.8198 16.769 10.8311 16.8028 10.8448 16.8028C10.8586 16.8028 10.8699 16.8365 10.8699 16.8778C10.8699 16.9191 10.8811 16.9529 10.8949 16.9529C10.9087 16.9529 10.9199 16.9754 10.9199 17.003C10.9199 17.0305 10.9312 17.053 10.9449 17.053C10.9587 17.053 10.97 17.0868 10.97 17.1281C10.97 17.1694 10.9812 17.2032 10.995 17.2032C11.0088 17.2032 11.02 17.2369 11.02 17.2782C11.02 17.3195 11.0313 17.3533 11.0451 17.3533C11.0588 17.3533 11.0701 17.3871 11.0701 17.4284C11.0701 17.4697 11.0813 17.5035 11.0951 17.5035C11.1089 17.5035 11.1201 17.5372 11.1201 17.5785C11.1201 17.6198 11.1314 17.6536 11.1452 17.6536C11.1589 17.6536 11.1702 17.6874 11.1702 17.7287C11.1702 17.77 11.1814 17.8037 11.1952 17.8037C11.209 17.8037 11.2202 17.8263 11.2202 17.8538C11.2202 17.9028 11.2369 17.9038 12.0461 17.9038C12.8553 17.9038 12.8719 17.9028 12.8719 17.8538C12.8719 17.8263 12.8832 17.8037 12.897 17.8037C12.9107 17.8037 12.922 17.77 12.922 17.7287C12.922 17.6874 12.9333 17.6536 12.947 17.6536C12.9608 17.6536 12.9721 17.6311 12.9721 17.6035C12.9721 17.576 12.9833 17.5535 12.9971 17.5535C13.0108 17.5535 13.0221 17.5197 13.0221 17.4784C13.0221 17.4371 13.0334 17.4034 13.0471 17.4034C13.0609 17.4034 13.0722 17.3696 13.0722 17.3283C13.0722 17.287 13.0834 17.2532 13.0972 17.2532C13.1109 17.2532 13.1222 17.2194 13.1222 17.1781C13.1222 17.1368 13.1335 17.1031 13.1472 17.1031C13.161 17.1031 13.1723 17.0693 13.1723 17.028C13.1723 16.9867 13.1835 16.9529 13.1973 16.9529C13.2111 16.9529 13.2223 16.9191 13.2223 16.8778C13.2223 16.8365 13.2336 16.8028 13.2473 16.8028C13.2611 16.8028 13.2724 16.769 13.2724 16.7277C13.2724 16.6864 13.2836 16.6526 13.2974 16.6526C13.3112 16.6526 13.3224 16.6188 13.3224 16.5775C13.3224 16.5362 13.3337 16.5025 13.3474 16.5025C13.3612 16.5025 13.3725 16.4687 13.3725 16.4274C13.3725 16.3861 13.3837 16.3523 13.3975 16.3523C13.4113 16.3523 13.4225 16.3298 13.4225 16.3023C13.4225 16.2747 13.4338 16.2522 13.4475 16.2522C13.4613 16.2522 13.4726 16.2184 13.4726 16.1771C13.4726 16.1359 13.4838 16.1021 13.4976 16.1021C13.5114 16.1021 13.5226 16.0683 13.5226 16.027C13.5226 15.9857 13.5339 15.9519 13.5477 15.9519C13.5614 15.9519 13.5727 15.9181 13.5727 15.8768C13.5727 15.8356 13.5839 15.8018 13.5977 15.8018C13.6115 15.8018 13.6227 15.768 13.6227 15.7267C13.6227 15.6854 13.634 15.6516 13.6478 15.6516C13.6615 15.6516 13.6728 15.6178 13.6728 15.5766C13.6728 15.5353 13.684 15.5015 13.6978 15.5015C13.7116 15.5015 13.7228 15.4677 13.7228 15.4264C13.7228 15.3851 13.7341 15.3513 13.7479 15.3513C13.7616 15.3513 13.7729 15.3175 13.7729 15.2763C13.7729 15.235 13.7841 15.2012 13.7979 15.2012C13.8117 15.2012 13.8229 15.1787 13.8229 15.1511C13.8229 15.1236 13.8342 15.1011 13.848 15.1011C13.8617 15.1011 13.873 15.0673 13.873 15.026C13.873 14.9847 13.8843 14.9509 13.898 14.9509C13.9118 14.9509 13.923 14.9172 13.923 14.8759C13.923 14.8346 13.9343 14.8008 13.9481 14.8008C13.9618 14.8008 13.9731 14.767 13.9731 14.7257C13.9731 14.6844 13.9844 14.6506 13.9981 14.6506C14.0119 14.6506 14.0231 14.6169 14.0231 14.5756C14.0231 14.5343 14.0344 14.5005 14.0482 14.5005C14.0619 14.5005 14.0732 14.4667 14.0732 14.4254C14.0732 14.3841 14.0845 14.3503 14.0982 14.3503C14.112 14.3503 14.1232 14.3166 14.1232 14.2753C14.1232 14.234 14.1345 14.2002 14.1483 14.2002C14.162 14.2002 14.1733 14.1664 14.1733 14.1251C14.1733 14.0838 14.1846 14.0501 14.1983 14.0501C14.2121 14.0501 14.2234 14.0275 14.2234 14C14.2234 13.9725 14.2346 13.95 14.2484 13.95C14.2621 13.95 14.2734 13.9162 14.2734 13.8749C14.2734 13.8336 14.2847 13.7998 14.2984 13.7998C14.3122 13.7998 14.3235 13.766 14.3235 13.7247C14.3235 13.6834 14.3347 13.6497 14.3485 13.6497C14.3622 13.6497 14.3735 13.6159 14.3735 13.5746C14.3735 13.5333 14.3848 13.4995 14.3985 13.4995C14.4123 13.4995 14.4236 13.4657 14.4236 13.4244C14.4236 13.3831 14.4348 13.3494 14.4486 13.3494C14.4624 13.3494 14.4736 13.3156 14.4736 13.2743C14.4736 13.2159 14.4847 13.1992 14.5237 13.1992C14.5734 13.1992 14.5737 13.2159 14.5737 15.5766V17.9539H15.8H17.0263V14.025V10.0962H16.4006C16.0002 10.0962 15.775 10.0872 15.775 10.0711C15.775 10.055 15.4913 10.0461 14.9741 10.0461C14.4569 10.0461 14.1733 10.055 14.1733 10.0711C14.1733 10.0849 14.117 10.0962 14.0482 10.0962C13.9793 10.0962 13.923 10.1074 13.923 10.1212C13.923 10.1349 13.9005 10.1462 13.873 10.1462C13.8455 10.1462 13.8229 10.1575 13.8229 10.1712C13.8229 10.185 13.8049 10.1963 13.7829 10.1963C13.7609 10.1963 13.7113 10.23 13.6728 10.2713C13.6342 10.3126 13.5846 10.3464 13.5626 10.3464C13.5406 10.3464 13.5226 10.3644 13.5226 10.3864C13.5226 10.4084 13.4888 10.458 13.4475 10.4966C13.4063 10.5351 13.3725 10.5847 13.3725 10.6067C13.3725 10.6287 13.3612 10.6467 13.3474 10.6467C13.3337 10.6467 13.3224 10.6692 13.3224 10.6968C13.3224 10.7243 13.3112 10.7468 13.2974 10.7468C13.2836 10.7468 13.2724 10.7693 13.2724 10.7969C13.2724 10.8244 13.2611 10.8469 13.2473 10.8469C13.2336 10.8469 13.2223 10.8807 13.2223 10.922C13.2223 10.9633 13.2111 10.997 13.1973 10.997C13.1835 10.997 13.1723 11.0421 13.1723 11.0971C13.1723 11.1522 13.161 11.1972 13.1472 11.1972C13.1335 11.1972 13.1222 11.231 13.1222 11.2723C13.1222 11.3136 13.1109 11.3474 13.0972 11.3474C13.0834 11.3474 13.0722 11.3812 13.0722 11.4225C13.0722 11.4638 13.0609 11.4975 13.0471 11.4975C13.0334 11.4975 13.0221 11.5426 13.0221 11.5976C13.0221 11.6527 13.0108 11.6977 12.9971 11.6977C12.9833 11.6977 12.9721 11.7315 12.9721 11.7728C12.9721 11.8141 12.9608 11.8479 12.947 11.8479C12.9333 11.8479 12.922 11.8817 12.922 11.923C12.922 11.9642 12.9107 11.998 12.897 11.998C12.8832 11.998 12.8719 12.0431 12.8719 12.0981C12.8719 12.1532 12.8607 12.1982 12.8469 12.1982C12.8332 12.1982 12.8219 12.232 12.8219 12.2733C12.8219 12.3146 12.8106 12.3484 12.7969 12.3484C12.7831 12.3484 12.7718 12.3822 12.7718 12.4235C12.7718 12.4647 12.7606 12.4985 12.7468 12.4985C12.7331 12.4985 12.7218 12.5436 12.7218 12.5986C12.7218 12.6537 12.7105 12.6987 12.6968 12.6987C12.683 12.6987 12.6717 12.7325 12.6717 12.7738C12.6717 12.8151 12.6605 12.8489 12.6467 12.8489C12.633 12.8489 12.6217 12.8939 12.6217 12.949C12.6217 13.004 12.6104 13.0491 12.5967 13.0491C12.5829 13.0491 12.5716 13.0829 12.5716 13.1241C12.5716 13.1654 12.5604 13.1992 12.5466 13.1992C12.5328 13.1992 12.5216 13.233 12.5216 13.2743C12.5216 13.3156 12.5103 13.3494 12.4966 13.3494C12.4828 13.3494 12.4715 13.3944 12.4715 13.4495C12.4715 13.5045 12.4603 13.5496 12.4465 13.5496C12.4327 13.5496 12.4215 13.5833 12.4215 13.6246C12.4215 13.6659 12.4102 13.6997 12.3965 13.6997C12.3827 13.6997 12.3714 13.7335 12.3714 13.7748C12.3714 13.8161 12.3602 13.8499 12.3464 13.8499C12.3326 13.8499 12.3214 13.8949 12.3214 13.95C12.3214 14.005 12.3101 14.0501 12.2964 14.0501C12.2826 14.0501 12.2713 14.0838 12.2713 14.1251C12.2713 14.1664 12.2601 14.2002 12.2463 14.2002C12.2325 14.2002 12.2213 14.234 12.2213 14.2753C12.2213 14.3166 12.21 14.3503 12.1962 14.3503C12.1825 14.3503 12.1712 14.3954 12.1712 14.4504C12.1712 14.5055 12.16 14.5505 12.1462 14.5505C12.1324 14.5505 12.1212 14.5843 12.1212 14.6256C12.1212 14.6669 12.1099 14.7007 12.0961 14.7007C12.0824 14.7007 12.0711 14.7232 12.0711 14.7507C12.0711 14.7783 12.0599 14.8008 12.0461 14.8008C12.0323 14.8008 12.0211 14.7783 12.0211 14.7507C12.0211 14.7232 12.0098 14.7007 11.996 14.7007C11.9823 14.7007 11.971 14.6556 11.971 14.6006C11.971 14.5455 11.9598 14.5005 11.946 14.5005C11.9322 14.5005 11.921 14.4667 11.921 14.4254C11.921 14.3841 11.9097 14.3503 11.8959 14.3503C11.8822 14.3503 11.8709 14.3053 11.8709 14.2502C11.8709 14.1952 11.8596 14.1502 11.8459 14.1502C11.8321 14.1502 11.8209 14.1164 11.8209 14.0751C11.8209 14.0338 11.8096 14 11.7958 14C11.7821 14 11.7708 13.9662 11.7708 13.9249C11.7708 13.8836 11.7595 13.8499 11.7458 13.8499C11.732 13.8499 11.7208 13.8048 11.7208 13.7498C11.7208 13.6947 11.7095 13.6497 11.6957 13.6497C11.682 13.6497 11.6707 13.6159 11.6707 13.5746C11.6707 13.5333 11.6594 13.4995 11.6457 13.4995C11.6319 13.4995 11.6206 13.4657 11.6206 13.4244C11.6206 13.3831 11.6094 13.3494 11.5956 13.3494C11.5819 13.3494 11.5706 13.3043 11.5706 13.2493C11.5706 13.1942 11.5593 13.1492 11.5456 13.1492C11.5318 13.1492 11.5205 13.1154 11.5205 13.0741C11.5205 13.0328 11.5093 12.999 11.4955 12.999C11.4818 12.999 11.4705 12.9652 11.4705 12.9239C11.4705 12.8827 11.4592 12.8489 11.4455 12.8489C11.4317 12.8489 11.4204 12.8038 11.4204 12.7488C11.4204 12.6937 11.4092 12.6487 11.3954 12.6487C11.3817 12.6487 11.3704 12.6149 11.3704 12.5736C11.3704 12.5323 11.3591 12.4985 11.3454 12.4985C11.3316 12.4985 11.3203 12.4647 11.3203 12.4235C11.3203 12.3822 11.3091 12.3484 11.2953 12.3484C11.2815 12.3484 11.2703 12.3033 11.2703 12.2483C11.2703 12.1932 11.259 12.1482 11.2453 12.1482C11.2315 12.1482 11.2202 12.1144 11.2202 12.0731C11.2202 12.0318 11.209 11.998 11.1952 11.998C11.1814 11.998 11.1702 11.953 11.1702 11.8979C11.1702 11.8429 11.1589 11.7978 11.1452 11.7978C11.1314 11.7978 11.1201 11.7641 11.1201 11.7228C11.1201 11.6815 11.1089 11.6477 11.0951 11.6477C11.0813 11.6477 11.0701 11.6139 11.0701 11.5726C11.0701 11.5313 11.0588 11.4975 11.0451 11.4975C11.0313 11.4975 11.02 11.4525 11.02 11.3974C11.02 11.3424 11.0088 11.2973 10.995 11.2973C10.9812 11.2973 10.97 11.2636 10.97 11.2223C10.97 11.181 10.9587 11.1472 10.9449 11.1472C10.9312 11.1472 10.9199 11.1134 10.9199 11.0721C10.9199 11.0308 10.9087 10.997 10.8949 10.997C10.8811 10.997 10.8699 10.9633 10.8699 10.922C10.8699 10.8807 10.8586 10.8469 10.8448 10.8469C10.8311 10.8469 10.8198 10.8131 10.8198 10.7718C10.8198 10.7305 10.8086 10.6968 10.7948 10.6968C10.781 10.6968 10.7698 10.6788 10.7698 10.6567C10.7698 10.6347 10.736 10.5852 10.6947 10.5466C10.6534 10.508 10.6196 10.4636 10.6196 10.4478C10.6196 10.4084 10.5042 10.2964 10.4636 10.2964C10.4454 10.2964 10.4142 10.2738 10.3944 10.2463C10.3745 10.2188 10.3383 10.1963 10.3138 10.1963C10.2893 10.1963 10.2692 10.185 10.2692 10.1712C10.2692 10.1575 10.2467 10.1462 10.2192 10.1462C10.1917 10.1462 10.1691 10.1349 10.1691 10.1212C10.1691 10.1074 10.1128 10.0962 10.044 10.0962C9.97519 10.0962 9.91888 10.0849 9.91888 10.0711C9.91888 10.055 9.63526 10.0461 9.11805 10.0461C8.60084 10.0461 8.31722 10.055 8.31722 10.0711ZM19.679 10.0711C19.679 10.0873 19.4204 10.0962 18.9533 10.0962H18.2275V10.2713C18.2275 10.3714 18.2382 10.4465 18.2525 10.4465C18.2691 10.4465 18.2776 11.7061 18.2776 14.1752V17.9038H19.4037C20.1378 17.9038 20.5299 17.8951 20.5299 17.8788C20.5299 17.8651 20.5637 17.8538 20.605 17.8538C20.6463 17.8538 20.6801 17.8425 20.6801 17.8288C20.6801 17.815 20.7114 17.8037 20.7496 17.8037C20.7905 17.8037 20.834 17.7831 20.8552 17.7537C20.8751 17.7262 20.9059 17.7036 20.9237 17.7036C20.9658 17.7036 21.4308 17.2387 21.4308 17.1965C21.4308 17.1787 21.4534 17.1479 21.4809 17.1281C21.5084 17.1082 21.5309 17.0745 21.5309 17.053C21.5309 17.0316 21.5535 16.9978 21.581 16.9779C21.6085 16.9581 21.631 16.9243 21.631 16.9029C21.631 16.8814 21.6536 16.8476 21.6811 16.8278C21.7086 16.8079 21.7312 16.7717 21.7312 16.7472C21.7312 16.7227 21.7424 16.7027 21.7562 16.7027C21.7699 16.7027 21.7812 16.6801 21.7812 16.6526C21.7812 16.6251 21.7925 16.6026 21.8062 16.6026C21.82 16.6026 21.8313 16.58 21.8313 16.5525C21.8313 16.525 21.8425 16.5025 21.8563 16.5025C21.87 16.5025 21.8813 16.4799 21.8813 16.4524C21.8813 16.4249 21.8926 16.4024 21.9063 16.4024C21.9201 16.4024 21.9314 16.3798 21.9314 16.3523C21.9314 16.3248 21.9426 16.3023 21.9564 16.3023C21.9702 16.3023 21.9814 16.2797 21.9814 16.2522C21.9814 16.2247 21.9927 16.2022 22.0064 16.2022C22.0202 16.2022 22.0315 16.1796 22.0315 16.1521C22.0315 16.1246 22.0427 16.1021 22.0565 16.1021C22.0703 16.1021 22.0815 16.0795 22.0815 16.052C22.0815 16.0245 22.0928 16.002 22.1065 16.002C22.1203 16.002 22.1316 15.9795 22.1316 15.9519C22.1316 15.9244 22.1428 15.9019 22.1566 15.9019C22.1704 15.9019 22.1816 15.8794 22.1816 15.8518C22.1816 15.8243 22.1929 15.8018 22.2066 15.8018C22.2204 15.8018 22.2317 15.7793 22.2317 15.7517C22.2317 15.7242 22.2429 15.7017 22.2567 15.7017C22.2705 15.7017 22.2817 15.6792 22.2817 15.6516C22.2817 15.6241 22.293 15.6016 22.3068 15.6016C22.3205 15.6016 22.3318 15.5678 22.3318 15.5265C22.3318 15.4852 22.343 15.4514 22.3568 15.4514C22.3706 15.4514 22.3818 15.4289 22.3818 15.4014C22.3818 15.3739 22.3931 15.3513 22.4069 15.3513C22.4206 15.3513 22.4319 15.3288 22.4319 15.3013C22.4319 15.2738 22.4431 15.2512 22.4569 15.2512C22.4707 15.2512 22.4819 15.2287 22.4819 15.2012C22.4819 15.1737 22.4932 15.1511 22.507 15.1511C22.5207 15.1511 22.532 15.1286 22.532 15.1011C22.532 15.0736 22.5432 15.051 22.557 15.051C22.5708 15.051 22.582 15.0173 22.582 14.976C22.582 14.9347 22.5933 14.9009 22.6071 14.9009C22.6208 14.9009 22.6321 14.8784 22.6321 14.8508C22.6321 14.8233 22.6433 14.8008 22.6571 14.8008C22.6709 14.8008 22.6821 14.7783 22.6821 14.7507C22.6821 14.7232 22.6934 14.7007 22.7072 14.7007C22.7209 14.7007 22.7322 14.6782 22.7322 14.6506C22.7322 14.6231 22.7435 14.6006 22.7572 14.6006C22.771 14.6006 22.7822 14.5668 22.7822 14.5255C22.7822 14.4842 22.7935 14.4504 22.8073 14.4504C22.821 14.4504 22.8323 14.4279 22.8323 14.4004C22.8323 14.3729 22.8436 14.3503 22.8573 14.3503C22.8711 14.3503 22.8823 14.3278 22.8823 14.3003C22.8823 14.2728 22.8936 14.2502 22.9074 14.2502C22.9211 14.2502 22.9324 14.2277 22.9324 14.2002C22.9324 14.1727 22.9437 14.1502 22.9574 14.1502C22.9712 14.1502 22.9825 14.1276 22.9825 14.1001C22.9825 14.0726 22.9937 14.0501 23.0075 14.0501C23.0212 14.0501 23.0325 14.0275 23.0325 14C23.0325 13.9725 23.0438 13.95 23.0575 13.95C23.0713 13.95 23.0826 13.9274 23.0826 13.8999C23.0826 13.8724 23.0938 13.8499 23.1076 13.8499C23.1213 13.8499 23.1326 13.8273 23.1326 13.7998C23.1326 13.7723 23.1439 13.7498 23.1576 13.7498C23.1714 13.7498 23.1827 13.7272 23.1827 13.6997C23.1827 13.6722 23.1939 13.6497 23.2077 13.6497C23.2215 13.6497 23.2327 13.6296 23.2327 13.6051C23.2327 13.5806 23.2552 13.5444 23.2828 13.5245C23.3103 13.5047 23.3328 13.4684 23.3328 13.4439C23.3328 13.4195 23.3441 13.3994 23.3578 13.3994C23.3716 13.3994 23.3829 13.382 23.3829 13.3607C23.3829 13.3247 23.4889 13.1992 23.5194 13.1992C23.5269 13.1992 23.533 14.269 23.533 15.5766V17.9539H24.7843H26.0356V14.025V10.0962H25.5601C25.2598 10.0962 25.0846 10.087 25.0846 10.0711C25.0846 10.055 24.8344 10.0461 24.3839 10.0461C23.9334 10.0461 23.6832 10.055 23.6832 10.0711C23.6832 10.0849 23.6381 10.0962 23.5831 10.0962C23.528 10.0962 23.483 10.1074 23.483 10.1212C23.483 10.1349 23.4517 10.1462 23.4134 10.1462C23.3726 10.1462 23.329 10.1669 23.3078 10.1963C23.2879 10.2238 23.2542 10.2463 23.2327 10.2463C23.2113 10.2463 23.1775 10.2688 23.1576 10.2964C23.1378 10.3239 23.1069 10.3464 23.0889 10.3464C23.049 10.3464 22.8323 10.5592 22.8323 10.5985C22.8323 10.6139 22.7985 10.6582 22.7572 10.6968C22.7159 10.7353 22.6821 10.7849 22.6821 10.8069C22.6821 10.8289 22.6709 10.8469 22.6571 10.8469C22.6433 10.8469 22.6321 10.8694 22.6321 10.8969C22.6321 10.9245 22.6208 10.947 22.6071 10.947C22.5933 10.947 22.582 10.9695 22.582 10.997C22.582 11.0246 22.5708 11.0471 22.557 11.0471C22.5432 11.0471 22.532 11.0696 22.532 11.0971C22.532 11.1247 22.5207 11.1472 22.507 11.1472C22.4932 11.1472 22.4819 11.1697 22.4819 11.1972C22.4819 11.2248 22.4707 11.2473 22.4569 11.2473C22.4431 11.2473 22.4319 11.2698 22.4319 11.2973C22.4319 11.3249 22.4206 11.3474 22.4069 11.3474C22.3931 11.3474 22.3818 11.3699 22.3818 11.3974C22.3818 11.425 22.3706 11.4475 22.3568 11.4475C22.343 11.4475 22.3318 11.47 22.3318 11.4975C22.3318 11.5251 22.3205 11.5476 22.3068 11.5476C22.293 11.5476 22.2817 11.5701 22.2817 11.5976C22.2817 11.6252 22.2705 11.6477 22.2567 11.6477C22.2429 11.6477 22.2317 11.6815 22.2317 11.7228C22.2317 11.7641 22.2204 11.7978 22.2066 11.7978C22.1929 11.7978 22.1816 11.8204 22.1816 11.8479C22.1816 11.8754 22.1704 11.8979 22.1566 11.8979C22.1428 11.8979 22.1316 11.9205 22.1316 11.948C22.1316 11.9755 22.1203 11.998 22.1065 11.998C22.0928 11.998 22.0815 12.0206 22.0815 12.0481C22.0815 12.0756 22.0703 12.0981 22.0565 12.0981C22.0427 12.0981 22.0315 12.1207 22.0315 12.1482C22.0315 12.1757 22.0202 12.1982 22.0064 12.1982C21.9927 12.1982 21.9814 12.2208 21.9814 12.2483C21.9814 12.2758 21.9702 12.2983 21.9564 12.2983C21.9426 12.2983 21.9314 12.3209 21.9314 12.3484C21.9314 12.3759 21.9201 12.3984 21.9063 12.3984C21.8926 12.3984 21.8813 12.4209 21.8813 12.4485C21.8813 12.476 21.87 12.4985 21.8563 12.4985C21.8425 12.4985 21.8313 12.521 21.8313 12.5486C21.8313 12.5761 21.82 12.5986 21.8062 12.5986C21.7925 12.5986 21.7812 12.6211 21.7812 12.6487C21.7812 12.6762 21.7699 12.6987 21.7562 12.6987C21.7424 12.6987 21.7312 12.7212 21.7312 12.7488C21.7312 12.7763 21.7199 12.7988 21.7061 12.7988C21.6924 12.7988 21.6811 12.8326 21.6811 12.8739C21.6811 12.9152 21.6698 12.949 21.6561 12.949C21.6423 12.949 21.631 12.9715 21.631 12.999C21.631 13.0265 21.6198 13.0491 21.606 13.0491C21.5923 13.0491 21.581 13.0716 21.581 13.0991C21.581 13.1266 21.5697 13.1492 21.556 13.1492C21.5422 13.1492 21.5309 13.1717 21.5309 13.1992C21.5309 13.2267 21.5197 13.2493 21.5059 13.2493C21.4922 13.2493 21.4809 13.2718 21.4809 13.2993C21.4809 13.3268 21.4696 13.3494 21.4559 13.3494C21.4421 13.3494 21.4308 13.3719 21.4308 13.3994C21.4308 13.4269 21.4196 13.4495 21.4058 13.4495C21.392 13.4495 21.3808 13.472 21.3808 13.4995C21.3808 13.527 21.3695 13.5496 21.3558 13.5496C21.342 13.5496 21.3307 13.5721 21.3307 13.5996C21.3307 13.6271 21.3195 13.6497 21.3057 13.6497C21.2919 13.6497 21.2807 13.6722 21.2807 13.6997C21.2807 13.7272 21.2694 13.7498 21.2557 13.7498C21.2419 13.7498 21.2306 13.7723 21.2306 13.7998C21.2306 13.8273 21.2194 13.8499 21.2056 13.8499C21.1918 13.8499 21.1806 13.8836 21.1806 13.9249C21.1806 13.9662 21.1693 14 21.1556 14C21.1418 14 21.1305 14.0225 21.1305 14.0501C21.1305 14.0776 21.1193 14.1001 21.1055 14.1001C21.0917 14.1001 21.0805 14.1226 21.0805 14.1502C21.0805 14.1777 21.0692 14.2002 21.0555 14.2002C21.0417 14.2002 21.0304 14.2227 21.0304 14.2502C21.0304 14.2778 21.0192 14.3003 21.0054 14.3003C20.9916 14.3003 20.9804 14.3228 20.9804 14.3503C20.9804 14.3779 20.9691 14.4004 20.9553 14.4004C20.9416 14.4004 20.9303 14.4229 20.9303 14.4504C20.9303 14.478 20.9191 14.5005 20.9053 14.5005C20.8915 14.5005 20.8803 14.523 20.8803 14.5505C20.8803 14.5781 20.869 14.6006 20.8552 14.6006C20.8415 14.6006 20.8302 14.6231 20.8302 14.6506C20.8302 14.6782 20.819 14.7007 20.8052 14.7007C20.7914 14.7007 20.7802 14.7232 20.7802 14.7507C20.7802 14.7783 20.7689 14.8008 20.7551 14.8008C20.7414 14.8008 20.7301 14.8185 20.7301 14.8401C20.7301 14.878 20.6737 14.9509 20.6443 14.9509C20.6364 14.9509 20.63 13.8474 20.63 12.4985V10.0461H20.1545C19.8542 10.0461 19.679 10.0553 19.679 10.0711ZM26.8365 10.0711C26.8365 10.0849 26.8477 10.0962 26.8615 10.0962C26.8758 10.0962 26.8865 10.1712 26.8865 10.2713C26.8865 10.3714 26.8972 10.4465 26.9115 10.4465C26.9253 10.4465 26.9366 10.4803 26.9366 10.5216C26.9366 10.5629 26.9478 10.5967 26.9616 10.5967C26.9753 10.5967 26.9866 10.6304 26.9866 10.6717C26.9866 10.713 26.9979 10.7468 27.0116 10.7468C27.0254 10.7468 27.0367 10.7806 27.0367 10.8219C27.0367 10.8632 27.0479 10.8969 27.0617 10.8969C27.0755 10.8969 27.0867 10.9195 27.0867 10.947C27.0867 10.9745 27.098 10.997 27.1117 10.997C27.1255 10.997 27.1368 11.0196 27.1368 11.0471C27.1368 11.0746 27.148 11.0971 27.1618 11.0971C27.1756 11.0971 27.1868 11.1197 27.1868 11.1472C27.1868 11.1747 27.1981 11.1972 27.2118 11.1972C27.2256 11.1972 27.2369 11.2198 27.2369 11.2473C27.2369 11.2748 27.2481 11.2973 27.2619 11.2973C27.2757 11.2973 27.2869 11.3174 27.2869 11.3419C27.2869 11.3664 27.3094 11.4026 27.337 11.4225C27.3645 11.4423 27.387 11.4761 27.387 11.4975C27.387 11.519 27.4096 11.5528 27.4371 11.5726C27.4646 11.5925 27.4871 11.624 27.4871 11.6427C27.4871 11.6614 27.5322 11.7199 27.5872 11.7728C27.6423 11.8257 27.6873 11.8813 27.6873 11.8963C27.6873 11.9322 28.2041 12.4485 28.2401 12.4485C28.2554 12.4485 28.2994 12.4823 28.338 12.5235C28.3766 12.5648 28.4237 12.5986 28.4426 12.5986C28.4616 12.5986 28.4934 12.6211 28.5132 12.6487C28.533 12.6762 28.5668 12.6987 28.5883 12.6987C28.6097 12.6987 28.6435 12.7212 28.6634 12.7488C28.6832 12.7763 28.7195 12.7988 28.744 12.7988C28.7684 12.7988 28.7885 12.8101 28.7885 12.8238C28.7885 12.8376 28.811 12.8489 28.8385 12.8489C28.8661 12.8489 28.8886 12.8601 28.8886 12.8739C28.8886 12.8877 28.9111 12.8989 28.9386 12.8989C28.9662 12.8989 28.9887 12.9102 28.9887 12.9239C28.9887 12.9377 29.0112 12.949 29.0387 12.949C29.0663 12.949 29.0888 12.9602 29.0888 12.974C29.0888 12.9878 29.1226 12.999 29.1639 12.999C29.2052 12.999 29.239 13.0103 29.239 13.024C29.239 13.0378 29.2727 13.0491 29.314 13.0491C29.3553 13.0491 29.3891 13.0603 29.3891 13.0741C29.3891 13.0879 29.4342 13.0991 29.4892 13.0991C29.5443 13.0991 29.5893 13.1104 29.5893 13.1241C29.5893 13.1379 29.6456 13.1492 29.7144 13.1492C29.7833 13.1492 29.8396 13.1604 29.8396 13.1742C29.8396 13.1907 30.7072 13.1992 32.3922 13.1992H34.9449V12.9239C34.9449 12.7571 34.935 12.6487 34.9199 12.6487C34.9056 12.6487 34.8948 12.5736 34.8948 12.4735C34.8948 12.3734 34.8841 12.2983 34.8698 12.2983C34.856 12.2983 34.8448 12.242 34.8448 12.1732C34.8448 12.1044 34.8335 12.0481 34.8197 12.0481C34.806 12.0481 34.7947 12.003 34.7947 11.948C34.7947 11.8929 34.7835 11.8479 34.7697 11.8479C34.7559 11.8479 34.7447 11.8141 34.7447 11.7728C34.7447 11.7315 34.7334 11.6977 34.7196 11.6977C34.7059 11.6977 34.6946 11.664 34.6946 11.6227C34.6946 11.5814 34.6834 11.5476 34.6696 11.5476C34.6558 11.5476 34.6446 11.5251 34.6446 11.4975C34.6446 11.47 34.6333 11.4475 34.6195 11.4475C34.6058 11.4475 34.5945 11.425 34.5945 11.3974C34.5945 11.3699 34.5833 11.3474 34.5695 11.3474C34.5557 11.3474 34.5445 11.3273 34.5445 11.3029C34.5445 11.2784 34.5219 11.2421 34.4944 11.2223C34.4669 11.2024 34.4444 11.1686 34.4444 11.1472C34.4444 11.1257 34.4218 11.092 34.3943 11.0721C34.3668 11.0523 34.3443 11.0215 34.3443 11.0037C34.3443 10.9615 33.9294 10.5466 33.8872 10.5466C33.8694 10.5466 33.8386 10.5241 33.8187 10.4966C33.7989 10.469 33.7626 10.4465 33.7381 10.4465C33.7136 10.4465 33.6936 10.4352 33.6936 10.4215C33.6936 10.4077 33.6711 10.3965 33.6435 10.3965C33.616 10.3965 33.5935 10.3852 33.5935 10.3714C33.5935 10.3577 33.571 10.3464 33.5434 10.3464C33.5159 10.3464 33.4934 10.3351 33.4934 10.3214C33.4934 10.3076 33.4708 10.2964 33.4433 10.2964C33.4158 10.2964 33.3933 10.2851 33.3933 10.2713C33.3933 10.2576 33.3595 10.2463 33.3182 10.2463C33.2769 10.2463 33.2431 10.235 33.2431 10.2213C33.2431 10.2075 33.2093 10.1963 33.168 10.1963C33.1267 10.1963 33.093 10.185 33.093 10.1712C33.093 10.1573 33.0262 10.1462 32.9428 10.1462C32.8594 10.1462 32.7926 10.1351 32.7926 10.1212C32.7926 10.1048 32.3172 10.0962 31.4162 10.0962C30.5153 10.0962 30.0398 10.0875 30.0398 10.0711C30.0398 10.0547 29.4892 10.0461 28.4381 10.0461C27.387 10.0461 26.8365 10.0547 26.8365 10.0711ZM27.2369 15.7517V17.8538H28.4131H29.5893V16.6026V15.3513H31.241C32.3255 15.3513 32.8927 15.3427 32.8927 15.3263C32.8927 15.3125 32.9378 15.3013 32.9929 15.3013C33.0479 15.3013 33.093 15.29 33.093 15.2763C33.093 15.2625 33.1267 15.2512 33.168 15.2512C33.2093 15.2512 33.2431 15.24 33.2431 15.2262C33.2431 15.2124 33.2656 15.2012 33.2932 15.2012C33.3207 15.2012 33.3432 15.1899 33.3432 15.1762C33.3432 15.1624 33.377 15.1511 33.4183 15.1511C33.4596 15.1511 33.4934 15.1399 33.4934 15.1261C33.4934 15.1123 33.5159 15.1011 33.5434 15.1011C33.571 15.1011 33.5935 15.0898 33.5935 15.0761C33.5935 15.0623 33.616 15.051 33.6435 15.051C33.6711 15.051 33.6936 15.0398 33.6936 15.026C33.6936 15.0122 33.7136 15.001 33.7381 15.001C33.7626 15.001 33.7989 14.9785 33.8187 14.9509C33.8386 14.9234 33.8723 14.9009 33.8938 14.9009C33.9152 14.9009 33.949 14.8784 33.9689 14.8508C33.9887 14.8233 34.0195 14.8008 34.0373 14.8008C34.0795 14.8008 34.4944 14.3859 34.4944 14.3437C34.4944 14.3259 34.5169 14.2951 34.5445 14.2753C34.572 14.2554 34.5945 14.2192 34.5945 14.1947C34.5945 14.1702 34.6058 14.1502 34.6195 14.1502C34.6333 14.1502 34.6446 14.1276 34.6446 14.1001C34.6446 14.0726 34.6558 14.0501 34.6696 14.0501C34.6834 14.0501 34.6946 14.0275 34.6946 14C34.6946 13.9725 34.7059 13.95 34.7196 13.95C34.7334 13.95 34.7447 13.9274 34.7447 13.8999C34.7447 13.8724 34.7559 13.8499 34.7697 13.8499C34.7835 13.8499 34.7947 13.8161 34.7947 13.7748V13.6997H33.3933C32.4756 13.6997 31.9918 13.6911 31.9918 13.6747C31.9918 13.6582 31.1826 13.6497 29.6143 13.6497H27.2369V15.7517Z" fill="white"/>
</svg>
