<svg width="23" height="20" viewBox="0 0 23 20" fill="none" xmlns="http://www.w3.org/2000/svg">
<path d="M2.11321 2.08302C2.96604 2.08302 2.26415 2.08302 2.52075 2.08302H3.38868C3.38868 2.08302 3.40377 2.07547 3.41887 2.07547V1.7434H2.11321V2.08302ZM19.6906 0H20.4604C20.5887 0 20.6943 0.10566 20.6943 0.241509V0.34717H21.6075C21.9094 0.34717 22.1509 0.588679 22.1509 0.890566V1.20755C22.1509 1.50189 21.9094 1.7434 21.6075 1.7434H20.6943V2.56604V20H18.317C18.0906 20 17.8566 19.8943 17.6604 19.7736L17.6226 19.7962C17.4264 19.917 17.2 20 16.966 20H16.8H16.0679H15.517C15.2679 20 15.0868 19.9094 14.9057 19.7811C14.717 19.9094 14.5283 20 14.2415 20H11.7358V2.56604V1.7434H9.83396V2.56604V20H7.44906C7.22264 20 6.99623 19.8943 6.8 19.7736L6.76226 19.7962C6.56604 19.917 6.33962 20 6.10566 20H5.93208H5.20755H4.64906C4.4 20 4.22641 19.9094 4.03774 19.7811C3.8566 19.9094 3.66038 20 3.38113 20H0.867925V2.56604V1.7434H0.543396C0.249057 1.7434 0 1.50189 0 1.20755V0.890566C0 0.588679 0.249057 0.34717 0.543396 0.34717H0.867925V0.241509C0.867925 0.10566 0.981132 0 1.10943 0H1.87925C2.00755 0 2.11321 0.10566 2.11321 0.241509V0.34717H3.41887V0.241509C3.41887 0.10566 3.52453 0 3.66038 0H4.42264C4.55094 0 4.66415 0.10566 4.66415 0.241509V0.34717H6.13585V0.241509C6.13585 0.10566 6.24151 0 6.36981 0H7.13962C7.26792 0 7.38113 0.10566 7.38113 0.241509V0.34717H8.58868V0.241509C8.58868 0.10566 8.69434 0 8.83019 0H9.59245C9.7283 0 9.83396 0.10566 9.83396 0.241509V0.34717H11.7358V0.241509C11.7358 0.10566 11.8415 0 11.9774 0H12.7396C12.8679 0 12.9811 0.10566 12.9811 0.241509V0.34717H14.2792V0.241509C14.2792 0.10566 14.3849 0 14.5208 0H15.283C15.4189 0 15.5245 0.10566 15.5245 0.241509V0.34717H16.9962V0.241509C16.9962 0.10566 17.1019 0 17.2377 0H18C18.1358 0 18.2415 0.10566 18.2415 0.241509V0.34717H19.4491V0.241509C19.4491 0.10566 19.5623 0 19.6906 0ZM19.4491 2.08302V1.7434H18.2415V2.08302H19.4491ZM16.9962 2.08302V1.7434H15.5245V2.07547C15.7283 2.07547 15.4038 2.07547 16.2943 2.08302H16.9736C16.9811 2.08302 16.9887 2.08302 16.9962 2.08302ZM14.2792 2.07547V1.7434H12.9811V2.08302C13.8264 2.08302 13.1321 2.08302 13.3811 2.08302H14.2491C14.2566 2.08302 14.2642 2.07547 14.2792 2.07547ZM17.6302 9.0717C17.9698 9.0717 18.2566 9.35849 18.2566 9.69811V18.8226L18.317 18.8679H19.5623V3.21509H18.1358C18.0075 3.21509 17.8566 3.16226 17.7132 3.10189L17.6302 3.06415C17.4641 3.13962 17.2377 3.20755 16.9811 3.21509L16.2943 3.20755C15.8566 3.20755 16.3321 3.20755 15.5245 3.20755C15.3887 3.20755 15.1849 3.16226 15.0113 3.10189C14.9736 3.08679 14.9283 3.0717 14.8906 3.0566C14.8528 3.0717 14.8075 3.08679 14.7698 3.10189C14.5887 3.16226 14.3925 3.20755 14.2491 3.20755H13.3811C12.9736 3.20755 12.8906 3.20755 12.8679 3.21509V18.8679H14.2415C14.2415 18.8679 14.2566 18.8604 14.2792 18.8453V16.0453C14.2792 15.7057 14.5585 15.4264 14.8981 15.4264H14.9057C15.2453 15.4264 15.5245 15.7057 15.5245 16.0453V18.8755H16.0679V18.8679H16.8V18.8755H16.966C16.9736 18.8755 16.9887 18.8679 17.0113 18.8528V9.69811C17.0113 9.35849 17.2906 9.0717 17.6302 9.0717ZM4.66415 1.7434V2.07547C4.86792 2.07547 4.5434 2.07547 5.42641 2.08302H6.11321C6.12075 2.08302 6.1283 2.08302 6.13585 2.08302V1.7434H4.66415ZM7.38113 1.7434V2.08302H8.58868V1.7434H7.38113ZM6.76981 15.0868C7.10943 15.0868 7.38868 15.366 7.38868 15.7132V18.8226L7.44906 18.8679H8.70189V3.21509H7.26792C7.14717 3.21509 6.98868 3.16226 6.84528 3.10189L6.76981 3.06415C6.60377 3.13962 6.37736 3.20755 6.11321 3.21509L5.42641 3.20755C4.99623 3.20755 5.4717 3.20755 4.6566 3.20755C4.52075 3.20755 4.32453 3.16226 4.1434 3.10189C4.10566 3.08679 4.06792 3.0717 4.03019 3.0566C3.98491 3.0717 3.94717 3.08679 3.90189 3.10189C3.7283 3.16226 3.52453 3.20755 3.38868 3.20755H2.52075C2.11321 3.20755 2.02264 3.20755 2 3.21509V18.8679H3.38113C3.38113 18.8679 3.39623 18.8604 3.41887 18.8453V13.4038C3.41887 13.0566 3.69811 12.7774 4.03774 12.7774C4.38491 12.7774 4.66415 13.0566 4.66415 13.4038V18.8755H5.20755V18.8679H5.93208V18.8755H6.10566C6.10566 18.8755 6.12075 18.8679 6.1434 18.8528V15.7132C6.1434 15.366 6.42264 15.0868 6.76981 15.0868Z" fill="#4F4F4F"/>
</svg>
