<svg width="27" height="27" viewBox="0 0 27 27" fill="none" xmlns="http://www.w3.org/2000/svg">
<path fill-rule="evenodd" clip-rule="evenodd" d="M1.45276 1.06021C1.21487 1.19565 1.22944 1.02467 1.22944 3.67865C1.22944 6.53873 1.18233 6.3272 1.82616 6.3573L2.12451 6.37126L2.12218 8.19888C2.12051 9.50893 2.11019 10.07 2.08575 10.18C2.05149 10.3342 2.02091 10.4793 1.96823 10.738C1.9526 10.8147 1.92743 10.9372 1.91231 11.0101C1.87 11.2139 1.83096 11.4065 1.79774 11.5751C1.78112 11.6595 1.75554 11.7851 1.74091 11.8541C1.72628 11.9232 1.70113 12.0456 1.68499 12.1262C1.66885 12.2067 1.64288 12.3354 1.62725 12.4122C1.61162 12.4889 1.58565 12.6176 1.56951 12.6982C1.55337 12.7787 1.52823 12.9012 1.51359 12.9702C1.49896 13.0393 1.47381 13.1617 1.45767 13.2423C1.44153 13.3228 1.41596 13.4484 1.40084 13.5213C1.38573 13.5942 1.36015 13.7197 1.34401 13.8003C1.32787 13.8809 1.3015 14.0127 1.28536 14.0933C1.26922 14.1739 1.24365 14.2995 1.22853 14.3723C1.21342 14.4452 1.18824 14.5677 1.17261 14.6444C1.13383 14.8348 1.09541 15.0196 1.05662 15.2024C0.906878 15.9083 1.07117 16.4719 1.52334 16.8033C1.61617 16.8714 1.62975 16.8944 1.61395 16.9567C1.6037 16.997 1.58292 17.0928 1.56775 17.1696C1.55261 17.2463 1.52823 17.3656 1.51359 17.4346C1.49896 17.5037 1.47339 17.6293 1.45676 17.7137C1.44014 17.7981 1.41414 17.9268 1.39902 17.9997C1.38391 18.0726 1.35873 18.195 1.3431 18.2717C1.32748 18.3485 1.3019 18.474 1.28627 18.5508C1.27065 18.6275 1.24467 18.7562 1.22853 18.8368C1.21239 18.9173 1.18682 19.0429 1.1717 19.1158C1.15659 19.1887 1.13141 19.3111 1.11578 19.3878C1.10016 19.4646 1.07313 19.5933 1.05572 19.6738C0.905742 20.3679 1.07288 20.9376 1.52334 21.2678C1.61617 21.3358 1.62975 21.3588 1.61395 21.4212C1.59634 21.4905 1.58287 21.554 1.51541 21.8851C1.49978 21.9618 1.47421 22.0874 1.45858 22.1641C1.44295 22.2409 1.41738 22.3664 1.40175 22.4432C1.38612 22.5199 1.36055 22.6455 1.34492 22.7222C1.32929 22.7989 1.3029 22.9308 1.28627 23.0152C1.26965 23.0996 1.24365 23.2283 1.22853 23.3012C1.21342 23.3741 1.18784 23.4996 1.1717 23.5802C1.133 23.7735 1.09453 23.9586 1.05572 24.1383C0.863319 25.0287 1.17315 25.6651 1.92407 25.9218L2.15293 26H13.5047H24.8564L25.0852 25.9218C25.5581 25.7601 25.8006 25.5166 25.9664 25.0369C26.0167 24.8916 26.0092 24.3976 25.9527 24.1313C25.9139 23.9485 25.8755 23.7637 25.8367 23.5732C25.8211 23.4965 25.7955 23.3709 25.7799 23.2942C25.7642 23.2175 25.7387 23.0919 25.723 23.0152C25.7074 22.9384 25.6814 22.8098 25.6653 22.7292C25.6492 22.6486 25.6236 22.523 25.6085 22.4501C25.5934 22.3773 25.5682 22.2548 25.5526 22.1781C25.5369 22.1014 25.511 21.9727 25.4948 21.8921C25.4382 21.6091 25.4138 21.4938 25.3954 21.4212C25.3796 21.3588 25.3931 21.3358 25.486 21.2678C25.7137 21.1009 25.854 20.8979 25.9664 20.5725C26.0161 20.429 26.0094 19.9298 25.9545 19.6808C25.9376 19.6041 25.9106 19.4754 25.8944 19.3948C25.8783 19.3142 25.8527 19.1887 25.8376 19.1158C25.8225 19.0429 25.7965 18.9142 25.7799 18.8298C25.7633 18.7454 25.7373 18.6167 25.7221 18.5438C25.707 18.4709 25.6818 18.3485 25.6662 18.2717C25.6506 18.195 25.625 18.0694 25.6094 17.9927C25.5938 17.916 25.5682 17.7904 25.5526 17.7137C25.5369 17.6369 25.511 17.5083 25.4948 17.4277C25.4382 17.1447 25.4138 17.0294 25.3954 16.9567C25.3796 16.8944 25.3931 16.8714 25.486 16.8033C25.7137 16.6364 25.854 16.4335 25.9664 16.1081C26.0164 15.9636 26.0093 15.4671 25.9536 15.2094C25.9362 15.1288 25.9092 15.0001 25.8935 14.9234C25.8779 14.8467 25.8527 14.7242 25.8376 14.6514C25.8225 14.5785 25.7969 14.4529 25.7808 14.3723C25.7646 14.2918 25.7391 14.1662 25.724 14.0933C25.7088 14.0204 25.6837 13.898 25.668 13.8213C25.6524 13.7445 25.6268 13.619 25.6112 13.5422C25.5956 13.4655 25.5696 13.3368 25.5535 13.2562C25.5373 13.1757 25.511 13.0438 25.4948 12.9633C25.4787 12.8827 25.4535 12.7603 25.4389 12.6912C25.4097 12.5532 25.3712 12.3654 25.3261 12.1401C25.31 12.0596 25.284 11.9309 25.2684 11.8541C25.2528 11.7774 25.2272 11.6518 25.2116 11.5751C25.1959 11.4984 25.1704 11.3728 25.1547 11.2961C25.1391 11.2193 25.1135 11.0938 25.0979 11.017C25.0823 10.9403 25.0563 10.8116 25.0402 10.731C24.9924 10.4922 24.9579 10.3285 24.9227 10.173C24.8993 10.0701 24.8888 9.48265 24.8871 8.19888L24.8848 6.37126L25.1832 6.3573C25.827 6.3272 25.7799 6.53873 25.7799 3.67865C25.7799 1.02054 25.7948 1.19286 25.5524 1.0591L25.4454 1L13.5008 1.00064L1.55621 1.00128L1.45276 1.06021ZM24.8564 3.67865V5.45047H13.5047H2.15293L2.14557 3.70655C2.1415 2.7474 2.14432 1.94693 2.15179 1.92773C2.16264 1.89983 4.44939 1.89422 13.5109 1.89983L24.8564 1.90684V3.67865ZM22.1286 11.2682V16.1651L12.1891 16.1721C3.38298 16.1783 2.24027 16.1743 2.16696 16.1371C1.95865 16.0313 1.83278 15.8314 1.87875 15.6793C1.89543 15.6242 1.91649 15.5352 1.92552 15.4815C1.93456 15.4277 1.95428 15.3241 1.96931 15.2513C1.98434 15.1784 2.00943 15.0559 2.02506 14.9792C2.04069 14.9025 2.06586 14.78 2.08098 14.7072C2.11599 14.5384 2.1573 14.3356 2.19464 14.1491C2.21078 14.0685 2.23715 13.9367 2.25329 13.8561C2.26943 13.7756 2.295 13.65 2.31012 13.5771C2.32523 13.5042 2.35001 13.3849 2.36513 13.312C2.38025 13.2391 2.40624 13.1104 2.42287 13.026C2.43949 12.9416 2.46549 12.8129 2.48061 12.74C2.51561 12.5713 2.55693 12.3685 2.59427 12.182C2.61041 12.1014 2.63555 11.979 2.65019 11.9099C2.66482 11.8409 2.68997 11.7184 2.70611 11.6379C2.72225 11.5573 2.74822 11.4286 2.76385 11.3519C2.77947 11.2751 2.80505 11.1496 2.82068 11.0728C2.8363 10.9961 2.86188 10.8706 2.87751 10.7938C2.89313 10.7171 2.91871 10.5915 2.93433 10.5148C2.94996 10.4381 2.97764 10.3093 2.99585 10.2288C3.01856 10.1282 3.03194 9.50988 3.03853 8.25468C3.04382 7.24949 3.0541 6.41135 3.06141 6.39215C3.07198 6.36425 4.99484 6.35864 12.6016 6.36425L22.1286 6.37126V11.2682ZM23.9639 8.22678C23.9751 9.47453 23.9914 10.1303 24.0136 10.2288C24.0317 10.3093 24.0594 10.4381 24.075 10.5148C24.0906 10.5915 24.1158 10.7139 24.1309 10.7868C24.146 10.8598 24.1712 10.9822 24.1868 11.0589C24.2025 11.1356 24.228 11.2612 24.2437 11.3379C24.2593 11.4147 24.2857 11.5465 24.3023 11.6309C24.3189 11.7153 24.3449 11.844 24.36 11.9169C24.3752 11.9898 24.3999 12.1091 24.4151 12.182C24.4501 12.3507 24.4914 12.5535 24.5287 12.74C24.5449 12.8206 24.5704 12.9461 24.5855 13.0191C24.6007 13.092 24.6262 13.2175 24.6424 13.2981C24.6585 13.3786 24.6845 13.5074 24.7001 13.5841C24.7157 13.6608 24.7417 13.7895 24.7578 13.8701C24.7952 14.0566 24.8365 14.2594 24.8715 14.4281C24.8866 14.501 24.9118 14.6235 24.9274 14.7002C24.9431 14.7769 24.969 14.9056 24.9852 14.9862C25.0013 15.0668 25.0264 15.1892 25.0409 15.2582C25.0555 15.3273 25.0748 15.4277 25.0838 15.4815C25.0928 15.5352 25.1139 15.6242 25.1306 15.6793C25.1651 15.7934 25.1239 15.8999 24.9972 16.0243C24.8397 16.1789 24.8283 16.1805 23.9122 16.1725L23.0663 16.1651L23.059 11.2961C23.0549 8.61811 23.0579 6.41104 23.0655 6.39146C23.076 6.36425 23.1816 6.35767 23.5132 6.36355L23.9471 6.37126L23.9639 8.22678ZM22.1286 18.8577V20.6295L12.1891 20.6365C3.38298 20.6427 2.24027 20.6387 2.16696 20.6015C1.95865 20.4957 1.83278 20.2958 1.87875 20.1437C1.89543 20.0886 1.91649 19.9996 1.92552 19.9459C1.94089 19.8545 1.95456 19.7859 2.02415 19.4506C2.03927 19.3777 2.06527 19.249 2.08189 19.1646C2.09851 19.0802 2.12409 18.9546 2.13872 18.8856C2.15335 18.8165 2.1785 18.6941 2.19464 18.6135C2.23198 18.427 2.27329 18.2242 2.3083 18.0555C2.32342 17.9826 2.34899 17.857 2.36513 17.7765C2.38127 17.6959 2.40778 17.5641 2.42406 17.4835C2.44034 17.4029 2.46038 17.293 2.46862 17.2393C2.47686 17.1856 2.4887 17.126 2.49498 17.1068C2.50408 17.0789 4.48258 17.0733 12.3175 17.0789L22.1286 17.0859V18.8577ZM24.5355 17.2114C24.5542 17.3283 24.5688 17.4037 24.6433 17.7695C24.6589 17.8462 24.6845 17.9718 24.7001 18.0485C24.7157 18.1252 24.7413 18.2508 24.7569 18.3275C24.7726 18.4043 24.7977 18.5267 24.8129 18.5996C24.828 18.6725 24.8536 18.798 24.8697 18.8786C24.907 19.0651 24.9483 19.2679 24.9834 19.4367C25.039 19.7049 25.0677 19.8506 25.0838 19.9459C25.0928 19.9996 25.1139 20.0886 25.1306 20.1437C25.1651 20.2578 25.1239 20.3643 24.9972 20.4887C24.8397 20.6433 24.8283 20.6449 23.9122 20.6369L23.0663 20.6295L23.0589 18.8856C23.0548 17.9264 23.0577 17.1258 23.0653 17.1063C23.076 17.0788 23.2381 17.0726 23.7972 17.0784L24.5154 17.0859L24.5355 17.2114ZM22.1367 21.8073L22.1449 22.0643L22.0373 22.1185C21.9781 22.1483 21.8977 22.2001 21.8586 22.2336C21.8196 22.2672 21.7541 22.3141 21.7133 22.3378C21.6725 22.3616 21.6192 22.4138 21.595 22.4539C21.5709 22.494 21.5231 22.5583 21.489 22.5966C21.2916 22.8184 21.2543 22.9877 21.2418 23.721C21.225 24.7 21.1695 24.6614 22.5974 24.6614C24.0254 24.6614 23.9698 24.7 23.9531 23.721C23.9405 22.9877 23.9033 22.8184 23.7058 22.5966C23.6717 22.5583 23.624 22.494 23.5998 22.4539C23.5756 22.4138 23.5224 22.3616 23.4815 22.3378C23.4407 22.3141 23.3753 22.2672 23.3362 22.2336C23.2971 22.2001 23.2167 22.1483 23.1576 22.1185L23.0499 22.0643L23.0581 21.8073L23.0663 21.5503H23.7908H24.5154L24.5355 21.6758C24.5546 21.7953 24.5808 21.93 24.6424 22.2269C24.6575 22.2998 24.6831 22.4254 24.6992 22.5059C24.7153 22.5865 24.7413 22.7152 24.7569 22.792C24.7726 22.8687 24.7981 22.9942 24.8138 23.071C24.8294 23.1477 24.8546 23.2701 24.8697 23.343C24.9047 23.5118 24.946 23.7146 24.9834 23.9011C24.9995 23.9817 25.025 24.1072 25.04 24.1801C25.055 24.253 25.0748 24.3566 25.0838 24.4103C25.0928 24.464 25.1139 24.5531 25.1306 24.6082C25.1681 24.7324 25.1202 24.8364 24.9509 24.9977L24.8353 25.1079H13.5047H2.17398L2.05839 24.9977C1.88915 24.8364 1.84119 24.7324 1.87875 24.6082C1.89543 24.5531 1.91649 24.464 1.92552 24.4103C1.94089 24.3189 1.95456 24.2503 2.02415 23.915C2.03927 23.8421 2.06527 23.7134 2.08189 23.629C2.09851 23.5446 2.12409 23.4191 2.13872 23.35C2.15335 23.2809 2.1785 23.1585 2.19464 23.078C2.21078 22.9974 2.23675 22.8687 2.25238 22.792C2.26801 22.7152 2.29318 22.5928 2.3083 22.5199C2.32342 22.447 2.34899 22.3215 2.36513 22.2409C2.38127 22.1603 2.40778 22.0285 2.42406 21.9479C2.44034 21.8673 2.46038 21.7575 2.46862 21.7037C2.47686 21.65 2.4887 21.5904 2.49498 21.5712C2.50408 21.5433 4.48258 21.5377 12.3175 21.5433L22.1286 21.5503L22.1367 21.8073ZM22.8731 22.9303C23.0243 23.0209 23.0551 23.1143 23.0459 23.4551L23.0378 23.7546H22.5974H22.157L22.1489 23.4551C22.1367 23.0016 22.234 22.8759 22.5974 22.8759C22.7306 22.8759 22.8075 22.8911 22.8731 22.9303Z" fill="#55021A" stroke="#55021A" stroke-width="0.7"/>
</svg>
