<svg width="20" height="20" viewBox="0 0 20 20" fill="none" xmlns="http://www.w3.org/2000/svg">
<path d="M3.48 6.875H5.2V8.595C5.2 8.64 5.245 8.675 5.3 8.675H6.5C6.555 8.675 6.6 8.64 6.6 8.5925V6.875H8.32C8.365 6.875 8.4 6.83 8.4 6.775V5.575C8.4 5.52 8.365 5.475 8.3175 5.475H6.6V3.755C6.6 3.71 6.555 3.675 6.5 3.675H5.3C5.245 3.675 5.2 3.71 5.2 3.755V5.475H3.48C3.435 5.475 3.4 5.52 3.4 5.575V6.775C3.4 6.83 3.435 6.875 3.48 6.875ZM11.68 6.875H16.52C16.565 6.875 16.6 6.83 16.6 6.775V5.575C16.6 5.52 16.565 5.475 16.5175 5.475H11.68C11.635 5.475 11.6 5.52 11.6 5.575V6.775C11.6 6.83 11.635 6.875 11.68 6.875ZM11.68 13.5H16.52C16.565 13.5 16.6 13.455 16.6 13.4V12.2C16.6 12.145 16.565 12.1 16.5175 12.1H11.68C11.635 12.1 11.6 12.145 11.6 12.2V13.4C11.6 13.455 11.635 13.5 11.68 13.5ZM11.68 16.1H16.52C16.565 16.1 16.6 16.055 16.6 16V14.8C16.6 14.745 16.565 14.7 16.5175 14.7H11.68C11.635 14.7 11.6 14.745 11.6 14.8V16C11.6 16.055 11.635 16.1 11.68 16.1ZM6.7875 14.075L8.3175 12.2025C8.425 12.0725 8.335 11.875 8.17 11.875H6.9C6.8425 11.875 6.7875 11.9 6.7525 11.9475L5.9025 12.9875L5.0525 11.9475C5.03462 11.9255 5.01217 11.9076 4.98671 11.8951C4.96124 11.8825 4.93337 11.8757 4.905 11.875H3.6325C3.4675 11.875 3.3775 12.0725 3.485 12.2025L5.015 14.075L3.4475 15.995C3.3375 16.125 3.4275 16.3225 3.5925 16.3225H4.8625C4.92 16.3225 4.975 16.2975 5.01 16.25L5.8975 15.1625L6.785 16.25C6.8225 16.295 6.8775 16.3225 6.9325 16.3225H8.2025C8.3675 16.3225 8.4575 16.125 8.35 15.995L6.7875 14.075ZM19.2 0H0.8C0.3575 0 0 0.3575 0 0.8V19.2C0 19.6425 0.3575 20 0.8 20H19.2C19.6425 20 20 19.6425 20 19.2V0.8C20 0.3575 19.6425 0 19.2 0ZM18.3 18.3H1.7V1.7H18.3V18.3Z" fill="#4F4F4F"/>
</svg>
