<svg width="28" height="26" viewBox="0 0 28 26" fill="none" xmlns="http://www.w3.org/2000/svg">
<path fill-rule="evenodd" clip-rule="evenodd" d="M27.9727 4.12609C27.9567 4.12609 27.9453 4.03189 27.9453 3.9C27.9453 3.76811 27.9339 3.67391 27.918 3.67391C27.9029 3.67391 27.8906 3.61033 27.8906 3.53261C27.8906 3.45489 27.8783 3.3913 27.8633 3.3913C27.8482 3.3913 27.8359 3.34044 27.8359 3.27826C27.8359 3.21609 27.8236 3.16522 27.8086 3.16522C27.7936 3.16522 27.7812 3.12707 27.7812 3.08044C27.7812 3.0338 27.7689 2.99565 27.7539 2.99565C27.7389 2.99565 27.7266 2.9575 27.7266 2.91087C27.7266 2.86424 27.7143 2.82609 27.6992 2.82609C27.6842 2.82609 27.6719 2.80065 27.6719 2.76957C27.6719 2.73848 27.6596 2.71304 27.6445 2.71304C27.6295 2.71304 27.6172 2.67489 27.6172 2.62826C27.6172 2.58163 27.6049 2.54348 27.5898 2.54348C27.5748 2.54348 27.5625 2.51804 27.5625 2.48696C27.5625 2.45587 27.5502 2.43043 27.5352 2.43043C27.5201 2.43043 27.5078 2.4078 27.5078 2.38016C27.5078 2.35249 27.4832 2.31154 27.4531 2.28913C27.423 2.26672 27.3984 2.22577 27.3984 2.1981C27.3984 2.17046 27.3861 2.14783 27.3711 2.14783C27.3561 2.14783 27.3437 2.12519 27.3437 2.09755C27.3437 2.06988 27.3191 2.02893 27.2891 2.00652C27.259 1.98411 27.2344 1.94596 27.2344 1.92174C27.2344 1.89752 27.2098 1.85937 27.1797 1.83696C27.1496 1.81455 27.125 1.77984 27.125 1.75983C27.125 1.71552 26.3448 0.904348 26.3022 0.904348C26.2856 0.904348 26.2374 0.866196 26.1953 0.819565C26.1532 0.772935 26.1017 0.734783 26.081 0.734783C26.0603 0.734783 26.0256 0.709348 26.0039 0.678261C25.9822 0.647174 25.9426 0.621739 25.9158 0.621739C25.8891 0.621739 25.8672 0.609022 25.8672 0.593478C25.8672 0.577935 25.8426 0.565217 25.8125 0.565217C25.7824 0.565217 25.7578 0.5525 25.7578 0.536956C25.7578 0.521413 25.7332 0.508696 25.7031 0.508696C25.673 0.508696 25.6484 0.495978 25.6484 0.480435C25.6484 0.464891 25.6238 0.452174 25.5938 0.452174C25.5637 0.452174 25.5391 0.439456 25.5391 0.423913C25.5391 0.408369 25.5145 0.395652 25.4844 0.395652C25.4543 0.395652 25.4297 0.382935 25.4297 0.367391C25.4297 0.351848 25.4051 0.33913 25.375 0.33913C25.3449 0.33913 25.3203 0.326413 25.3203 0.310869C25.3203 0.295326 25.2834 0.282609 25.2383 0.282609C25.1932 0.282609 25.1563 0.269891 25.1563 0.254348C25.1563 0.238804 25.1193 0.226087 25.0742 0.226087C25.0291 0.226087 24.9922 0.213369 24.9922 0.197826C24.9922 0.182282 24.9553 0.169565 24.9102 0.169565C24.865 0.169565 24.8281 0.156848 24.8281 0.141304C24.8281 0.125761 24.7666 0.113043 24.6914 0.113043C24.6162 0.113043 24.5547 0.100326 24.5547 0.0847825C24.5547 0.0690694 24.4818 0.0565216 24.3906 0.0565216C24.2995 0.0565216 24.2266 0.0439738 24.2266 0.0282607C24.2266 0.00946723 20.8997 -3.10363e-07 14.3008 -5.98812e-07C7.70183 -8.87261e-07 4.375 0.00946636 4.375 0.0282598C4.375 0.0443968 4.29297 0.0565207 4.1836 0.0565207C4.07422 0.0565207 3.99219 0.0686446 3.99219 0.0847816C3.99219 0.100325 3.93067 0.113042 3.85547 0.113042C3.78028 0.113042 3.71875 0.12576 3.71875 0.141303C3.71875 0.156847 3.68184 0.169564 3.63672 0.169564C3.5916 0.169564 3.55469 0.182282 3.55469 0.197825C3.55469 0.213369 3.50547 0.226086 3.44531 0.226086C3.38516 0.226086 3.33594 0.238803 3.33594 0.254347C3.33594 0.26989 3.31133 0.282608 3.28125 0.282608C3.25117 0.282608 3.22656 0.295325 3.22656 0.310868C3.22656 0.326412 3.18965 0.339129 3.14453 0.339129C3.09941 0.339129 3.0625 0.351847 3.0625 0.36739C3.0625 0.382934 3.03789 0.395651 3.00781 0.395651C2.97774 0.395651 2.95313 0.408369 2.95313 0.423912C2.95313 0.439455 2.92852 0.452173 2.89844 0.452173C2.86836 0.452173 2.84375 0.46489 2.84375 0.480434C2.84375 0.495977 2.80955 0.508695 2.76776 0.508695C2.72314 0.508695 2.6755 0.532038 2.65235 0.565216C2.63066 0.596303 2.59104 0.621738 2.56427 0.621738C2.53753 0.621738 2.51563 0.634455 2.51563 0.649999C2.51563 0.665542 2.49102 0.67826 2.46094 0.67826C2.43086 0.67826 2.40625 0.690977 2.40625 0.706521C2.40625 0.722064 2.38435 0.734782 2.35761 0.734782C2.33084 0.734782 2.29122 0.760216 2.26953 0.791303C2.24785 0.82239 2.21315 0.847825 2.19242 0.847825C2.17172 0.847825 2.12026 0.885977 2.07813 0.932608C2.03599 0.979238 1.98702 1.01739 1.9693 1.01739C1.95161 1.01739 1.88984 1.06826 1.83203 1.13043C1.77423 1.19261 1.7135 1.24348 1.69707 1.24348C1.65807 1.24348 1.20313 1.71368 1.20313 1.75398C1.20313 1.77097 1.15391 1.83373 1.09375 1.89348C1.0336 1.95322 0.984377 2.01935 0.984377 2.04046C0.984377 2.06157 0.959768 2.09715 0.929689 2.11956C0.89961 2.14198 0.875002 2.18013 0.875002 2.20435C0.875002 2.22857 0.850393 2.26672 0.820314 2.28913C0.790235 2.31154 0.765627 2.34969 0.765627 2.37391C0.765627 2.39813 0.741018 2.43628 0.710939 2.45869C0.68086 2.48111 0.656252 2.52206 0.656252 2.54972C0.656252 2.57736 0.643947 2.6 0.628908 2.6C0.613869 2.6 0.601564 2.62543 0.601564 2.65652C0.601564 2.68761 0.58926 2.71304 0.574221 2.71304C0.559181 2.71304 0.546877 2.73848 0.546877 2.76956C0.546877 2.80065 0.534572 2.82609 0.519533 2.82609C0.504494 2.82609 0.492189 2.85152 0.492189 2.88261C0.492189 2.91369 0.479885 2.93913 0.464846 2.93913C0.449806 2.93913 0.437502 2.96456 0.437502 2.99565C0.437502 3.02674 0.425197 3.05217 0.410158 3.05217C0.395119 3.05217 0.382814 3.09033 0.382814 3.13696C0.382814 3.18359 0.37051 3.22174 0.355471 3.22174C0.340431 3.22174 0.328127 3.24717 0.328127 3.27826C0.328127 3.30935 0.315822 3.33478 0.300783 3.33478C0.285744 3.33478 0.273439 3.37293 0.273439 3.41956C0.273439 3.46619 0.261135 3.50435 0.246096 3.50435C0.231056 3.50435 0.218752 3.55522 0.218752 3.61739C0.218752 3.67956 0.206447 3.73043 0.191408 3.73043C0.176369 3.73043 0.164064 3.7813 0.164064 3.84348C0.164064 3.90565 0.15176 3.95652 0.13672 3.95652C0.121681 3.95652 0.109377 4.02011 0.109377 4.09783C0.109377 4.17554 0.0970724 4.23913 0.082033 4.23913C0.0658186 4.23913 0.0546892 4.34276 0.0546892 4.49348C0.0546892 4.64419 0.0435598 4.74783 0.0273454 4.74783C0.0091627 4.74783 1.56928e-06 7.73407 1.31069e-06 13.65C1.05209e-06 19.5659 0.00916192 22.5522 0.0273447 22.5522C0.0432863 22.5522 0.0546884 22.6464 0.0546884 22.7783C0.0546884 22.9102 0.0660905 23.0043 0.0820322 23.0043C0.0970716 23.0043 0.109376 23.0679 0.109376 23.1457C0.109376 23.2234 0.12168 23.287 0.13672 23.287C0.151759 23.287 0.164063 23.3251 0.164063 23.3717C0.164063 23.4184 0.176368 23.4565 0.191407 23.4565C0.206447 23.4565 0.218751 23.4947 0.218751 23.5413C0.218751 23.5879 0.231055 23.6261 0.246095 23.6261C0.261134 23.6261 0.273438 23.6515 0.273438 23.6826C0.273438 23.7137 0.285743 23.7391 0.300782 23.7391C0.315822 23.7391 0.328126 23.7646 0.328126 23.7957C0.328126 23.8267 0.34043 23.8522 0.35547 23.8522C0.370509 23.8522 0.382813 23.8776 0.382813 23.9087C0.382813 23.9398 0.395118 23.9652 0.410157 23.9652C0.425197 23.9652 0.437501 23.9907 0.437501 24.0217C0.437501 24.0528 0.449805 24.0783 0.464845 24.0783C0.479884 24.0783 0.492188 24.1037 0.492188 24.1348C0.492188 24.1659 0.504493 24.1913 0.519532 24.1913C0.534572 24.1913 0.546876 24.2139 0.546876 24.2416C0.546876 24.2692 0.571484 24.3102 0.601563 24.3326C0.631642 24.355 0.656251 24.3906 0.656251 24.4117C0.656251 24.4328 0.70547 24.499 0.765626 24.5587C0.825782 24.6184 0.875001 24.6813 0.875001 24.6983C0.875001 24.7387 1.22035 25.0957 1.25945 25.0957C1.27594 25.0957 1.33673 25.1465 1.39453 25.2087C1.45234 25.2709 1.51632 25.3217 1.53675 25.3217C1.55717 25.3217 1.5916 25.3472 1.61328 25.3783C1.63496 25.4093 1.67459 25.4348 1.70136 25.4348C1.7281 25.4348 1.75 25.4475 1.75 25.463C1.75 25.4786 1.7719 25.4913 1.79865 25.4913C1.82542 25.4913 1.86503 25.5167 1.88672 25.5478C1.9084 25.5789 1.94802 25.6043 1.97479 25.6043C2.00154 25.6043 2.02344 25.6171 2.02344 25.6326C2.02344 25.6482 2.06035 25.6609 2.10547 25.6609C2.15059 25.6609 2.1875 25.6736 2.1875 25.6891C2.1875 25.7047 2.21211 25.7174 2.24219 25.7174C2.27227 25.7174 2.29688 25.7301 2.29688 25.7457C2.29688 25.7612 2.33379 25.7739 2.37891 25.7739C2.42402 25.7739 2.46094 25.7866 2.46094 25.8022C2.46094 25.8177 2.49785 25.8304 2.54297 25.8304C2.58809 25.8304 2.625 25.8432 2.625 25.8587C2.625 25.8742 2.67422 25.887 2.73438 25.887C2.79453 25.887 2.84375 25.8997 2.84375 25.9152C2.84375 25.9309 2.91668 25.9435 3.00781 25.9435C3.09895 25.9435 3.17188 25.956 3.17188 25.9717C3.17188 25.9905 6.48047 26 13.043 26C19.6055 26 22.9141 25.9905 22.9141 25.9717C22.9141 25.956 22.987 25.9435 23.0781 25.9435C23.1693 25.9435 23.2422 25.9309 23.2422 25.9152C23.2422 25.8997 23.2914 25.887 23.3516 25.887C23.4117 25.887 23.4609 25.8742 23.4609 25.8587C23.4609 25.8432 23.4979 25.8304 23.543 25.8304C23.5881 25.8304 23.625 25.8177 23.625 25.8022C23.625 25.7866 23.6619 25.7739 23.707 25.7739C23.7521 25.7739 23.7891 25.7612 23.7891 25.7457C23.7891 25.7301 23.8137 25.7174 23.8437 25.7174C23.8738 25.7174 23.8984 25.7047 23.8984 25.6891C23.8984 25.6736 23.9354 25.6609 23.9805 25.6609C24.0256 25.6609 24.0625 25.6482 24.0625 25.6326C24.0625 25.6171 24.0844 25.6043 24.1111 25.6043C24.1379 25.6043 24.1775 25.5789 24.1992 25.5478C24.2209 25.5167 24.2605 25.4913 24.2873 25.4913C24.314 25.4913 24.3359 25.4786 24.3359 25.463C24.3359 25.4475 24.3578 25.4348 24.3846 25.4348C24.4114 25.4348 24.451 25.4093 24.4727 25.3783C24.4943 25.3472 24.5288 25.3217 24.5492 25.3217C24.5696 25.3217 24.6336 25.2709 24.6914 25.2087C24.7492 25.1465 24.81 25.0957 24.8266 25.0957C24.8658 25.0957 25.1562 24.7954 25.1562 24.7549C25.1562 24.7378 25.2055 24.675 25.2656 24.6152C25.3258 24.5555 25.375 24.4893 25.375 24.4682C25.375 24.4471 25.3996 24.4115 25.4297 24.3891C25.4598 24.3667 25.4844 24.3258 25.4844 24.2981C25.4844 24.2705 25.4967 24.2478 25.5117 24.2478C25.5268 24.2478 25.5391 24.2252 25.5391 24.1976C25.5391 24.1699 25.5637 24.1289 25.5937 24.1065C25.6238 24.0841 25.6484 24.0432 25.6484 24.0155C25.6484 23.9879 25.6607 23.9652 25.6758 23.9652C25.6908 23.9652 25.7031 23.9398 25.7031 23.9087C25.7031 23.8776 25.7154 23.8522 25.7305 23.8522C25.7455 23.8522 25.7578 23.814 25.7578 23.7674C25.7578 23.7208 25.7701 23.6826 25.7852 23.6826C25.8002 23.6826 25.8125 23.6445 25.8125 23.5978C25.8125 23.5512 25.8248 23.513 25.8398 23.513C25.8549 23.513 25.8672 23.4749 25.8672 23.4283C25.8672 23.3816 25.8795 23.3435 25.8945 23.3435C25.9096 23.3435 25.9219 23.2926 25.9219 23.2304C25.9219 23.1683 25.9342 23.1174 25.9492 23.1174C25.9643 23.1174 25.9766 23.0538 25.9766 22.9761C25.9766 22.8984 25.9889 22.8348 26.0039 22.8348C26.0209 22.8348 26.0312 22.6746 26.0312 22.4109L26.0312 21.987L26.1953 21.987C26.2864 21.987 26.3594 21.9744 26.3594 21.9587C26.3594 21.9432 26.4209 21.9304 26.4961 21.9304C26.5713 21.9304 26.6328 21.9177 26.6328 21.9022C26.6328 21.8866 26.6697 21.8739 26.7148 21.8739C26.76 21.8739 26.7969 21.8612 26.7969 21.8457C26.7969 21.8301 26.8215 21.8174 26.8516 21.8174C26.8816 21.8174 26.9062 21.8047 26.9062 21.7891C26.9062 21.7736 26.9309 21.7609 26.9609 21.7609C26.991 21.7609 27.0156 21.7482 27.0156 21.7326C27.0156 21.7171 27.0353 21.7043 27.0593 21.7043C27.0834 21.7043 27.1375 21.6662 27.1797 21.6196C27.2218 21.5729 27.2702 21.5348 27.2871 21.5348C27.3271 21.5348 27.5625 21.2915 27.5625 21.2501C27.5625 21.2326 27.5994 21.1827 27.6445 21.1391C27.6896 21.0956 27.7266 21.0396 27.7266 21.0148C27.7266 20.9899 27.7389 20.9696 27.7539 20.9696C27.7689 20.9696 27.7812 20.9441 27.7812 20.913C27.7812 20.882 27.7936 20.8565 27.8086 20.8565C27.8236 20.8565 27.8359 20.8311 27.8359 20.8C27.8359 20.7689 27.8482 20.7435 27.8633 20.7435C27.8783 20.7435 27.8906 20.6926 27.8906 20.6304C27.8906 20.5683 27.9029 20.5174 27.918 20.5174C27.933 20.5174 27.9453 20.4538 27.9453 20.3761C27.9453 20.2984 27.9576 20.2348 27.9727 20.2348C27.9908 20.2348 28 17.5312 28 12.1804C28 6.82972 27.9908 4.12609 27.9727 4.12609ZM19.332 13.3391L12.4141 13.3391L12.4141 15.4022L12.4141 17.4652L19.332 17.4652L26.25 17.4652L26.25 18.7814C26.25 19.8843 26.2437 20.104 26.2109 20.1379C26.152 20.1988 10.7621 20.1988 10.7031 20.1379C10.6694 20.1031 10.6641 19.029 10.6641 12.3661C10.6641 7.23074 10.6549 4.63478 10.6367 4.63478C10.6208 4.63478 10.6094 4.54059 10.6094 4.4087C10.6094 4.2768 10.598 4.18261 10.582 4.18261C10.5668 4.18261 10.5547 4.10724 10.5547 4.01304C10.5547 3.91885 10.5425 3.84348 10.5273 3.84348C10.5123 3.84348 10.5 3.79261 10.5 3.73043C10.5 3.66826 10.4877 3.61739 10.4727 3.61739C10.4576 3.61739 10.4453 3.57924 10.4453 3.53261C10.4453 3.48598 10.433 3.44783 10.418 3.44783C10.4029 3.44783 10.3906 3.40967 10.3906 3.36304C10.3906 3.31641 10.3783 3.27826 10.3633 3.27826C10.3482 3.27826 10.3359 3.24011 10.3359 3.19348C10.3359 3.14685 10.3236 3.1087 10.3086 3.1087C10.2936 3.1087 10.2813 3.08326 10.2813 3.05217C10.2813 3.02109 10.2689 2.99565 10.2539 2.99565C10.2389 2.99565 10.2266 2.97022 10.2266 2.93913C10.2266 2.90804 10.2143 2.88261 10.1992 2.88261C10.1842 2.88261 10.1719 2.84725 10.1719 2.80407C10.1719 2.75795 10.1493 2.70872 10.1172 2.68478C10.0871 2.66237 10.0625 2.62142 10.0625 2.59375C10.0625 2.56611 10.0502 2.54348 10.0352 2.54348C10.0201 2.54348 10.0078 2.51804 10.0078 2.48696C10.0078 2.45587 9.99551 2.43043 9.98047 2.43043C9.96543 2.43043 9.95313 2.4078 9.95313 2.38016C9.95313 2.35249 9.92852 2.31154 9.89844 2.28913C9.86836 2.26672 9.84375 2.22857 9.84375 2.20435C9.84375 2.18013 9.81914 2.14198 9.78906 2.11956C9.75899 2.09715 9.73438 2.06129 9.73438 2.03987C9.73438 2.01848 9.69746 1.96529 9.65235 1.92174C9.60723 1.87819 9.57031 1.83492 9.57031 1.82562C9.57031 1.8163 12.868 1.8087 16.8984 1.8087C21.7656 1.8087 24.2266 1.81819 24.2266 1.83696C24.2266 1.8525 24.2758 1.86522 24.3359 1.86522C24.3961 1.86522 24.4453 1.87793 24.4453 1.89348C24.4453 1.90902 24.4822 1.92174 24.5273 1.92174C24.5725 1.92174 24.6094 1.93446 24.6094 1.95C24.6094 1.96554 24.634 1.97826 24.6641 1.97826C24.6941 1.97826 24.7188 1.99098 24.7188 2.00652C24.7188 2.02207 24.7434 2.03478 24.7734 2.03478C24.8035 2.03478 24.8281 2.0475 24.8281 2.06304C24.8281 2.07859 24.8527 2.0913 24.8828 2.0913C24.9129 2.0913 24.9375 2.10402 24.9375 2.11957C24.9375 2.13511 24.9621 2.14783 24.9922 2.14783C25.0223 2.14783 25.0469 2.16054 25.0469 2.17609C25.0469 2.19163 25.0665 2.20435 25.0906 2.20435C25.1146 2.20435 25.1688 2.2425 25.2109 2.28913C25.2531 2.33576 25.3014 2.37391 25.3182 2.37391C25.3581 2.37391 25.6484 2.67396 25.6484 2.71522C25.6484 2.73263 25.6854 2.78254 25.7305 2.82609C25.7756 2.86964 25.8125 2.92282 25.8125 2.94422C25.8125 2.96564 25.8371 3.0015 25.8672 3.02391C25.8973 3.04632 25.9219 3.08727 25.9219 3.11494C25.9219 3.14258 25.9342 3.16522 25.9492 3.16522C25.9643 3.16522 25.9766 3.19065 25.9766 3.22174C25.9766 3.25283 25.9889 3.27826 26.0039 3.27826C26.0189 3.27826 26.0312 3.3037 26.0312 3.33478C26.0312 3.36587 26.0436 3.3913 26.0586 3.3913C26.0736 3.3913 26.0859 3.42946 26.0859 3.47609C26.0859 3.52272 26.0982 3.56087 26.1133 3.56087C26.1283 3.56087 26.1406 3.59902 26.1406 3.64565C26.1406 3.69228 26.1529 3.73044 26.168 3.73044C26.183 3.73044 26.1953 3.79402 26.1953 3.87174C26.1953 3.94946 26.2076 4.01304 26.2227 4.01304C26.2408 4.01304 26.25 5.58624 26.25 8.67609L26.25 13.3391L19.332 13.3391ZM24.3086 22.0435C24.2918 22.0435 24.2812 22.1848 24.2812 22.4109C24.2812 22.637 24.2707 22.7783 24.2539 22.7783C24.2389 22.7783 24.2266 22.8291 24.2266 22.8913C24.2266 22.9535 24.2143 23.0043 24.1992 23.0043C24.1842 23.0043 24.1719 23.0298 24.1719 23.0609C24.1719 23.092 24.1596 23.1174 24.1445 23.1174C24.1295 23.1174 24.1172 23.1428 24.1172 23.1739C24.1172 23.205 24.1049 23.2304 24.0898 23.2304C24.0748 23.2304 24.0625 23.2531 24.0625 23.2807C24.0625 23.3084 24.0379 23.3493 24.0078 23.3717C23.9777 23.3942 23.9531 23.429 23.9531 23.4491C23.9531 23.4969 23.6094 23.8522 23.5632 23.8522C23.5437 23.8522 23.51 23.8776 23.4883 23.9087C23.4666 23.9398 23.427 23.9652 23.4002 23.9652C23.3735 23.9652 23.3516 23.9779 23.3516 23.9935C23.3516 24.009 23.327 24.0217 23.2969 24.0217C23.2668 24.0217 23.2422 24.0345 23.2422 24.05C23.2422 24.0655 23.2053 24.0783 23.1602 24.0783C23.115 24.0783 23.0781 24.091 23.0781 24.1065C23.0781 24.1221 23.0412 24.1348 22.9961 24.1348C22.951 24.1348 22.9141 24.1475 22.9141 24.163C22.9141 24.1818 20.3073 24.1913 15.1484 24.1913C9.98957 24.1913 7.38281 24.1818 7.38281 24.163C7.38281 24.1475 7.39512 24.1348 7.41016 24.1348C7.4252 24.1348 7.4375 24.1093 7.4375 24.0783C7.4375 24.0472 7.44981 24.0217 7.46484 24.0217C7.47988 24.0217 7.49219 23.9963 7.49219 23.9652C7.49219 23.9341 7.50449 23.9087 7.51953 23.9087C7.53457 23.9087 7.54688 23.8833 7.54688 23.8522C7.54688 23.8211 7.55918 23.7957 7.57422 23.7957C7.58926 23.7957 7.60156 23.7702 7.60156 23.7391C7.60156 23.708 7.61387 23.6826 7.62891 23.6826C7.64395 23.6826 7.65625 23.6445 7.65625 23.5978C7.65625 23.5512 7.66856 23.513 7.68359 23.513C7.69863 23.513 7.71094 23.4622 7.71094 23.4C7.71094 23.3378 7.72324 23.287 7.73828 23.287C7.75332 23.287 7.76563 23.2234 7.76563 23.1457C7.76563 23.0679 7.77793 23.0043 7.79297 23.0043C7.81115 23.0043 7.82031 20.037 7.82031 14.1587C7.82031 8.28043 7.81115 5.31304 7.79297 5.31304C7.77793 5.31304 7.76563 5.26217 7.76563 5.2C7.76563 5.13783 7.75332 5.08696 7.73828 5.08696C7.72324 5.08696 7.71094 5.0488 7.71094 5.00217C7.71094 4.95554 7.69863 4.91739 7.6836 4.91739C7.66856 4.91739 7.65625 4.89196 7.65625 4.86087C7.65625 4.82978 7.64395 4.80435 7.62891 4.80435C7.61387 4.80435 7.60156 4.77891 7.60156 4.74783C7.60156 4.71674 7.58926 4.6913 7.57422 4.6913C7.55918 4.6913 7.54688 4.66867 7.54688 4.64103C7.54688 4.61336 7.52227 4.57241 7.49219 4.55C7.46211 4.52759 7.4375 4.4928 7.4375 4.47271C7.4375 4.42503 6.9842 3.95652 6.93807 3.95652C6.91863 3.95652 6.88497 3.93109 6.86328 3.9C6.8416 3.86891 6.80198 3.84348 6.77521 3.84348C6.74847 3.84348 6.72656 3.83076 6.72656 3.81522C6.72656 3.79967 6.70195 3.78696 6.67188 3.78696C6.6418 3.78696 6.61719 3.77424 6.61719 3.75869C6.61719 3.74315 6.59258 3.73043 6.5625 3.73043C6.53242 3.73043 6.50781 3.71772 6.50781 3.70217C6.50781 3.68663 6.4586 3.67391 6.39844 3.67391C6.33828 3.67391 6.28906 3.6612 6.28906 3.64565C6.28906 3.63011 6.22754 3.61739 6.15235 3.61739C6.07715 3.61739 6.01563 3.60467 6.01563 3.58913C6.01563 3.57124 5.81511 3.56087 5.46875 3.56087C5.12239 3.56087 4.92188 3.57124 4.92188 3.58913C4.92188 3.60467 4.86035 3.61739 4.78516 3.61739C4.70996 3.61739 4.64844 3.63011 4.64844 3.64565C4.64844 3.66119 4.61152 3.67391 4.56641 3.67391C4.52129 3.67391 4.48438 3.68663 4.48438 3.70217C4.48438 3.71772 4.45977 3.73043 4.42969 3.73043C4.39961 3.73043 4.375 3.74315 4.375 3.75869C4.375 3.77424 4.35039 3.78696 4.32031 3.78696C4.29024 3.78696 4.26563 3.79967 4.26563 3.81522C4.26563 3.83076 4.24102 3.84348 4.21094 3.84348C4.18086 3.84348 4.15625 3.85619 4.15625 3.87174C4.15625 3.88728 4.13435 3.9 4.10761 3.9C4.08084 3.9 4.04122 3.92543 4.01953 3.95652C3.99785 3.98761 3.96419 4.01304 3.94469 4.01304C3.89851 4.01304 3.5 4.42492 3.5 4.47265C3.5 4.4928 3.47539 4.52759 3.44531 4.55C3.41524 4.57241 3.39063 4.61336 3.39063 4.64103C3.39063 4.66867 3.37832 4.6913 3.36328 4.6913C3.34824 4.6913 3.33594 4.71674 3.33594 4.74783C3.33594 4.77891 3.32363 4.80435 3.3086 4.80435C3.29356 4.80435 3.28125 4.82978 3.28125 4.86087C3.28125 4.89196 3.26895 4.91739 3.25391 4.91739C3.23887 4.91739 3.22656 4.95554 3.22656 5.00217C3.22656 5.0488 3.21426 5.08696 3.19922 5.08696C3.18418 5.08696 3.17188 5.12511 3.17188 5.17174C3.17188 5.21837 3.15957 5.25652 3.14453 5.25652C3.12892 5.25652 3.11719 5.3413 3.11719 5.45435C3.11719 5.56739 3.10546 5.65217 3.08985 5.65217C3.07169 5.65217 3.0625 8.25217 3.0625 13.3957C3.0625 18.5391 3.07169 21.1391 3.08984 21.1391C3.10488 21.1391 3.11719 21.2027 3.11719 21.2804C3.11719 21.3582 3.12949 21.4217 3.14453 21.4217C3.15957 21.4217 3.17188 21.441 3.17188 21.4647C3.17188 21.5205 3.51378 21.8739 3.56784 21.8739C3.5907 21.8739 3.60938 21.8866 3.60938 21.9022C3.60938 21.9177 3.6586 21.9304 3.71875 21.9304C3.77891 21.9304 3.82813 21.9432 3.82813 21.9587C3.82813 21.9742 3.87735 21.987 3.9375 21.987C3.99766 21.987 4.04688 21.9742 4.04688 21.9587C4.04688 21.9432 4.0961 21.9304 4.15625 21.9304C4.21641 21.9304 4.26563 21.9177 4.26563 21.9022C4.26563 21.8866 4.29023 21.8739 4.32031 21.8739C4.35039 21.8739 4.375 21.8612 4.375 21.8457C4.375 21.8301 4.39387 21.8174 4.41692 21.8174C4.46811 21.8174 4.64844 21.6359 4.64844 21.5844C4.64844 21.5639 4.67305 21.5289 4.70313 21.5065C4.73523 21.4826 4.75781 21.4334 4.75781 21.3872C4.75781 21.3441 4.77012 21.3087 4.78516 21.3087C4.80331 21.3087 4.8125 18.6804 4.8125 13.4804C4.8125 8.28043 4.82169 5.65217 4.83985 5.65217C4.85488 5.65217 4.86719 5.63267 4.86719 5.60885C4.86719 5.585 4.90985 5.52141 4.96199 5.46754L5.05676 5.36956L5.48152 5.36956C5.74645 5.36956 5.90625 5.38019 5.90625 5.39783C5.90625 5.41337 5.93086 5.42609 5.96094 5.42609C5.99739 5.42609 6.01563 5.44494 6.01563 5.48261C6.01563 5.5137 6.02793 5.53913 6.04297 5.53913C6.05801 5.53913 6.07031 5.56456 6.07031 5.59565C6.07031 5.62674 6.08262 5.65217 6.09766 5.65217C6.11581 5.65217 6.125 8.48767 6.125 14.1022C6.125 19.7167 6.11581 22.5522 6.09766 22.5522C6.08262 22.5522 6.07031 22.6158 6.07031 22.6935C6.07031 22.7712 6.05801 22.8348 6.04297 22.8348C6.02793 22.8348 6.01563 22.8729 6.01563 22.9196C6.01563 22.9662 6.00332 23.0043 5.98828 23.0043C5.97324 23.0043 5.96094 23.0425 5.96094 23.0891C5.96094 23.1358 5.94863 23.1739 5.93359 23.1739C5.91856 23.1739 5.90625 23.1966 5.90625 23.2242C5.90625 23.2519 5.88164 23.2928 5.85156 23.3152C5.82148 23.3376 5.79688 23.3724 5.79688 23.3925C5.79688 23.4439 5.34174 23.9087 5.2914 23.9087C5.26862 23.9087 5.25 23.9214 5.25 23.937C5.25 23.9525 5.22539 23.9652 5.19531 23.9652C5.16523 23.9652 5.14063 23.9779 5.14063 23.9935C5.14063 24.009 5.11602 24.0217 5.08594 24.0217C5.05586 24.0217 5.03125 24.0345 5.03125 24.05C5.03125 24.0655 5.00664 24.0783 4.97656 24.0783C4.94648 24.0783 4.92188 24.091 4.92188 24.1065C4.92188 24.1221 4.87266 24.1348 4.8125 24.1348C4.75234 24.1348 4.70313 24.1475 4.70313 24.163C4.70313 24.1812 4.42969 24.1913 3.9375 24.1913C3.44531 24.1913 3.17188 24.1812 3.17188 24.163C3.17188 24.1475 3.13496 24.1348 3.08984 24.1348C3.04473 24.1348 3.00781 24.1221 3.00781 24.1065C3.00781 24.091 2.9709 24.0783 2.92578 24.0783C2.88066 24.0783 2.84375 24.0655 2.84375 24.05C2.84375 24.0345 2.81914 24.0217 2.78906 24.0217C2.75898 24.0217 2.73438 24.009 2.73438 23.9935C2.73438 23.9779 2.71247 23.9652 2.68573 23.9652C2.65896 23.9652 2.61934 23.9398 2.59766 23.9087C2.57597 23.8776 2.54231 23.8522 2.52282 23.8522C2.47663 23.8522 2.07813 23.4403 2.07813 23.3926C2.07813 23.3724 2.05352 23.3376 2.02344 23.3152C1.99336 23.2928 1.96875 23.2519 1.96875 23.2242C1.96875 23.1966 1.95645 23.1739 1.94141 23.1739C1.92637 23.1739 1.91406 23.1485 1.91406 23.1174C1.91406 23.0863 1.90176 23.0609 1.88672 23.0609C1.87168 23.0609 1.85938 23.0227 1.85938 22.9761C1.85938 22.9295 1.84707 22.8913 1.83203 22.8913C1.81699 22.8913 1.80469 22.8404 1.80469 22.7783C1.80469 22.7161 1.79238 22.6652 1.77734 22.6652C1.75916 22.6652 1.75 19.6319 1.75 13.6217C1.75 7.61158 1.75916 4.57826 1.77735 4.57826C1.79238 4.57826 1.80469 4.51467 1.80469 4.43696C1.80469 4.35924 1.81699 4.29565 1.83203 4.29565C1.84707 4.29565 1.85938 4.24478 1.85938 4.18261C1.85938 4.12043 1.87168 4.06956 1.88672 4.06956C1.90176 4.06956 1.91406 4.03141 1.91406 3.98478C1.91406 3.93815 1.92637 3.9 1.94141 3.9C1.95645 3.9 1.96875 3.87456 1.96875 3.84348C1.96875 3.81239 1.98106 3.78696 1.9961 3.78696C2.01113 3.78696 2.02344 3.76152 2.02344 3.73043C2.02344 3.69935 2.03574 3.67391 2.05078 3.67391C2.06582 3.67391 2.07813 3.64848 2.07813 3.61739C2.07813 3.5863 2.09043 3.56087 2.10547 3.56087C2.12051 3.56087 2.13281 3.53543 2.13281 3.50435C2.13281 3.47326 2.14512 3.44783 2.16016 3.44783C2.1752 3.44783 2.1875 3.42519 2.1875 3.39755C2.1875 3.36988 2.21211 3.32893 2.24219 3.30652C2.27227 3.28411 2.29688 3.24596 2.29688 3.22174C2.29688 3.19752 2.32149 3.15937 2.35156 3.13696C2.38164 3.11454 2.40625 3.07978 2.40625 3.05969C2.40625 3.01521 2.91279 2.48696 2.95548 2.48696C2.97219 2.48696 3.02036 2.4488 3.0625 2.40217C3.10464 2.35554 3.1561 2.31739 3.1768 2.31739C3.19752 2.31739 3.23222 2.29196 3.25391 2.26087C3.27559 2.22978 3.31521 2.20435 3.34198 2.20435C3.36872 2.20435 3.39063 2.19163 3.39063 2.17609C3.39063 2.16054 3.41524 2.14783 3.44531 2.14783C3.47539 2.14783 3.5 2.13511 3.5 2.11956C3.5 2.10402 3.52461 2.0913 3.55469 2.0913C3.58477 2.0913 3.60938 2.07859 3.60938 2.06304C3.60938 2.0475 3.64629 2.03478 3.69141 2.03478C3.73652 2.03478 3.77344 2.02206 3.77344 2.00652C3.77344 1.99098 3.79805 1.97826 3.82813 1.97826C3.8582 1.97826 3.88281 1.96554 3.88281 1.95C3.88281 1.93446 3.93203 1.92174 3.99219 1.92174C4.05235 1.92174 4.10156 1.90902 4.10156 1.89348C4.10156 1.87793 4.15078 1.86522 4.21094 1.86522C4.2711 1.86522 4.32031 1.8525 4.32031 1.83696C4.32031 1.81861 4.68489 1.80869 5.35938 1.80869C6.03386 1.80869 6.39844 1.81861 6.39844 1.83696C6.39844 1.8525 6.44766 1.86522 6.50781 1.86522C6.56797 1.86522 6.61719 1.87793 6.61719 1.89348C6.61719 1.90902 6.66641 1.92174 6.72656 1.92174C6.78672 1.92174 6.83594 1.93446 6.83594 1.95C6.83594 1.96554 6.86055 1.97826 6.89063 1.97826C6.9207 1.97826 6.94531 1.99098 6.94531 2.00652C6.94531 2.02206 6.98223 2.03478 7.02735 2.03478C7.07246 2.03478 7.10938 2.0475 7.10938 2.06304C7.10938 2.07859 7.13399 2.0913 7.16406 2.0913C7.19414 2.0913 7.21875 2.10402 7.21875 2.11956C7.21875 2.13511 7.24065 2.14783 7.26739 2.14783C7.29416 2.14783 7.33379 2.17326 7.35547 2.20435C7.37715 2.23543 7.41677 2.26087 7.44354 2.26087C7.47029 2.26087 7.49219 2.27359 7.49219 2.28913C7.49219 2.30467 7.5116 2.31739 7.53534 2.31739C7.5591 2.31739 7.62579 2.36826 7.6836 2.43043C7.7414 2.49261 7.80221 2.54348 7.81875 2.54348C7.85797 2.54348 8.14844 2.84369 8.14844 2.88422C8.14844 2.90132 8.19766 2.96417 8.25781 3.02391C8.31797 3.08366 8.36719 3.14979 8.36719 3.1709C8.36719 3.19201 8.3918 3.22759 8.42188 3.25C8.45195 3.27241 8.47656 3.31336 8.47656 3.34103C8.47656 3.36867 8.48887 3.3913 8.50391 3.3913C8.51895 3.3913 8.53125 3.41674 8.53125 3.44783C8.53125 3.47891 8.54356 3.50435 8.5586 3.50435C8.57363 3.50435 8.58594 3.52978 8.58594 3.56087C8.58594 3.59196 8.59824 3.61739 8.61328 3.61739C8.62832 3.61739 8.64063 3.64283 8.64063 3.67391C8.64063 3.705 8.65293 3.73043 8.66797 3.73043C8.68301 3.73043 8.69531 3.76859 8.69531 3.81522C8.69531 3.86185 8.70762 3.9 8.72266 3.9C8.7377 3.9 8.75 3.93815 8.75 3.98478C8.75 4.03141 8.76231 4.06956 8.77735 4.06956C8.79238 4.06956 8.80469 4.10772 8.80469 4.15435C8.80469 4.20098 8.81699 4.23913 8.83203 4.23913C8.84707 4.23913 8.85938 4.30272 8.85938 4.38043C8.85938 4.45815 8.87168 4.52174 8.88672 4.52174C8.90488 4.52174 8.91406 7.16885 8.91406 12.4065C8.91406 17.6442 8.92325 20.2913 8.94141 20.2913C8.95644 20.2913 8.96875 20.3549 8.96875 20.4326C8.96875 20.5103 8.98106 20.5739 8.99609 20.5739C9.01113 20.5739 9.02344 20.6121 9.02344 20.6587C9.02344 20.7053 9.03574 20.7435 9.05078 20.7435C9.06582 20.7435 9.07813 20.7689 9.07813 20.8C9.07813 20.8311 9.09043 20.8565 9.10547 20.8565C9.12051 20.8565 9.13281 20.8792 9.13281 20.9068C9.13281 20.9345 9.15742 20.9754 9.1875 20.9978C9.21758 21.0202 9.24219 21.0561 9.24219 21.0775C9.24219 21.0989 9.2791 21.1521 9.32422 21.1957C9.36934 21.2392 9.40625 21.2897 9.40625 21.3079C9.40625 21.3504 9.47497 21.4217 9.51582 21.4217C9.5331 21.4217 9.59454 21.4726 9.65234 21.5348C9.71015 21.597 9.77684 21.6478 9.8006 21.6478C9.82434 21.6478 9.84375 21.6605 9.84375 21.6761C9.84375 21.6916 9.86836 21.7043 9.89844 21.7043C9.92852 21.7043 9.95313 21.7171 9.95313 21.7326C9.95313 21.7482 9.97773 21.7609 10.0078 21.7609C10.0379 21.7609 10.0625 21.7736 10.0625 21.7891C10.0625 21.8047 10.0871 21.8174 10.1172 21.8174C10.1473 21.8174 10.1719 21.8301 10.1719 21.8457C10.1719 21.8612 10.2088 21.8739 10.2539 21.8739C10.299 21.8739 10.3359 21.8866 10.3359 21.9022C10.3359 21.9177 10.3975 21.9304 10.4727 21.9304C10.5479 21.9304 10.6094 21.9432 10.6094 21.9587C10.6094 21.9775 12.9154 21.987 17.4727 21.987C22.03 21.987 24.3359 21.9965 24.3359 22.0152C24.3359 22.0308 24.3236 22.0435 24.3086 22.0435Z" fill="#55021A"/>
</svg>
