<svg width="41" height="28" viewBox="0 0 41 28" fill="none" xmlns="http://www.w3.org/2000/svg">
<rect x="0.608398" width="39.5389" height="28" rx="3" fill="#828282"/>
<path fill-rule="evenodd" clip-rule="evenodd" d="M20.3781 14.7304H19.0078C19.0078 14.9163 18.9884 14.9756 19.0791 15.1412C19.3955 15.7231 20.6732 15.2383 20.6834 15.2374C20.6742 15.3456 20.5604 15.9887 20.5308 16.0497C20.4891 16.0923 19.29 16.3985 18.597 15.8517C18.1937 15.5325 18.1696 15.0255 18.1696 14.5527C18.1696 13.9467 18.5101 13.189 18.9995 12.9188C19.4806 12.6533 20.0978 12.6505 20.4863 12.9974C20.9564 13.4156 20.9018 14.0291 20.7972 14.6156C20.7556 14.8534 20.7278 14.7304 20.3781 14.7304ZM15.2209 22.0415H14.7259C14.4632 22.035 14.2041 22.0165 13.9571 21.9887C12.1714 21.787 10.4866 20.9719 9.22735 19.7127C8.84246 19.3278 8.51956 18.9762 8.21238 18.5182C7.38801 17.2849 6.89487 15.8564 6.82178 14.3806V13.6118C6.83751 13.2861 6.87451 12.9595 6.93373 12.6338C7.10675 11.6753 7.43335 10.7667 7.92742 9.94606C8.3891 9.17998 8.7999 8.70349 9.42997 8.09654L9.82782 7.75976C10.6725 7.09638 11.4247 6.69113 12.473 6.34233C12.832 6.22297 13.2558 6.12397 13.6684 6.06476C14.2744 5.97872 14.3901 5.97131 15.047 5.97131C16.9159 5.97131 18.536 6.61157 19.9608 7.68297C20.1079 7.794 20.2393 7.89485 20.3633 8.02808C20.2486 8.20109 19.909 8.47588 19.7434 8.66185C19.6583 8.75808 19.5796 8.83394 19.5704 8.91166L21.1988 8.91536C21.2811 9.06525 21.6207 9.42608 21.7807 9.73418H18.9375C18.8478 9.89425 18.499 10.4355 18.4786 10.6131C19.6823 10.6548 21.0369 10.5743 22.1582 10.6131C22.3072 10.6187 22.3063 10.6557 22.4265 10.9582C22.4765 11.085 22.5838 11.3024 22.5931 11.4357H18.1252C18.0641 11.6725 17.8957 12.0704 17.8967 12.3183H17.027C16.9881 12.7939 16.6994 14.2335 16.6226 14.8072C16.5653 15.2346 16.433 15.6991 16.7281 15.9942C17.0158 16.2829 17.4729 16.1672 17.8652 16.0756L17.967 15.3651C17.694 15.3651 17.4452 15.3984 17.4368 15.1356C17.4322 14.9922 17.6108 14.1336 17.6404 13.82C17.6561 13.659 17.6265 13.5924 17.7866 13.584C17.9411 13.5757 18.0142 13.6127 18.1446 13.6127C18.1446 13.3472 18.2464 13.0826 18.2464 12.8004H17.8143C17.8208 12.7236 17.892 12.3674 17.9161 12.3137C19.0412 12.3637 20.7658 12.3155 22.0037 12.3165C22.2332 12.3165 22.4617 12.3165 22.6911 12.3137C22.8799 12.3118 22.8568 12.297 22.8854 12.4562C22.9076 12.5802 22.9169 12.6347 22.9299 12.7754C22.6412 12.7754 22.5968 12.792 22.4302 12.9234C22.3063 13.0206 22.2304 13.1908 22.1305 13.2574C22.1342 13.1029 22.1814 12.9836 22.1814 12.8004H21.369C21.3042 13.5803 21.1405 14.5314 21.01 15.3105L20.886 16.1265H21.7493C21.753 15.9896 21.8048 15.7675 21.8298 15.6223C21.8881 15.2725 22.0148 14.3945 22.1305 14.154C22.3349 14.092 22.2711 14.018 22.5681 14.0152C22.4691 14.5028 22.495 15.2476 22.7189 15.6667C22.7772 15.7759 22.8336 15.7925 22.804 15.9304C22.7698 16.0914 22.6773 16.4124 22.619 16.5364L18.1252 16.5382C18.1437 16.7409 18.4324 17.3228 18.4546 17.4154L22.2628 17.4191C22.1295 17.7031 21.9732 17.9908 21.8057 18.2397L18.9625 18.2379C18.9616 18.372 19.4742 19.0919 19.5944 19.1168C19.7971 19.1566 20.8712 19.1252 21.146 19.1178C21.0785 19.2454 20.688 19.6655 20.5613 19.7626C20.491 19.8172 20.3948 19.8709 20.3846 19.9856L19.9645 20.3326C19.8868 20.3964 19.8211 20.439 19.7443 20.4936C18.7007 21.2291 17.7403 21.6649 16.3997 21.9212C16.0333 21.9915 15.6289 22.0304 15.2209 22.0415ZM11.9503 13.6386C11.9938 13.4508 12.0511 13.1473 12.0511 12.9271C12.4962 12.6921 14.2605 12.4654 14.2605 13.5618C14.2605 14.4741 13.9302 15.7851 13.9302 16.1265C13.0485 16.1265 13.2447 16.2172 13.2447 15.7962C13.1503 15.8212 13.142 15.8665 13.0735 15.9295C12.5665 16.3921 11.5182 16.1959 11.5182 15.3901C11.5182 14.9645 11.5089 14.9274 11.7162 14.5472C11.756 14.475 11.7319 14.5046 11.7902 14.4436C11.8513 14.3797 11.8892 14.3399 11.9641 14.2881C12.1029 14.1919 12.2084 14.1318 12.3916 14.0799C12.7497 13.9791 12.9366 13.9819 13.2696 14.0235C13.4621 14.0476 13.4473 14.0189 13.4473 13.7654C13.4473 13.2454 12.1409 13.5942 11.9503 13.6386ZM16.4431 13.5618C16.2812 13.5618 16.2507 13.5119 16.0879 13.5119C15.7909 13.5119 15.3773 13.4489 15.3773 13.7903C15.3773 13.9467 15.5318 14.0207 15.6474 14.079C15.7196 14.1151 15.7733 14.1392 15.8371 14.1678C16.4885 14.4639 16.5357 15.0995 16.271 15.675C16.2488 15.725 16.2498 15.7333 16.2192 15.7759C15.8556 16.282 14.7204 16.2061 14.1588 16.0756C14.1615 15.947 14.2023 15.8221 14.2161 15.6759C14.2235 15.601 14.2189 15.5843 14.2272 15.5103C14.2393 15.415 14.2531 15.3938 14.2605 15.3142C14.8046 15.4409 14.639 15.4409 15.2246 15.4409C15.4485 15.4409 15.6132 15.2744 15.5605 15.0801C15.4606 14.71 14.4881 14.8016 14.4881 13.8412C14.4881 12.9873 15.1747 12.6967 15.8075 12.7236L16.5708 12.8004L16.4431 13.5618ZM11.137 16.1265H10.2738C10.2738 15.985 10.3043 15.8702 10.3247 15.7453C10.3459 15.6195 10.3607 15.5057 10.3829 15.3715C10.444 15.0089 10.7308 13.3444 10.7308 13.1048C10.617 13.2361 10.2469 14.4408 10.1803 14.6101C10.0823 14.8581 9.99713 15.1023 9.90924 15.3549L9.63907 16.1265H9.05526L9.00437 14.6795C9.00622 14.1493 8.97939 13.708 8.97939 13.1816H8.90352C8.90352 13.3046 8.86929 13.4378 8.84616 13.5553C8.76751 13.9587 8.73421 14.3381 8.67499 14.6795L8.45294 15.9803C8.42796 16.182 8.49457 16.1265 7.68501 16.1265C7.58231 16.1265 7.62672 16.046 7.648 15.9387C7.66835 15.8369 7.67483 15.7786 7.69148 15.6769L7.95702 14.1132C8.01716 13.7533 8.07082 13.4314 8.13096 13.0687C8.16242 12.879 8.19018 12.7365 8.22163 12.5506L8.2938 12.0389H9.5632L9.56505 13.4591C9.59651 13.844 9.59651 13.5341 9.56505 13.919L9.5632 14.4001C9.5632 14.4972 9.5558 14.4093 9.58911 14.4759C9.68071 14.4426 9.6622 14.3964 9.72512 14.2067L10.036 13.2731C10.1082 13.0566 10.1775 12.8735 10.246 12.6708L10.4523 12.0389H11.8226C11.7143 12.5052 11.4904 14.0031 11.3914 14.6027L11.137 16.1265Z" fill="#E0E0E0"/>
<path fill-rule="evenodd" clip-rule="evenodd" d="M25.728 5.97113H25.9917C27.189 5.98963 28.3631 6.25517 29.366 6.75849C30.5642 7.35896 31.2368 7.90577 32.0889 8.85967C32.1444 8.92166 32.1907 8.98735 32.2462 9.05766C33.3287 10.4353 33.9116 12.0526 33.9616 13.7541V14.2296C33.9505 14.6099 33.9125 14.9939 33.8487 15.3788C33.7136 16.193 33.462 16.8961 33.1067 17.6067C32.8485 18.1239 32.3008 18.9723 31.8983 19.3692C31.8345 19.4331 31.766 19.4923 31.7096 19.5608C31.5181 19.7902 30.9768 20.25 30.7446 20.424C29.4271 21.4103 27.8375 21.971 26.1971 22.0413H25.493C24.3615 21.9932 23.2198 21.7091 22.1391 21.1697C21.9707 21.0855 21.8218 21.006 21.6626 20.9097C21.5072 20.8163 21.3508 20.7265 21.213 20.6238L20.3849 19.9854C20.3951 19.8707 20.4913 19.817 20.5616 19.7625C20.6884 19.6653 21.0788 19.2453 21.1463 19.1176C20.8716 19.125 19.7974 19.1564 19.5948 19.1167C19.4745 19.0917 18.9619 18.3719 18.9628 18.2377L21.806 18.2395C21.9735 17.9907 22.1299 17.7029 22.2631 17.4189L18.4549 17.4152C18.4327 17.3227 18.144 16.7407 18.1255 16.5381L22.6193 16.5362C22.6776 16.4122 22.7701 16.0912 22.8043 15.9302C22.8339 15.7923 22.7775 15.7757 22.7192 15.6665C22.4953 15.2474 22.4694 14.5026 22.5684 14.015C22.2714 14.0178 22.3353 14.0918 22.1308 14.1538C22.1308 14.0446 22.141 14.0409 22.1854 13.9724C22.3195 13.7633 22.3593 13.7393 22.6387 13.7393C22.6137 13.6801 22.6878 13.4515 22.7109 13.3729C22.7211 13.3377 22.7405 13.2905 22.7553 13.248C22.7914 13.149 22.8173 13.0888 22.8562 12.9926C22.8913 12.9029 22.9413 12.839 22.9302 12.7752C22.9172 12.6346 22.908 12.58 22.8858 12.456C22.8571 12.2969 22.8802 12.3117 22.6915 12.3135C22.462 12.3163 22.2335 12.3163 22.004 12.3163C20.7661 12.3154 19.0415 12.3635 17.9164 12.3135L17.897 12.3181C17.8961 12.0702 18.0644 11.6723 18.1255 11.4355H22.5934C22.5841 11.3022 22.4768 11.0848 22.4269 10.9581C22.3066 10.6555 22.3075 10.6185 22.1585 10.613C21.0372 10.5741 19.6827 10.6546 18.4789 10.613C18.4993 10.4353 18.8481 9.89406 18.9378 9.734H21.781C21.621 9.4259 21.2814 9.06507 21.1991 8.91518L19.5707 8.91148C19.58 8.83376 19.6586 8.75789 19.7437 8.66167C19.9093 8.4757 20.2489 8.20091 20.3636 8.02789C20.4867 7.99181 20.4894 7.9437 20.5783 7.87153L21.213 7.38857C21.2907 7.33028 21.3675 7.29327 21.4452 7.24053C22.6933 6.40968 24.2199 5.99426 25.728 5.97113ZM25.8622 13.6125C25.8622 13.4506 25.939 13.2073 25.939 12.902C26.1962 12.8807 27.8403 12.3144 28.1234 13.408C28.2187 13.7744 28.0642 14.4563 28.0161 14.8014C27.9856 15.0216 27.9458 15.2455 27.9116 15.4842L27.8172 16.1263L27.1066 16.1004C27.1066 15.9524 27.1316 15.9237 27.1316 15.796C26.9558 15.821 26.99 15.9931 26.6024 16.1078C25.9908 16.2883 25.3802 16.0745 25.4051 15.1604C25.4264 14.3444 26.1971 13.9687 26.929 13.9919C27.065 13.9965 27.164 14.0344 27.2843 14.0446C27.349 13.9234 27.3629 13.7134 27.2796 13.6171C27.0169 13.3165 25.9492 13.6107 25.8622 13.6125ZM29.8739 13.7393C29.6574 13.7393 29.5955 13.7393 29.4817 13.9021C29.2864 14.1825 29.1245 15.3482 29.0616 15.7202C28.97 16.2651 29.1865 16.1004 28.1475 16.1004C28.1475 15.9561 28.1789 15.833 28.2021 15.698L28.6027 12.9769C28.6082 12.74 28.5352 12.8002 29.4169 12.8002L29.3919 13.2572C29.5658 13.1407 29.6306 12.7752 30.1275 12.7752C30.2746 12.7752 30.121 12.9325 30.0294 13.2091C29.9729 13.3794 29.9091 13.6079 29.8739 13.7393ZM24.8213 12.8002C24.5817 12.8002 24.2912 12.9297 24.1283 13.0972C24.0571 13.1721 24.0515 13.2054 23.9942 13.2933C23.5242 14.0094 23.5843 15.339 24.4919 15.339C24.9277 15.339 24.9435 15.2335 25.2534 15.1613C25.2534 15.2936 25.2238 15.3852 25.2025 15.5388C25.2007 15.5462 25.2007 15.5527 25.1988 15.5601L25.1877 15.6258C25.1831 15.6499 25.1748 15.6859 25.1692 15.7118C25.098 16.0958 25.2654 16.0523 24.7242 16.1319C22.5147 16.4548 22.5018 13.867 23.2725 12.7752C23.8101 12.0147 24.5863 11.7797 25.4847 12.0609C25.5772 12.0896 25.6605 12.1322 25.7613 12.1405C25.7502 12.2663 25.7095 12.4514 25.6883 12.5754C25.6753 12.6521 25.6429 12.9732 25.6133 13.0028C25.5763 13.0389 25.5032 12.9889 25.4523 12.9584C25.295 12.8686 25.0054 12.8002 24.8213 12.8002ZM32.4886 16.1263L31.6763 16.1004C31.6791 15.9903 31.7022 15.9626 31.7022 15.8219C31.618 15.8553 31.5236 15.957 31.4061 16.032L31.3367 16.069C31.3312 16.0718 31.3247 16.0745 31.3182 16.0764C30.5336 16.391 29.8231 15.8164 29.8231 14.8569C29.8231 14.2935 29.9637 13.8179 30.2135 13.4451C30.4513 13.0898 30.7603 12.7752 31.2451 12.7752C31.47 12.7752 31.7614 12.8575 31.8974 13.0139L32.0464 13.1888C32.1472 13.2748 32.1139 13.2026 32.1352 13.1074C32.1777 12.9195 32.2693 12.1174 32.311 12.0387H33.1492C33.1455 12.1757 33.0937 12.3968 33.0687 12.543L32.8189 14.0696C32.7616 14.4119 32.7116 14.7404 32.6524 15.0966C32.6219 15.2751 32.5959 15.4343 32.5682 15.5962C32.5432 15.7507 32.4886 15.9755 32.4886 16.1263Z" fill="white"/>
<path fill-rule="evenodd" clip-rule="evenodd" d="M30.7373 14.6285C30.7373 14.8227 30.7364 15.0087 30.8326 15.1679C31.0176 15.476 31.4923 15.4019 31.7171 15.0244C31.8707 14.7672 31.9049 14.5035 31.9049 14.1714C31.9049 13.6941 31.5502 13.4918 31.2443 13.5997C31.0552 13.6663 30.9526 13.8603 30.8567 14.0363C30.79 14.1917 30.7373 14.4175 30.7373 14.6285Z" fill="white"/>
<path fill-rule="evenodd" clip-rule="evenodd" d="M26.4969 15.4658C26.8003 15.4658 26.9881 15.3714 27.1149 15.0679C27.1464 14.993 27.2 14.7987 27.1935 14.6914C27.1861 14.5729 26.9872 14.597 26.8753 14.6118C26.6902 14.6359 26.3877 14.6775 26.2794 14.8931C26.1703 15.1105 26.2415 15.4658 26.4969 15.4658Z" fill="white"/>
<path fill-rule="evenodd" clip-rule="evenodd" d="M12.3569 15.1364C12.3569 15.6073 12.963 15.5425 13.1776 15.1706C13.2137 15.1077 13.4274 14.6284 13.2451 14.6284C13.0027 14.6284 12.7252 14.6044 12.529 14.7506C12.4134 14.8366 12.3569 14.9402 12.3569 15.1364Z" fill="#E0E0E0"/>
<path fill-rule="evenodd" clip-rule="evenodd" d="M19.145 13.8772C19.1121 13.965 19.1923 14.0694 19.2861 14.0688C19.397 14.0682 19.508 14.0676 19.6178 14.0687C19.975 14.0733 20.074 14.2241 20.074 13.892C20.074 13.4174 19.3754 13.2499 19.145 13.8772Z" fill="#E0E0E0"/>
</svg>
