<svg width="26" height="22" viewBox="0 0 26 22" fill="none" xmlns="http://www.w3.org/2000/svg">
<path fill-rule="evenodd" clip-rule="evenodd" d="M2.34296 1.02008C2.32645 1.03108 2.28593 1.04037 2.25291 1.04069C2.13198 1.04189 1.97337 1.11243 1.74262 1.2676C1.57317 1.38154 1.56958 1.3847 1.50205 1.48096C1.47501 1.51948 1.43028 1.57491 1.40265 1.60413C1.33483 1.67581 1.22939 1.85345 1.18352 1.97326C1.06456 2.28402 1.05893 2.31912 1.06838 2.69165C1.0764 3.00843 1.08765 3.10566 1.14012 3.312C1.15131 3.35603 1.16886 3.42807 1.1791 3.47209C1.20175 3.56935 1.23767 3.68683 1.35648 4.05242C1.40657 4.20651 1.45498 4.3641 1.46408 4.40262C1.47319 4.44114 1.49074 4.51318 1.50309 4.56271C1.57159 4.83743 1.59114 5.42352 1.54481 5.81342C1.51023 6.10441 1.48494 6.30426 1.46372 6.45379C1.44519 6.5844 1.43433 6.65266 1.38242 6.96408C1.37141 7.03011 1.3534 7.13818 1.34239 7.20421C1.33139 7.27025 1.31338 7.37831 1.30237 7.44435C1.29137 7.51039 1.27295 7.62071 1.26147 7.68949C1.24996 7.75829 1.23195 7.88436 1.22145 7.96965C1.18026 8.30364 1.16259 8.44072 1.14212 8.585C1.04218 9.28966 1 10.0082 1 11.0064C1 12.0046 1.04218 12.7231 1.14212 13.4278C1.16259 13.572 1.18026 13.7091 1.22145 14.0431C1.23195 14.1284 1.24996 14.2545 1.26147 14.3233C1.27295 14.3921 1.29137 14.5024 1.30237 14.5684C1.31338 14.6344 1.33139 14.7425 1.34239 14.8085C1.3534 14.8746 1.37141 14.9826 1.38242 15.0487C1.43433 15.3601 1.44519 15.4284 1.46372 15.559C1.48494 15.7085 1.51023 15.9083 1.54481 16.1993C1.59084 16.5867 1.57144 17.1787 1.50401 17.445C1.49216 17.4918 1.47461 17.5639 1.465 17.6051C1.4554 17.6464 1.40657 17.8062 1.35648 17.9603C1.24258 18.3108 1.20229 18.4417 1.18094 18.5307C1.1717 18.5692 1.15415 18.6412 1.14194 18.6907C1.08655 18.9156 1.07646 19.0021 1.06838 19.3211C1.06009 19.6482 1.06636 19.7098 1.12535 19.8814C1.21548 20.1436 1.30445 20.3044 1.43773 20.446C1.48467 20.4958 1.53707 20.5603 1.55418 20.5892C1.58149 20.6355 1.84728 20.8243 1.98054 20.8921C2.26796 21.0383 2.94761 21.0355 3.33353 20.8864C3.37755 20.8694 3.49012 20.8269 3.58367 20.792C3.97897 20.6444 4.05946 20.6138 4.164 20.5714C4.41594 20.4694 5.0428 20.2639 5.14956 20.2484C5.21286 20.2392 5.32092 20.2222 5.3897 20.2107C5.53274 20.1868 5.74654 20.1598 6.03506 20.1291C6.42481 20.0877 7.91433 20.1113 8.68657 20.1711C8.94368 20.191 9.15292 20.2063 9.7872 20.2516C9.94129 20.2626 10.1912 20.2805 10.3425 20.2913C10.4939 20.3022 10.7302 20.3203 10.8678 20.3317C11.6688 20.3979 12.4709 20.4328 13.1891 20.4328C13.9074 20.4328 14.7094 20.3979 15.5105 20.3317C15.648 20.3203 15.8844 20.3022 16.0358 20.2913C16.1871 20.2805 16.437 20.2626 16.5911 20.2516C17.2253 20.2063 17.4346 20.191 17.6917 20.1711C18.4639 20.1113 19.9535 20.0877 20.3432 20.1291C20.6317 20.1598 20.8455 20.1868 20.9886 20.2107C21.0574 20.2222 21.1654 20.2392 21.2287 20.2484C21.3355 20.2639 21.9623 20.4694 22.2143 20.5714C22.2748 20.5959 22.3941 20.6421 22.4794 20.674C22.8541 20.814 22.9697 20.8574 23.0447 20.8864C23.2375 20.9609 23.4744 20.9969 23.7752 20.9974C24.1834 20.9981 24.3183 20.9586 24.6356 20.7452C24.8051 20.6312 24.8087 20.628 24.8762 20.5318C24.9033 20.4933 24.948 20.4378 24.9756 20.4086C25.0434 20.3369 25.1489 20.1593 25.1947 20.0395C25.3137 19.7287 25.3193 19.6936 25.3099 19.3211C25.3018 19.0021 25.2917 18.9156 25.2363 18.6907C25.2241 18.6412 25.2066 18.5692 25.1973 18.5307C25.176 18.4417 25.1357 18.3108 25.0218 17.9603C24.9717 17.8062 24.9229 17.6464 24.9133 17.6051C24.9037 17.5639 24.8861 17.4918 24.8743 17.445C24.8068 17.1787 24.7874 16.5867 24.8335 16.1993C24.868 15.9083 24.8933 15.7085 24.9145 15.559C24.9331 15.4284 24.9439 15.3601 24.9958 15.0487C25.0069 14.9826 25.0249 14.8746 25.0359 14.8085C25.0469 14.7425 25.0649 14.6344 25.0759 14.5684C25.0869 14.5024 25.1053 14.3921 25.1168 14.3233C25.1283 14.2545 25.1463 14.1284 25.1568 14.0431C25.198 13.7091 25.2157 13.572 25.2361 13.4278C25.3361 12.7231 25.3783 12.0046 25.3783 11.0064C25.3783 10.0082 25.3361 9.28966 25.2361 8.585C25.2157 8.44072 25.198 8.30364 25.1568 7.96965C25.1463 7.88436 25.1283 7.75829 25.1168 7.68949C25.1053 7.62071 25.0869 7.51039 25.0759 7.44435C25.0649 7.37831 25.0469 7.27025 25.0359 7.20421C25.0249 7.13818 25.0069 7.03011 24.9958 6.96408C24.9439 6.65266 24.9331 6.5844 24.9145 6.45379C24.8933 6.30426 24.868 6.10441 24.8335 5.81342C24.7874 5.42606 24.8068 4.83401 24.8743 4.56771C24.8861 4.52095 24.9037 4.44891 24.9133 4.40762C24.9229 4.36636 24.9717 4.20651 25.0218 4.05242C25.1406 3.68683 25.1765 3.56935 25.1992 3.47209C25.2094 3.42807 25.227 3.35603 25.2381 3.312C25.2906 3.10566 25.3019 3.00843 25.3099 2.69165C25.3182 2.36454 25.3119 2.30299 25.2529 2.13133C25.1628 1.86916 25.0738 1.70837 24.9405 1.56679C24.8936 1.51694 24.8412 1.45246 24.8241 1.42351C24.7968 1.37728 24.531 1.18849 24.3977 1.12067C24.1103 0.974432 23.4307 0.977293 23.0447 1.12636C22.9697 1.15537 22.8541 1.19878 22.4794 1.3388C22.3941 1.37068 22.2748 1.41682 22.2143 1.44134C21.9623 1.54338 21.3355 1.74883 21.2287 1.76438C21.1654 1.77359 21.0574 1.79054 20.9886 1.80202C20.8454 1.82594 20.6315 1.85299 20.3432 1.88363C19.9576 1.92459 18.5528 1.90222 17.7167 1.84176C17.5599 1.83044 17.3055 1.81215 17.1514 1.80114C16.9973 1.79014 16.7452 1.77213 16.5911 1.76112C16.437 1.75011 16.1871 1.73224 16.0358 1.72142C15.8844 1.71059 15.648 1.69244 15.5105 1.68107C14.7094 1.6149 13.9074 1.57996 13.1891 1.57996C12.4709 1.57996 11.6688 1.6149 10.8678 1.68107C10.7302 1.69244 10.4939 1.71059 10.3425 1.72142C10.1912 1.73224 9.94129 1.75011 9.7872 1.76112C9.63311 1.77213 9.38097 1.79014 9.22688 1.80114C9.07279 1.81215 8.81839 1.83044 8.66156 1.84176C7.8255 1.90222 6.42066 1.92459 6.03506 1.88363C5.74676 1.85299 5.53282 1.82594 5.3897 1.80202C5.32092 1.79054 5.21286 1.77359 5.14956 1.76438C5.0428 1.74883 4.41594 1.54338 4.164 1.44134C4.10346 1.41682 3.9819 1.3699 3.89385 1.33708C3.62637 1.23734 3.41781 1.15892 3.33353 1.12636C3.09799 1.03537 2.42783 0.963465 2.34296 1.02008ZM2.83182 1.97988C2.86562 1.99015 2.9338 2.00872 2.98333 2.02115C3.08857 2.04756 3.15777 2.0707 3.2885 2.12318C3.34077 2.14418 3.43082 2.1803 3.48862 2.20345C3.54641 2.2266 3.66121 2.27069 3.74376 2.30143C3.82631 2.33216 3.94337 2.37727 4.00391 2.40166C4.22413 2.49045 4.76048 2.66113 4.89441 2.68506C4.94945 2.69489 5.0395 2.71206 5.09453 2.72323C5.84748 2.87585 7.22534 2.90651 8.65655 2.80249C8.81064 2.79128 9.05828 2.77293 9.20687 2.76169C9.35545 2.75044 9.59859 2.73249 9.74718 2.72179C9.89576 2.71108 10.1277 2.69315 10.2625 2.68196C10.3973 2.67078 10.6179 2.65249 10.7527 2.6413C11.6181 2.5695 12.3257 2.5401 13.1891 2.5401C14.0526 2.5401 14.7602 2.5695 15.6255 2.6413C15.7603 2.65249 15.981 2.67078 16.1158 2.68196C16.2506 2.69315 16.4825 2.71108 16.6311 2.72179C16.7797 2.73249 17.0228 2.75044 17.1714 2.76169C17.32 2.77293 17.5676 2.79128 17.7217 2.80249C19.1529 2.90651 20.5308 2.87585 21.2837 2.72323C21.3388 2.71206 21.4288 2.69489 21.4839 2.68506C21.6178 2.66113 22.1541 2.49045 22.3744 2.40166C22.4349 2.37727 22.552 2.33216 22.6345 2.30143C22.7171 2.27069 22.8319 2.2266 22.8897 2.20345C22.9474 2.1803 23.0375 2.14418 23.0898 2.12318C23.2205 2.0707 23.2897 2.04756 23.3949 2.02115C23.4445 2.00872 23.5126 1.99015 23.5464 1.97988C23.8438 1.88963 24.1664 2.02697 24.3065 2.30349C24.3855 2.45938 24.3653 2.94341 24.2666 3.26197C24.2478 3.32251 24.2158 3.43057 24.1955 3.50211C24.1752 3.57365 24.1162 3.76276 24.0644 3.92235C23.8584 4.55671 23.8015 5.11613 23.8736 5.79841C23.8855 5.91122 23.9037 6.09132 23.9141 6.19864C23.9244 6.30596 23.9424 6.45005 23.9541 6.51882C23.9657 6.58762 23.9839 6.69566 23.9944 6.75896C24.0049 6.82226 24.0234 6.92355 24.0355 6.98409C24.0476 7.04462 24.0658 7.15268 24.0758 7.22423C24.0857 7.29577 24.1036 7.41283 24.1153 7.48437C24.1271 7.55591 24.1454 7.67524 24.1561 7.74952C24.1667 7.82381 24.1844 7.94764 24.1954 8.02468C24.2064 8.10172 24.2244 8.2278 24.2354 8.30484C24.3182 8.88425 24.333 9.00486 24.3568 9.2954C24.4037 9.86543 24.4179 10.2637 24.4179 11.0064C24.4179 12.0464 24.3802 12.6877 24.276 13.4227C24.2647 13.5025 24.2463 13.6331 24.235 13.7129C24.1737 14.1493 24.1407 14.3745 24.1153 14.5284C24.1036 14.5999 24.0857 14.717 24.0758 14.7885C24.0658 14.8601 24.0476 14.9681 24.0355 15.0287C24.0234 15.0892 24.0049 15.1905 23.9944 15.2538C23.9839 15.3171 23.9657 15.4251 23.9541 15.4939C23.9424 15.5627 23.9245 15.7045 23.9143 15.8091C23.904 15.9137 23.8858 16.0938 23.8738 16.2093C23.846 16.4768 23.8449 17.0716 23.8718 17.2799C23.9107 17.5798 23.9436 17.7182 24.0644 18.0904C24.1162 18.25 24.1752 18.4391 24.1955 18.5106C24.2158 18.5822 24.2478 18.6902 24.2666 18.7508C24.3653 19.0693 24.3855 19.5534 24.3065 19.7093C24.1664 19.9858 23.8438 20.1231 23.5464 20.0329C23.5126 20.0226 23.4445 20.004 23.3949 19.9916C23.2897 19.9652 23.2205 19.9421 23.0898 19.8896C23.0375 19.8686 22.9474 19.8325 22.8897 19.8093C22.8319 19.7861 22.7171 19.7421 22.6345 19.7113C22.552 19.6806 22.4349 19.6355 22.3744 19.6111C22.1599 19.5246 21.6191 19.3519 21.4889 19.3283C21.4366 19.3189 21.3465 19.3017 21.2887 19.2902C20.6483 19.1626 19.5805 19.1174 18.4421 19.1697C18.0272 19.1887 17.8187 19.2021 17.1714 19.2511C17.0228 19.2623 16.7797 19.2803 16.6311 19.291C16.4825 19.3017 16.2506 19.3196 16.1158 19.3308C15.981 19.342 15.7603 19.3603 15.6255 19.3715C14.7602 19.4433 14.0526 19.4727 13.1891 19.4727C12.3257 19.4727 11.6181 19.4433 10.7527 19.3715C10.6179 19.3603 10.3973 19.342 10.2625 19.3308C10.1277 19.3196 9.89576 19.3017 9.74718 19.291C9.59859 19.2803 9.35545 19.2623 9.20687 19.2511C8.55952 19.2021 8.3511 19.1887 7.93614 19.1697C6.79778 19.1174 5.72995 19.1626 5.08953 19.2902C5.03173 19.3017 4.94168 19.3189 4.88941 19.3283C4.75918 19.3519 4.21833 19.5246 4.00391 19.6111C3.94337 19.6355 3.82631 19.6806 3.74376 19.7113C3.66121 19.7421 3.54641 19.7861 3.48862 19.8093C3.43082 19.8325 3.34077 19.8686 3.2885 19.8896C3.15777 19.9421 3.08857 19.9652 2.98333 19.9916C2.9338 20.004 2.86562 20.0226 2.83182 20.0329C2.53449 20.1231 2.21189 19.9858 2.07177 19.7093C1.99276 19.5534 2.01294 19.0693 2.11169 18.7508C2.13046 18.6902 2.16244 18.5822 2.18275 18.5106C2.20306 18.4391 2.26208 18.25 2.31389 18.0904C2.51982 17.456 2.57672 16.8966 2.50469 16.2143C2.49279 16.1015 2.47458 15.9214 2.46421 15.8141C2.45387 15.7068 2.43586 15.5627 2.42419 15.4939C2.41254 15.4251 2.39441 15.3171 2.38391 15.2538C2.3734 15.1905 2.35487 15.0892 2.34274 15.0287C2.33062 14.9681 2.31251 14.8601 2.3025 14.7885C2.29252 14.717 2.2747 14.5999 2.26292 14.5284C2.25113 14.4568 2.23282 14.3375 2.2222 14.2632C2.21157 14.1889 2.19388 14.0651 2.18287 13.9881C2.17187 13.911 2.15386 13.785 2.14285 13.7079C2.06008 13.1285 2.04529 13.0079 2.02142 12.7173C1.92371 11.5278 1.94134 9.84341 2.06142 8.89518C2.08045 8.74495 2.09368 8.64902 2.14285 8.30484C2.15386 8.2278 2.17203 8.09948 2.18325 8.01968C2.21881 7.76655 2.24089 7.61819 2.26292 7.48437C2.2747 7.41283 2.29252 7.29577 2.3025 7.22423C2.31251 7.15268 2.33062 7.04462 2.34274 6.98409C2.35487 6.92355 2.3734 6.82226 2.38391 6.75896C2.39441 6.69566 2.41254 6.58762 2.42419 6.51882C2.43586 6.45005 2.45395 6.3037 2.46441 6.19364C2.47488 6.08358 2.49311 5.90347 2.5049 5.79341C2.53237 5.53711 2.53321 4.93995 2.50642 4.73281C2.46762 4.433 2.43472 4.29456 2.31389 3.92235C2.26208 3.76276 2.20306 3.57365 2.18275 3.50211C2.16244 3.43057 2.13046 3.32251 2.11169 3.26197C2.01402 2.94693 1.99282 2.45928 2.07017 2.30665C2.21225 2.02625 2.53229 1.88895 2.83182 1.97988ZM4.25397 4.05242C4.23196 4.06167 4.18663 4.07934 4.15327 4.09172C3.9948 4.15048 3.83793 4.4075 3.87287 4.55112C3.87984 4.5798 3.89415 4.63703 3.90467 4.6783C3.91518 4.71958 3.93347 4.79162 3.94531 4.83839C4.03376 5.18765 4.06424 5.78307 4.02394 6.37426C3.98148 6.9972 3.97865 7.26679 4.01389 7.33493C4.1277 7.55499 4.43767 7.6658 4.62318 7.55271C4.72008 7.49366 4.85745 7.34331 4.8734 7.27888C5.02923 6.64944 5.0462 5.35258 4.90586 4.79837C4.86023 4.6182 4.84373 4.55066 4.82762 4.47818C4.76296 4.18766 4.46275 3.96485 4.25397 4.05242ZM3.9638 8.10028C3.78827 8.22363 3.74386 8.2988 3.74376 8.47265C3.74348 8.95299 4.29825 9.13379 4.60033 8.75181C4.65156 8.68702 4.70389 8.51222 4.68347 8.47408C4.67287 8.45426 4.66416 8.4172 4.66412 8.39173C4.66368 8.11977 4.20668 7.92959 3.9638 8.10028ZM21.4738 12.7231C21.0341 12.9911 21.1822 13.6025 21.6869 13.6028C22.0571 13.603 22.2657 13.2524 22.0902 12.9253C21.9707 12.7025 21.6696 12.6037 21.4738 12.7231ZM21.2713 14.0853C21.1744 14.1444 21.037 14.2947 21.021 14.3592C20.8652 14.9886 20.8482 16.2855 20.9886 16.8397C21.0004 16.8865 21.0191 16.9608 21.0301 17.0048C21.0411 17.0488 21.0587 17.1186 21.0692 17.1599C21.0798 17.2012 21.0943 17.2597 21.1016 17.2899C21.1335 17.4224 21.3936 17.6051 21.5504 17.6051C21.7916 17.6051 22.0725 17.2962 22.0216 17.0869C22.0146 17.0583 22.0007 17.0033 21.9907 16.9648C21.9094 16.6518 21.8921 16.5433 21.8683 16.1943C21.8439 15.8364 21.8443 15.648 21.8705 15.2638C21.913 14.6409 21.9158 14.3713 21.8805 14.3031C21.7667 14.0831 21.4568 13.9723 21.2713 14.0853Z" fill="#4F4F4F" stroke="#4F4F4F" stroke-width="0.5"/>
<path d="M6 16V15.1643L8.64151 11.9643H6.08233V11H10V11.8357L7.35849 15.0357H10V16H6Z" fill="#4F4F4F" stroke="#4F4F4F" stroke-width="0.5"/>
<path d="M13 12V11.4986L14.9811 9.57857H13.0617V9H16V9.50143L14.0189 11.4214H16V12H13Z" fill="#4F4F4F" stroke="#4F4F4F" stroke-width="0.5"/>
<path d="M19 10V9.49857L20.3208 7.57857H19.0412V7H21V7.50143L19.6792 9.42143H21V10H19Z" fill="#4F4F4F" stroke="#4F4F4F" stroke-width="0.5"/>
</svg>
