<svg width="33" height="28" viewBox="0 0 33 28" fill="none" xmlns="http://www.w3.org/2000/svg">
<path d="M5.54346 20.5V19.4136L8.97742 15.2536H5.65049V14H10.7435V15.0864L7.30949 19.2464H10.7435V20.5H5.54346Z" fill="#55021A" stroke="#55021A" stroke-width="0.5"/>
<path d="M14.6431 15.3V14.6481L17.2185 12.1521H14.7233V11.4H18.5431V12.0519L15.9676 14.5479H18.5431V15.3H14.6431Z" fill="#55021A" stroke="#55021A" stroke-width="0.5"/>
<path d="M22.4434 12.7V12.0481L24.1603 9.55214H22.4969V8.8H25.0434V9.45186L23.3264 11.9479H25.0434V12.7H22.4434Z" fill="#55021A" stroke="#55021A" stroke-width="0.5"/>
<path fill-rule="evenodd" clip-rule="evenodd" d="M2.08911 1.0261C2.06765 1.04041 2.01497 1.05248 1.97205 1.0529C1.81484 1.05446 1.60865 1.14616 1.30867 1.34788C1.08838 1.49601 1.08372 1.50012 0.995921 1.62525C0.960775 1.67533 0.902631 1.74739 0.866705 1.78537C0.778541 1.87855 0.641468 2.10949 0.581842 2.26524C0.427184 2.66922 0.419875 2.71485 0.432154 3.19914C0.442586 3.61096 0.457207 3.73736 0.525418 4.0056C0.53996 4.06283 0.562775 4.15649 0.576094 4.21372C0.605543 4.34015 0.652239 4.49288 0.806688 4.96815C0.871803 5.16846 0.934734 5.37333 0.94657 5.42341C0.958407 5.47349 0.981223 5.56714 0.997274 5.63153C1.08632 5.98866 1.11174 6.75058 1.05151 7.25745C1.00656 7.63573 0.973678 7.89554 0.946102 8.08992C0.922012 8.25972 0.907887 8.34846 0.840404 8.7533C0.826096 8.83915 0.802683 8.97963 0.788375 9.06548C0.774066 9.15133 0.750653 9.29181 0.736345 9.37766C0.722037 9.4635 0.698103 9.60692 0.683171 9.69634C0.668212 9.78578 0.644799 9.94967 0.631141 10.0605C0.577602 10.4947 0.554632 10.6729 0.528019 10.8605C0.398101 11.7766 0.343262 12.7106 0.343262 14.0083C0.343262 15.3059 0.398101 16.24 0.528019 17.1561C0.554632 17.3436 0.577602 17.5218 0.631141 17.956C0.644799 18.0669 0.668212 18.2308 0.683171 18.3202C0.698103 18.4097 0.722037 18.5531 0.736345 18.6389C0.750653 18.7248 0.774066 18.8652 0.788375 18.9511C0.802683 19.0369 0.826096 19.1774 0.840404 19.2633C0.907887 19.6681 0.922012 19.7569 0.946102 19.9267C0.973678 20.121 1.00656 20.3808 1.05151 20.7591C1.11135 21.2627 1.08614 22.0324 0.99847 22.3785C0.983069 22.4393 0.960255 22.533 0.947768 22.5867C0.93528 22.6403 0.871803 22.8481 0.806688 23.0484C0.658612 23.5041 0.606245 23.6742 0.578487 23.7899C0.566468 23.8399 0.543653 23.9336 0.527784 23.998C0.455775 24.2903 0.442664 24.4027 0.432154 24.8174C0.421384 25.2427 0.429526 25.3227 0.506218 25.5458C0.623388 25.8867 0.73905 26.0957 0.912308 26.2798C0.973339 26.3446 1.04145 26.4284 1.06369 26.466C1.0992 26.5261 1.44473 26.7715 1.61796 26.8597C1.99161 27.0498 2.87515 27.0461 3.37685 26.8523C3.43408 26.8302 3.58041 26.775 3.70203 26.7295C4.21593 26.5377 4.32056 26.4979 4.45646 26.4428C4.78399 26.3102 5.5989 26.0431 5.73769 26.0229C5.81997 26.0109 5.96045 25.9889 6.04987 25.9739C6.23582 25.9429 6.51376 25.9077 6.88884 25.8679C7.39551 25.814 9.33189 25.8447 10.3358 25.9224C10.67 25.9483 10.9421 25.9682 11.7666 26.0271C11.9669 26.0414 12.2918 26.0647 12.4885 26.0787C12.6853 26.0928 12.9926 26.1164 13.1714 26.1312C14.2128 26.2172 15.2554 26.2626 16.1891 26.2626C17.1228 26.2626 18.1655 26.2172 19.2069 26.1312C19.3857 26.1164 19.693 26.0928 19.8897 26.0787C20.0865 26.0647 20.4113 26.0414 20.6117 26.0271C21.4362 25.9682 21.7082 25.9483 22.0425 25.9224C23.0464 25.8447 24.9828 25.814 25.4894 25.8679C25.8645 25.9077 26.1425 25.9429 26.3284 25.9739C26.4178 25.9889 26.5583 26.0109 26.6406 26.0229C26.7794 26.0431 27.5943 26.3102 27.9218 26.4428C28.0005 26.4747 28.1556 26.5347 28.2665 26.5761C28.7536 26.7582 28.9038 26.8146 29.0014 26.8523C29.2521 26.9491 29.56 26.9959 29.951 26.9966C30.4817 26.9975 30.657 26.9461 31.0696 26.6687C31.2899 26.5206 31.2945 26.5165 31.3823 26.3913C31.4175 26.3412 31.4756 26.2692 31.5116 26.2312C31.5997 26.138 31.7368 25.9071 31.7964 25.7513C31.9511 25.3474 31.9584 25.3017 31.9461 24.8174C31.9356 24.4027 31.9225 24.2903 31.8505 23.998C31.8346 23.9336 31.8118 23.8399 31.7998 23.7899C31.772 23.6742 31.7197 23.5041 31.5716 23.0484C31.5065 22.8481 31.443 22.6403 31.4305 22.5867C31.418 22.533 31.3952 22.4393 31.3798 22.3785C31.2921 22.0324 31.2669 21.2627 31.3268 20.7591C31.3717 20.3808 31.4046 20.121 31.4322 19.9267C31.4563 19.7569 31.4704 19.6681 31.5379 19.2633C31.5522 19.1774 31.5756 19.0369 31.5899 18.9511C31.6042 18.8652 31.6276 18.7248 31.6419 18.6389C31.6562 18.5531 31.6802 18.4097 31.6951 18.3202C31.7101 18.2308 31.7335 18.0669 31.7471 17.956C31.8007 17.5218 31.8236 17.3436 31.8503 17.1561C31.9802 16.24 32.035 15.3059 32.035 14.0083C32.035 12.7106 31.9802 11.7766 31.8503 10.8605C31.8236 10.6729 31.8007 10.4947 31.7471 10.0605C31.7335 9.94967 31.7101 9.78578 31.6951 9.69634C31.6802 9.60692 31.6562 9.4635 31.6419 9.37766C31.6276 9.29181 31.6042 9.15133 31.5899 9.06548C31.5756 8.97963 31.5522 8.83915 31.5379 8.7533C31.4704 8.34846 31.4563 8.25972 31.4322 8.08992C31.4046 7.89554 31.3717 7.63573 31.3268 7.25745C31.2669 6.75388 31.2921 5.98421 31.3798 5.63803C31.3952 5.57723 31.418 5.48358 31.4305 5.42991C31.443 5.37627 31.5065 5.16846 31.5716 4.96815C31.726 4.49288 31.7727 4.34015 31.8022 4.21372C31.8155 4.15649 31.8383 4.06283 31.8529 4.0056C31.9211 3.73736 31.9357 3.61096 31.9461 3.19914C31.9569 2.7739 31.9487 2.69388 31.872 2.47073C31.7549 2.12991 31.6392 1.92088 31.466 1.73682C31.4049 1.67202 31.3368 1.5882 31.3146 1.55056C31.2791 1.49046 30.9335 1.24504 30.7603 1.15688C30.3867 0.966761 29.5031 0.970481 29.0014 1.16427C28.9038 1.20199 28.7536 1.25841 28.2665 1.44044C28.1556 1.48188 28.0005 1.54187 27.9218 1.57374C27.5943 1.70639 26.7794 1.97348 26.6406 1.99369C26.5583 2.00566 26.4178 2.0277 26.3284 2.04263C26.1423 2.07372 25.8642 2.10889 25.4894 2.14872C24.9881 2.20197 23.1619 2.17288 22.075 2.09429C21.8711 2.07957 21.5404 2.05579 21.3401 2.04148C21.1398 2.02718 20.812 2.00376 20.6117 1.98945C20.4113 1.97515 20.0865 1.95192 19.8897 1.93784C19.693 1.92377 19.3857 1.90017 19.2069 1.8854C18.1655 1.79936 17.1228 1.75394 16.1891 1.75394C15.2554 1.75394 14.2128 1.79936 13.1714 1.8854C12.9926 1.90017 12.6853 1.92377 12.4885 1.93784C12.2918 1.95192 11.9669 1.97515 11.7666 1.98945C11.5663 2.00376 11.2385 2.02718 11.0382 2.04148C10.8379 2.05579 10.5072 2.07957 10.3033 2.09429C9.21642 2.17288 7.39012 2.20197 6.88884 2.14872C6.51405 2.10889 6.23593 2.07372 6.04987 2.04263C5.96045 2.0277 5.81997 2.00566 5.73769 1.99369C5.5989 1.97348 4.78399 1.70639 4.45646 1.57374C4.37777 1.54187 4.21973 1.48087 4.10526 1.4382C3.75755 1.30854 3.48642 1.20659 3.37685 1.16427C3.07065 1.04598 2.19944 0.952505 2.08911 1.0261ZM2.72463 2.27385C2.76857 2.28719 2.8572 2.31134 2.92159 2.32749C3.0584 2.36183 3.14836 2.3919 3.31831 2.46014C3.38626 2.48743 3.50333 2.53439 3.57846 2.56449C3.65359 2.59458 3.80284 2.6519 3.91015 2.69185C4.01746 2.73181 4.16965 2.79045 4.24834 2.82216C4.53464 2.93759 5.23188 3.15947 5.406 3.19058C5.47754 3.20336 5.59461 3.22568 5.66615 3.24019C6.64498 3.43861 8.4362 3.47846 10.2968 3.34324C10.4971 3.32867 10.819 3.30481 11.0122 3.29019C11.2053 3.27557 11.5214 3.25224 11.7146 3.23832C11.9078 3.2244 12.2092 3.20109 12.3845 3.18655C12.5597 3.17201 12.8466 3.14823 13.0218 3.13369C14.1467 3.04035 15.0666 3.00213 16.1891 3.00213C17.3116 3.00213 18.2315 3.04035 19.3564 3.13369C19.5317 3.14823 19.8185 3.17201 19.9938 3.18655C20.1691 3.20109 20.4705 3.2244 20.6637 3.23832C20.8568 3.25224 21.1729 3.27557 21.3661 3.29019C21.5592 3.30481 21.8812 3.32867 22.0815 3.34324C23.9421 3.47846 25.7333 3.43861 26.7121 3.24019C26.7837 3.22568 26.9007 3.20336 26.9723 3.19058C27.1464 3.15947 27.8436 2.93759 28.1299 2.82216C28.2086 2.79045 28.3608 2.73181 28.4681 2.69185C28.5754 2.6519 28.7247 2.59458 28.7998 2.56449C28.8749 2.53439 28.992 2.48743 29.06 2.46014C29.2299 2.3919 29.3199 2.36183 29.4567 2.32749C29.5211 2.31134 29.6097 2.28719 29.6536 2.27385C30.0402 2.15652 30.4596 2.33506 30.6417 2.69453C30.7444 2.89719 30.7182 3.52643 30.5898 3.94056C30.5654 4.01926 30.5238 4.15974 30.4974 4.25274C30.471 4.34574 30.3943 4.59158 30.327 4.79905C30.0592 5.62372 29.9853 6.35096 30.0789 7.23794C30.0944 7.38458 30.1181 7.61872 30.1315 7.75823C30.145 7.89775 30.1684 8.08506 30.1836 8.17447C30.1987 8.26391 30.2223 8.40436 30.2359 8.48665C30.2496 8.56893 30.2737 8.70062 30.2894 8.77931C30.3052 8.85801 30.3287 8.99849 30.3418 9.09149C30.3547 9.18449 30.3779 9.33668 30.3932 9.42968C30.4085 9.52269 30.4323 9.67781 30.4462 9.77438C30.46 9.87095 30.483 10.0319 30.4973 10.1321C30.5116 10.2322 30.535 10.3961 30.5493 10.4963C30.6569 11.2495 30.6761 11.4063 30.7072 11.784C30.768 12.5251 30.7865 13.0428 30.7865 14.0083C30.7865 15.3603 30.7375 16.1939 30.6021 17.1496C30.5874 17.2533 30.5634 17.4231 30.5488 17.5268C30.4691 18.0941 30.4261 18.3869 30.3932 18.5869C30.3779 18.6799 30.3547 18.8321 30.3418 18.9251C30.3287 19.0181 30.3052 19.1586 30.2894 19.2373C30.2737 19.316 30.2496 19.4476 30.2359 19.5299C30.2223 19.6122 30.1987 19.7527 30.1836 19.8421C30.1684 19.9315 30.1451 20.1159 30.1318 20.2518C30.1185 20.3878 30.0948 20.6219 30.0792 20.7721C30.043 21.1198 30.0416 21.8931 30.0767 22.1639C30.1271 22.5537 30.1699 22.7337 30.327 23.2175C30.3943 23.425 30.471 23.6708 30.4974 23.7638C30.5238 23.8568 30.5654 23.9973 30.5898 24.076C30.7182 24.4901 30.7444 25.1194 30.6417 25.322C30.4596 25.6815 30.0402 25.8601 29.6536 25.7427C29.6097 25.7294 29.5211 25.7052 29.4567 25.6891C29.3199 25.6547 29.2299 25.6247 29.06 25.5564C28.992 25.5291 28.8749 25.4822 28.7998 25.4521C28.7247 25.422 28.5754 25.3647 28.4681 25.3247C28.3608 25.2848 28.2086 25.2261 28.1299 25.1944C27.8512 25.082 27.1481 24.8575 26.9788 24.8268C26.9108 24.8145 26.7938 24.7922 26.7186 24.7772C25.8861 24.6114 24.4979 24.5527 23.018 24.6206C22.4786 24.6453 22.2076 24.6627 21.3661 24.7264C21.1729 24.741 20.8568 24.7643 20.6637 24.7783C20.4705 24.7922 20.1691 24.8155 19.9938 24.83C19.8185 24.8446 19.5317 24.8683 19.3564 24.8829C18.2315 24.9762 17.3116 25.0144 16.1891 25.0144C15.0666 25.0144 14.1467 24.9762 13.0218 24.8829C12.8466 24.8683 12.5597 24.8446 12.3845 24.83C12.2092 24.8155 11.9078 24.7922 11.7146 24.7783C11.5214 24.7643 11.2053 24.741 11.0122 24.7264C10.1706 24.6627 9.89969 24.6453 9.36025 24.6206C7.88037 24.5527 6.4922 24.6114 5.65965 24.7772C5.58451 24.7922 5.46745 24.8145 5.3995 24.8268C5.23019 24.8575 4.52709 25.082 4.24834 25.1944C4.16965 25.2261 4.01746 25.2848 3.91015 25.3247C3.80284 25.3647 3.65359 25.422 3.57846 25.4521C3.50333 25.4822 3.38626 25.5291 3.31831 25.5564C3.14836 25.6247 3.0584 25.6547 2.92159 25.6891C2.8572 25.7052 2.76857 25.7294 2.72463 25.7427C2.3381 25.8601 1.91872 25.6815 1.73656 25.322C1.63386 25.1194 1.66008 24.4901 1.78846 24.076C1.81286 23.9973 1.85444 23.8568 1.88084 23.7638C1.90725 23.6708 1.98396 23.425 2.05131 23.2175C2.31903 22.3929 2.39299 21.6656 2.29937 20.7786C2.28389 20.632 2.26021 20.3978 2.24674 20.2583C2.23329 20.1189 2.20988 19.9315 2.19471 19.8421C2.17957 19.7527 2.156 19.6122 2.14234 19.5299C2.12868 19.4476 2.10459 19.316 2.08883 19.2373C2.07306 19.1586 2.04952 19.0181 2.03651 18.9251C2.02353 18.8321 2.00038 18.6799 1.98506 18.5869C1.96973 18.4939 1.94593 18.3388 1.93212 18.2422C1.9183 18.1456 1.8953 17.9846 1.881 17.8845C1.86669 17.7843 1.84327 17.6204 1.82897 17.5203C1.72137 16.7671 1.70214 16.6103 1.67111 16.2326C1.54408 14.6862 1.567 12.4964 1.72311 11.2637C1.74785 11.0684 1.76505 10.9437 1.82897 10.4963C1.84327 10.3961 1.8669 10.2293 1.88149 10.1256C1.92772 9.79652 1.95641 9.60365 1.98506 9.42968C2.00038 9.33668 2.02353 9.18449 2.03651 9.09149C2.04952 8.99849 2.07306 8.85801 2.08883 8.77931C2.10459 8.70062 2.12868 8.56893 2.14234 8.48665C2.156 8.40436 2.17957 8.26391 2.19471 8.17447C2.20988 8.08506 2.23339 7.89481 2.247 7.75173C2.2606 7.60865 2.2843 7.37452 2.29963 7.23143C2.33534 6.89824 2.33644 6.12193 2.3016 5.85265C2.25116 5.4629 2.20839 5.28293 2.05131 4.79905C1.98396 4.59158 1.90725 4.34574 1.88084 4.25274C1.85444 4.15974 1.81286 4.01926 1.78846 3.94056C1.66148 3.53101 1.63393 2.89706 1.73448 2.69864C1.91919 2.33412 2.33524 2.15564 2.72463 2.27385ZM4.57342 4.96815C4.54481 4.98017 4.48588 5.00314 4.44252 5.01924C4.23651 5.09562 4.03258 5.42975 4.078 5.61646C4.08705 5.65374 4.10565 5.72814 4.11933 5.78179C4.13299 5.83545 4.15677 5.92911 4.17217 5.9899C4.28716 6.44394 4.32678 7.21799 4.27438 7.98654C4.21918 8.79635 4.21551 9.14683 4.26132 9.23541C4.40927 9.52149 4.81224 9.66553 5.0534 9.51852C5.17936 9.44176 5.35795 9.24631 5.37868 9.16254C5.58126 8.34427 5.60332 6.65835 5.42088 5.93788C5.36157 5.70366 5.34011 5.61586 5.31916 5.52164C5.23511 5.14396 4.84484 4.85431 4.57342 4.96815ZM4.19621 10.2304C3.96801 10.3907 3.91028 10.4884 3.91015 10.7144C3.90979 11.3389 4.63099 11.5739 5.02369 11.0774C5.09028 10.9931 5.15831 10.7659 5.13178 10.7163C5.11799 10.6905 5.10667 10.6424 5.10662 10.6092C5.10605 10.2557 4.51195 10.0085 4.19621 10.2304ZM26.9592 16.24C26.3876 16.5885 26.5802 17.3833 27.2362 17.3836C27.7175 17.3839 27.9887 16.9282 27.7605 16.5028C27.6051 16.2132 27.2137 16.0848 26.9592 16.24ZM26.6959 18.0109C26.5699 18.0877 26.3913 18.2832 26.3706 18.3669C26.168 19.1852 26.146 20.8711 26.3284 21.5916C26.3438 21.6524 26.3681 21.749 26.3824 21.8062C26.3967 21.8635 26.4196 21.9542 26.4333 22.0078C26.447 22.0615 26.4659 22.1376 26.4753 22.1769C26.5168 22.3491 26.855 22.5867 27.0588 22.5867C27.3724 22.5867 27.7375 22.1851 27.6713 21.913C27.6622 21.8757 27.6442 21.8043 27.6311 21.7542C27.5254 21.3474 27.503 21.2063 27.472 20.7526C27.4403 20.2873 27.4409 20.0423 27.4749 19.5429C27.5301 18.7331 27.5338 18.3826 27.488 18.2941C27.34 18.008 26.937 17.8639 26.6959 18.0109Z" fill="#55021A" stroke="#55021A" stroke-width="0.5"/>
</svg>
