<svg width="28" height="26" viewBox="0 0 28 26" fill="none" xmlns="http://www.w3.org/2000/svg">
<path d="M2.80769 3.04647C3.8799 3.04647 2.99746 3.04647 3.32007 3.04647H4.41126C4.41126 3.04647 4.43024 3.03698 4.44922 3.03698V2.61948H2.80769V3.04647ZM24.9067 0.427612H25.8745C26.0358 0.427612 26.1686 0.560453 26.1686 0.731248V0.864088H27.3168C27.6963 0.864088 27.9999 1.16772 27.9999 1.54727V1.94579C27.9999 2.31585 27.6963 2.61948 27.3168 2.61948H26.1686V3.65374V25.5724H23.1797C22.8951 25.5724 22.6009 25.4396 22.3542 25.2878L22.3068 25.3162C22.0601 25.468 21.7754 25.5724 21.4813 25.5724H21.2725H20.3521H19.6595C19.3463 25.5724 19.1186 25.4586 18.8909 25.2973C18.6537 25.4586 18.4164 25.5724 18.0559 25.5724H14.9057V3.65374V2.61948H12.5145V3.65374V25.5724H9.51613C9.23147 25.5724 8.94682 25.4396 8.70011 25.2878L8.65267 25.3162C8.40597 25.468 8.12131 25.5724 7.82716 25.5724H7.60892H6.69802H5.99586C5.68274 25.5724 5.4645 25.4586 5.22728 25.2973C4.99956 25.4586 4.75285 25.5724 4.40177 25.5724H1.24207V3.65374V2.61948H0.834059C0.464003 2.61948 0.150879 2.31585 0.150879 1.94579V1.54727C0.150879 1.16772 0.464003 0.864088 0.834059 0.864088H1.24207V0.731248C1.24207 0.560453 1.3844 0.427612 1.5457 0.427612H2.51354C2.67485 0.427612 2.80769 0.560453 2.80769 0.731248V0.864088H4.44922V0.731248C4.44922 0.560453 4.58206 0.427612 4.75285 0.427612H5.7112C5.87251 0.427612 6.01484 0.560453 6.01484 0.731248V0.864088H7.86512V0.731248C7.86512 0.560453 7.99796 0.427612 8.15926 0.427612H9.1271C9.28841 0.427612 9.43074 0.560453 9.43074 0.731248V0.864088H10.9489V0.731248C10.9489 0.560453 11.0818 0.427612 11.2525 0.427612H12.2109C12.3817 0.427612 12.5145 0.560453 12.5145 0.731248V0.864088H14.9057V0.731248C14.9057 0.560453 15.0385 0.427612 15.2093 0.427612H16.1676C16.329 0.427612 16.4713 0.560453 16.4713 0.731248V0.864088H18.1033V0.731248C18.1033 0.560453 18.2362 0.427612 18.407 0.427612H19.3653C19.5361 0.427612 19.6689 0.560453 19.6689 0.731248V0.864088H21.5192V0.731248C21.5192 0.560453 21.6521 0.427612 21.8229 0.427612H22.7812C22.952 0.427612 23.0848 0.560453 23.0848 0.731248V0.864088H24.603V0.731248C24.603 0.560453 24.7453 0.427612 24.9067 0.427612ZM24.603 3.04647V2.61948H23.0848V3.04647H24.603ZM21.5192 3.04647V2.61948H19.6689V3.03698C19.9251 3.03698 19.5171 3.03698 20.6368 3.04647H21.4908C21.5002 3.04647 21.5097 3.04647 21.5192 3.04647ZM18.1033 3.03698V2.61948H16.4713V3.04647C17.534 3.04647 16.6611 3.04647 16.9742 3.04647H18.0654C18.0749 3.04647 18.0843 3.03698 18.1033 3.03698ZM22.3163 11.8329C22.7432 11.8329 23.1038 12.1935 23.1038 12.6205V24.0922L23.1797 24.1491H24.7453V4.46976H22.952C22.7907 4.46976 22.6009 4.40334 22.4206 4.32743L22.3163 4.27999C22.1075 4.37487 21.8229 4.46027 21.5002 4.46976L20.6368 4.46027C20.0864 4.46027 20.6842 4.46027 19.6689 4.46027C19.4981 4.46027 19.242 4.40334 19.0237 4.32743C18.9763 4.30845 18.9193 4.28948 18.8719 4.2705C18.8245 4.28948 18.7675 4.30845 18.7201 4.32743C18.4924 4.40334 18.2457 4.46027 18.0654 4.46027H16.9742C16.4618 4.46027 16.3574 4.46027 16.329 4.46976V24.1491H18.0559C18.0559 24.1491 18.0749 24.1396 18.1033 24.1207V20.6004C18.1033 20.1734 18.4544 19.8223 18.8814 19.8223H18.8909C19.3179 19.8223 19.6689 20.1734 19.6689 20.6004V24.1586H20.3521V24.1491H21.2725V24.1586H21.4813C21.4908 24.1586 21.5097 24.1491 21.5382 24.1302V12.6205C21.5382 12.1935 21.8893 11.8329 22.3163 11.8329ZM6.01484 2.61948V3.03698C6.27103 3.03698 5.86302 3.03698 6.97319 3.04647H7.83665C7.84614 3.04647 7.85563 3.04647 7.86512 3.04647V2.61948H6.01484ZM9.43074 2.61948V3.04647H10.9489V2.61948H9.43074ZM8.66216 19.3953C9.08915 19.3953 9.44022 19.7464 9.44022 20.1829V24.0922L9.51613 24.1491H11.0912V4.46976H9.28841C9.13659 4.46976 8.93733 4.40334 8.75704 4.32743L8.66216 4.27999C8.45341 4.37487 8.16875 4.46027 7.83665 4.46976L6.97319 4.46027C6.43234 4.46027 7.03012 4.46027 6.00535 4.46027C5.83455 4.46027 5.58785 4.40334 5.36012 4.32743C5.31268 4.30845 5.26524 4.28948 5.21779 4.2705C5.16086 4.28948 5.11342 4.30845 5.05649 4.32743C4.83825 4.40334 4.58206 4.46027 4.41126 4.46027H3.32007C2.80769 4.46027 2.69383 4.46027 2.66536 4.46976V24.1491H4.40177C4.40177 24.1491 4.42075 24.1396 4.44922 24.1207V17.2794C4.44922 16.8429 4.8003 16.4918 5.22728 16.4918C5.66376 16.4918 6.01484 16.8429 6.01484 17.2794V24.1586H6.69802V24.1491H7.60892V24.1586H7.82716C7.82716 24.1586 7.84614 24.1491 7.8746 24.1302V20.1829C7.8746 19.7464 8.22568 19.3953 8.66216 19.3953Z" fill="#55021A"/>
</svg>
