<svg width="22" height="20" viewBox="0 0 22 20" fill="none" xmlns="http://www.w3.org/2000/svg">
<path fill-rule="evenodd" clip-rule="evenodd" d="M21.9785 3.17391C21.966 3.17391 21.957 3.10146 21.957 3C21.957 2.89854 21.9481 2.82609 21.9355 2.82609C21.9237 2.82609 21.9141 2.77717 21.9141 2.71739C21.9141 2.65761 21.9044 2.6087 21.8926 2.6087C21.8808 2.6087 21.8711 2.56957 21.8711 2.52174C21.8711 2.47391 21.8614 2.43478 21.8496 2.43478C21.8378 2.43478 21.8281 2.40544 21.8281 2.36957C21.8281 2.3337 21.8185 2.30435 21.8066 2.30435C21.7948 2.30435 21.7852 2.275 21.7852 2.23913C21.7852 2.20326 21.7755 2.17391 21.7637 2.17391C21.7519 2.17391 21.7422 2.15435 21.7422 2.13043C21.7422 2.10652 21.7325 2.08696 21.7207 2.08696C21.7089 2.08696 21.6992 2.05761 21.6992 2.02174C21.6992 1.98587 21.6896 1.95652 21.6777 1.95652C21.6659 1.95652 21.6562 1.93696 21.6562 1.91304C21.6562 1.88913 21.6466 1.86957 21.6348 1.86957C21.6229 1.86957 21.6133 1.85215 21.6133 1.83089C21.6133 1.80961 21.5939 1.77811 21.5703 1.76087C21.5467 1.74363 21.5273 1.71213 21.5273 1.69085C21.5273 1.66959 21.5177 1.65217 21.5059 1.65217C21.494 1.65217 21.4844 1.63476 21.4844 1.6135C21.4844 1.59222 21.465 1.56072 21.4414 1.54348C21.4178 1.52624 21.3984 1.49689 21.3984 1.47826C21.3984 1.45963 21.3791 1.43028 21.3555 1.41304C21.3318 1.3958 21.3125 1.36911 21.3125 1.35372C21.3125 1.31963 20.6995 0.695652 20.666 0.695652C20.653 0.695652 20.6151 0.666304 20.582 0.630435C20.5489 0.594565 20.5085 0.565217 20.4922 0.565217C20.4759 0.565217 20.4487 0.545652 20.4316 0.521739C20.4146 0.497826 20.3835 0.478261 20.3624 0.478261C20.3414 0.478261 20.3242 0.468478 20.3242 0.456522C20.3242 0.444565 20.3049 0.434783 20.2812 0.434783C20.2576 0.434783 20.2383 0.425 20.2383 0.413043C20.2383 0.401087 20.2189 0.391304 20.1953 0.391304C20.1717 0.391304 20.1523 0.381522 20.1523 0.369565C20.1523 0.357609 20.133 0.347826 20.1094 0.347826C20.0857 0.347826 20.0664 0.338043 20.0664 0.326087C20.0664 0.31413 20.0471 0.304348 20.0234 0.304348C19.9998 0.304348 19.9805 0.294565 19.9805 0.282609C19.9805 0.270652 19.9611 0.26087 19.9375 0.26087C19.9139 0.26087 19.8945 0.251087 19.8945 0.23913C19.8945 0.227174 19.8655 0.217391 19.8301 0.217391C19.7946 0.217391 19.7656 0.207609 19.7656 0.195652C19.7656 0.183696 19.7366 0.173913 19.7012 0.173913C19.6657 0.173913 19.6367 0.16413 19.6367 0.152174C19.6367 0.140217 19.6077 0.130435 19.5723 0.130435C19.5368 0.130435 19.5078 0.120652 19.5078 0.108696C19.5078 0.096739 19.4595 0.0869564 19.4004 0.0869564C19.3413 0.0869564 19.293 0.0771738 19.293 0.0652173C19.293 0.0531303 19.2357 0.0434781 19.1641 0.0434781C19.0925 0.0434781 19.0352 0.033826 19.0352 0.021739C19.0352 0.00728248 16.4212 -2.43856e-07 11.2363 -4.70495e-07C6.05144 -6.97134e-07 3.4375 0.0072818 3.4375 0.0217383C3.4375 0.0341514 3.37305 0.0434775 3.28711 0.0434774C3.20117 0.0434774 3.13672 0.0528035 3.13672 0.0652166C3.13672 0.0771731 3.08838 0.0869557 3.0293 0.0869557C2.97021 0.0869557 2.92187 0.0967383 2.92187 0.108695C2.92187 0.120651 2.89287 0.130434 2.85742 0.130434C2.82197 0.130434 2.79297 0.140217 2.79297 0.152173C2.79297 0.16413 2.7543 0.173912 2.70703 0.173912C2.65977 0.173912 2.62109 0.183695 2.62109 0.195651C2.62109 0.207608 2.60176 0.21739 2.57812 0.21739C2.55449 0.21739 2.53516 0.227173 2.53516 0.23913C2.53516 0.251086 2.50615 0.260869 2.4707 0.260869C2.43525 0.260869 2.40625 0.270651 2.40625 0.282608C2.40625 0.294564 2.38691 0.304347 2.36328 0.304347C2.33965 0.304347 2.32031 0.31413 2.32031 0.326086C2.32031 0.338043 2.30098 0.347825 2.27734 0.347825C2.25371 0.347825 2.23437 0.357608 2.23437 0.369564C2.23437 0.381521 2.2075 0.391304 2.17467 0.391304C2.13961 0.391304 2.10218 0.40926 2.08398 0.434782C2.06695 0.458695 2.03582 0.47826 2.01478 0.47826C1.99377 0.47826 1.97656 0.488043 1.97656 0.499999C1.97656 0.511956 1.95723 0.521738 1.93359 0.521738C1.90996 0.521738 1.89062 0.531521 1.89062 0.543477C1.89062 0.555434 1.87342 0.565217 1.8524 0.565217C1.83137 0.565217 1.80024 0.584782 1.7832 0.608695C1.76617 0.632608 1.7389 0.652173 1.72262 0.652173C1.70635 0.652173 1.66592 0.681521 1.63281 0.71739C1.5997 0.75326 1.56123 0.782608 1.54731 0.782608C1.53341 0.782608 1.48487 0.821738 1.43945 0.869564C1.39404 0.917391 1.34632 0.956521 1.33341 0.956521C1.30277 0.956521 0.945312 1.31822 0.945312 1.34922C0.945312 1.36228 0.906641 1.41056 0.859375 1.45652C0.812109 1.50248 0.773437 1.55335 0.773437 1.56959C0.773437 1.58583 0.754101 1.61319 0.730469 1.63043C0.706837 1.64767 0.6875 1.67702 0.6875 1.69565C0.6875 1.71428 0.668163 1.74363 0.644531 1.76087C0.620899 1.77811 0.601562 1.80746 0.601562 1.82609C0.601562 1.84472 0.582226 1.87406 0.558594 1.8913C0.534962 1.90854 0.515625 1.94004 0.515625 1.96133C0.515625 1.98259 0.505957 2 0.494141 2C0.482325 2 0.472656 2.01956 0.472656 2.04348C0.472656 2.06739 0.462988 2.08696 0.451172 2.08696C0.439356 2.08696 0.429687 2.10652 0.429687 2.13043C0.429687 2.15435 0.420019 2.17391 0.408203 2.17391C0.396387 2.17391 0.386719 2.19348 0.386719 2.21739C0.386719 2.2413 0.37705 2.26087 0.365234 2.26087C0.353418 2.26087 0.34375 2.28043 0.34375 2.30435C0.34375 2.32826 0.334082 2.34783 0.322266 2.34783C0.310449 2.34783 0.300781 2.37717 0.300781 2.41304C0.300781 2.44891 0.291113 2.47826 0.279297 2.47826C0.267481 2.47826 0.257812 2.49783 0.257812 2.52174C0.257812 2.54565 0.248144 2.56522 0.236328 2.56522C0.224512 2.56522 0.214844 2.59456 0.214844 2.63043C0.214844 2.6663 0.205175 2.69565 0.193359 2.69565C0.181543 2.69565 0.171875 2.73478 0.171875 2.78261C0.171875 2.83043 0.162207 2.86956 0.15039 2.86956C0.138574 2.86956 0.128906 2.90869 0.128906 2.95652C0.128906 3.00435 0.119238 3.04348 0.107422 3.04348C0.0956057 3.04348 0.0859374 3.09239 0.0859374 3.15217C0.0859374 3.21196 0.076269 3.26087 0.064453 3.26087C0.0517119 3.26087 0.0429686 3.34059 0.0429686 3.45652C0.0429686 3.57246 0.0342253 3.65217 0.0214842 3.65217C0.00719627 3.65217 -2.60051e-07 5.94928 -4.5897e-07 10.5C-6.57888e-07 15.0507 0.00719567 17.3478 0.0214836 17.3478C0.0340092 17.3478 0.042968 17.4203 0.042968 17.5217C0.042968 17.6232 0.0519268 17.6957 0.0644524 17.6957C0.0762684 17.6957 0.0859367 17.7446 0.0859367 17.8043C0.0859367 17.8641 0.0956051 17.913 0.107421 17.913C0.119237 17.913 0.128905 17.9424 0.128905 17.9783C0.128905 18.0141 0.138574 18.0435 0.15039 18.0435C0.162206 18.0435 0.171874 18.0728 0.171874 18.1087C0.171874 18.1446 0.181543 18.1739 0.193359 18.1739C0.205175 18.1739 0.214843 18.1935 0.214843 18.2174C0.214843 18.2413 0.224511 18.2609 0.236327 18.2609C0.248143 18.2609 0.257812 18.2804 0.257812 18.3043C0.257812 18.3283 0.26748 18.3478 0.279296 18.3478C0.291112 18.3478 0.30078 18.3674 0.30078 18.3913C0.30078 18.4152 0.310449 18.4348 0.322265 18.4348C0.334081 18.4348 0.343749 18.4543 0.343749 18.4783C0.343749 18.5022 0.353418 18.5217 0.365234 18.5217C0.37705 18.5217 0.386718 18.5413 0.386718 18.5652C0.386718 18.5891 0.396386 18.6087 0.408202 18.6087C0.420018 18.6087 0.429687 18.6261 0.429687 18.6474C0.429687 18.6687 0.449023 18.7002 0.472655 18.7174C0.496287 18.7346 0.515624 18.762 0.515624 18.7782C0.515624 18.7945 0.554296 18.8453 0.601562 18.8913C0.648828 18.9373 0.687499 18.9856 0.687499 18.9987C0.687499 19.0298 0.958846 19.3043 0.98957 19.3043C1.00252 19.3043 1.05028 19.3435 1.0957 19.3913C1.14112 19.4391 1.19139 19.4783 1.20744 19.4783C1.22349 19.4783 1.25054 19.4978 1.26758 19.5217C1.28461 19.5457 1.31575 19.5652 1.33678 19.5652C1.35779 19.5652 1.375 19.575 1.375 19.587C1.375 19.5989 1.39221 19.6087 1.41322 19.6087C1.43425 19.6087 1.46538 19.6283 1.48242 19.6522C1.49946 19.6761 1.53059 19.6957 1.55162 19.6957C1.57263 19.6957 1.58984 19.7054 1.58984 19.7174C1.58984 19.7293 1.61885 19.7391 1.6543 19.7391C1.68975 19.7391 1.71875 19.7489 1.71875 19.7609C1.71875 19.7728 1.73809 19.7826 1.76172 19.7826C1.78535 19.7826 1.80469 19.7924 1.80469 19.8043C1.80469 19.8163 1.83369 19.8261 1.86914 19.8261C1.90459 19.8261 1.93359 19.8359 1.93359 19.8478C1.93359 19.8598 1.9626 19.8696 1.99805 19.8696C2.0335 19.8696 2.0625 19.8793 2.0625 19.8913C2.0625 19.9033 2.10117 19.913 2.14844 19.913C2.1957 19.913 2.23437 19.9228 2.23437 19.9348C2.23437 19.9469 2.29167 19.9565 2.36328 19.9565C2.43489 19.9565 2.49219 19.9662 2.49219 19.9783C2.49219 19.9927 5.0918 20 10.248 20C15.4043 20 18.0039 19.9927 18.0039 19.9783C18.0039 19.9662 18.0612 19.9565 18.1328 19.9565C18.2044 19.9565 18.2617 19.9469 18.2617 19.9348C18.2617 19.9228 18.3004 19.913 18.3477 19.913C18.3949 19.913 18.4336 19.9033 18.4336 19.8913C18.4336 19.8794 18.4626 19.8696 18.498 19.8696C18.5335 19.8696 18.5625 19.8598 18.5625 19.8478C18.5625 19.8359 18.5915 19.8261 18.627 19.8261C18.6624 19.8261 18.6914 19.8163 18.6914 19.8043C18.6914 19.7924 18.7107 19.7826 18.7344 19.7826C18.758 19.7826 18.7773 19.7728 18.7773 19.7609C18.7773 19.7489 18.8063 19.7391 18.8418 19.7391C18.8772 19.7391 18.9062 19.7293 18.9062 19.7174C18.9062 19.7054 18.9235 19.6957 18.9445 19.6957C18.9655 19.6957 18.9966 19.6761 19.0137 19.6522C19.0307 19.6283 19.0618 19.6087 19.0829 19.6087C19.1039 19.6087 19.1211 19.5989 19.1211 19.587C19.1211 19.575 19.1383 19.5652 19.1593 19.5652C19.1803 19.5652 19.2115 19.5457 19.2285 19.5217C19.2456 19.4978 19.2726 19.4783 19.2886 19.4783C19.3047 19.4783 19.355 19.4391 19.4004 19.3913C19.4458 19.3435 19.4936 19.3043 19.5066 19.3043C19.5374 19.3043 19.7656 19.0734 19.7656 19.0422C19.7656 19.0291 19.8043 18.9807 19.8516 18.9348C19.8988 18.8888 19.9375 18.838 19.9375 18.8217C19.9375 18.8055 19.9568 18.7781 19.9805 18.7609C20.0041 18.7436 20.0234 18.7121 20.0234 18.6908C20.0234 18.6696 20.0331 18.6522 20.0449 18.6522C20.0567 18.6522 20.0664 18.6348 20.0664 18.6135C20.0664 18.5922 20.0857 18.5607 20.1094 18.5435C20.133 18.5262 20.1523 18.4947 20.1523 18.4735C20.1523 18.4522 20.162 18.4348 20.1738 18.4348C20.1856 18.4348 20.1953 18.4152 20.1953 18.3913C20.1953 18.3674 20.205 18.3478 20.2168 18.3478C20.2286 18.3478 20.2383 18.3185 20.2383 18.2826C20.2383 18.2467 20.2479 18.2174 20.2598 18.2174C20.2716 18.2174 20.2812 18.188 20.2812 18.1522C20.2812 18.1163 20.2909 18.087 20.3027 18.087C20.3145 18.087 20.3242 18.0576 20.3242 18.0217C20.3242 17.9859 20.3339 17.9565 20.3457 17.9565C20.3575 17.9565 20.3672 17.9174 20.3672 17.8696C20.3672 17.8217 20.3769 17.7826 20.3887 17.7826C20.4005 17.7826 20.4102 17.7337 20.4102 17.6739C20.4102 17.6141 20.4198 17.5652 20.4316 17.5652C20.445 17.5652 20.4531 17.442 20.4531 17.2391L20.4531 16.913L20.582 16.913C20.6536 16.913 20.7109 16.9034 20.7109 16.8913C20.7109 16.8793 20.7593 16.8696 20.8184 16.8696C20.8774 16.8696 20.9258 16.8598 20.9258 16.8478C20.9258 16.8359 20.9548 16.8261 20.9902 16.8261C21.0257 16.8261 21.0547 16.8163 21.0547 16.8043C21.0547 16.7924 21.074 16.7826 21.0977 16.7826C21.1213 16.7826 21.1406 16.7728 21.1406 16.7609C21.1406 16.7489 21.16 16.7391 21.1836 16.7391C21.2072 16.7391 21.2266 16.7293 21.2266 16.7174C21.2266 16.7054 21.242 16.6957 21.2609 16.6957C21.2798 16.6957 21.3224 16.6663 21.3555 16.6304C21.3886 16.5946 21.4266 16.5652 21.4399 16.5652C21.4713 16.5652 21.6562 16.3781 21.6562 16.3463C21.6562 16.3328 21.6853 16.2944 21.7207 16.2609C21.7562 16.2274 21.7852 16.1843 21.7852 16.1652C21.7852 16.1461 21.7948 16.1304 21.8066 16.1304C21.8185 16.1304 21.8281 16.1109 21.8281 16.087C21.8281 16.063 21.8378 16.0435 21.8496 16.0435C21.8614 16.0435 21.8711 16.0239 21.8711 16C21.8711 15.9761 21.8808 15.9565 21.8926 15.9565C21.9044 15.9565 21.9141 15.9174 21.9141 15.8696C21.9141 15.8217 21.9237 15.7826 21.9355 15.7826C21.9474 15.7826 21.957 15.7337 21.957 15.6739C21.957 15.6141 21.9667 15.5652 21.9785 15.5652C21.9928 15.5652 22 13.4855 22 9.36957C22 5.25363 21.9928 3.17391 21.9785 3.17391ZM15.1895 10.2609L9.75391 10.2609L9.75391 11.8478L9.75391 13.4348L15.1895 13.4348L20.625 13.4348L20.625 14.4472C20.625 15.2957 20.62 15.4647 20.5943 15.4907C20.548 15.5375 8.45591 15.5375 8.40961 15.4907C8.38314 15.4639 8.37891 14.6377 8.37891 9.51241C8.37891 5.56211 8.37169 3.56522 8.35742 3.56522C8.3449 3.56522 8.33594 3.49276 8.33594 3.3913C8.33594 3.28985 8.32698 3.21739 8.31445 3.21739C8.30251 3.21739 8.29297 3.15941 8.29297 3.08696C8.29297 3.0145 8.28343 2.95652 8.27148 2.95652C8.25967 2.95652 8.25 2.91739 8.25 2.86956C8.25 2.82174 8.24033 2.78261 8.22852 2.78261C8.2167 2.78261 8.20703 2.75326 8.20703 2.71739C8.20703 2.68152 8.19736 2.65217 8.18555 2.65217C8.17373 2.65217 8.16406 2.62283 8.16406 2.58696C8.16406 2.55109 8.15439 2.52174 8.14258 2.52174C8.13076 2.52174 8.12109 2.49239 8.12109 2.45652C8.12109 2.42065 8.11143 2.3913 8.09961 2.3913C8.08779 2.3913 8.07812 2.37174 8.07812 2.34783C8.07812 2.32391 8.06846 2.30435 8.05664 2.30435C8.04482 2.30435 8.03516 2.28478 8.03516 2.26087C8.03516 2.23696 8.02549 2.21739 8.01367 2.21739C8.00186 2.21739 7.99219 2.1902 7.99219 2.15698C7.99219 2.1215 7.97444 2.08363 7.94922 2.06522C7.92559 2.04798 7.90625 2.01648 7.90625 1.9952C7.90625 1.97393 7.89658 1.95652 7.88477 1.95652C7.87295 1.95652 7.86328 1.93696 7.86328 1.91304C7.86328 1.88913 7.85361 1.86956 7.8418 1.86956C7.82998 1.86956 7.82031 1.85215 7.82031 1.83089C7.82031 1.80961 7.80098 1.77811 7.77734 1.76087C7.75371 1.74363 7.73437 1.71428 7.73437 1.69565C7.73437 1.67702 7.71504 1.64767 7.69141 1.63043C7.66777 1.6132 7.64844 1.58561 7.64844 1.56913C7.64844 1.55267 7.61943 1.51176 7.58398 1.47826C7.54854 1.44476 7.51953 1.41148 7.51953 1.40433C7.51953 1.39715 10.1105 1.3913 13.2773 1.3913C17.1016 1.3913 19.0352 1.39861 19.0352 1.41304C19.0352 1.425 19.0738 1.43478 19.1211 1.43478C19.1684 1.43478 19.207 1.44457 19.207 1.45652C19.207 1.46848 19.236 1.47826 19.2715 1.47826C19.3069 1.47826 19.3359 1.48804 19.3359 1.5C19.3359 1.51196 19.3553 1.52174 19.3789 1.52174C19.4025 1.52174 19.4219 1.53152 19.4219 1.54348C19.4219 1.55543 19.4412 1.56522 19.4648 1.56522C19.4885 1.56522 19.5078 1.575 19.5078 1.58696C19.5078 1.59891 19.5271 1.6087 19.5508 1.6087C19.5744 1.6087 19.5937 1.61848 19.5937 1.63043C19.5937 1.64239 19.6131 1.65217 19.6367 1.65217C19.6604 1.65217 19.6797 1.66196 19.6797 1.67391C19.6797 1.68587 19.6951 1.69565 19.714 1.69565C19.7329 1.69565 19.7755 1.725 19.8086 1.76087C19.8417 1.79674 19.8796 1.82609 19.8929 1.82609C19.9242 1.82609 20.1523 2.05689 20.1523 2.08863C20.1523 2.10202 20.1813 2.14041 20.2168 2.17391C20.2522 2.20741 20.2812 2.24833 20.2812 2.26478C20.2812 2.28126 20.3006 2.30885 20.3242 2.32609C20.3479 2.34333 20.3672 2.37483 20.3672 2.39611C20.3672 2.41737 20.3769 2.43478 20.3887 2.43478C20.4005 2.43478 20.4102 2.45435 20.4102 2.47826C20.4102 2.50217 20.4198 2.52174 20.4316 2.52174C20.4435 2.52174 20.4531 2.5413 20.4531 2.56522C20.4531 2.58913 20.4628 2.6087 20.4746 2.6087C20.4864 2.6087 20.4961 2.63804 20.4961 2.67391C20.4961 2.70978 20.5058 2.73913 20.5176 2.73913C20.5294 2.73913 20.5391 2.76848 20.5391 2.80435C20.5391 2.84022 20.5487 2.86957 20.5605 2.86957C20.5724 2.86957 20.582 2.91848 20.582 2.97826C20.582 3.03804 20.5917 3.08696 20.6035 3.08696C20.6178 3.08696 20.625 4.29711 20.625 6.67391L20.625 10.2609L15.1895 10.2609ZM19.0996 16.9565C19.0864 16.9565 19.0781 17.0652 19.0781 17.2391C19.0781 17.413 19.0699 17.5217 19.0566 17.5217C19.0448 17.5217 19.0352 17.5609 19.0352 17.6087C19.0352 17.6565 19.0255 17.6957 19.0137 17.6957C19.0019 17.6957 18.9922 17.7152 18.9922 17.7391C18.9922 17.763 18.9825 17.7826 18.9707 17.7826C18.9589 17.7826 18.9492 17.8022 18.9492 17.8261C18.9492 17.85 18.9396 17.8696 18.9277 17.8696C18.9159 17.8696 18.9062 17.887 18.9062 17.9082C18.9062 17.9295 18.8869 17.961 18.8633 17.9783C18.8396 17.9955 18.8203 18.0223 18.8203 18.0378C18.8203 18.0746 18.5503 18.3478 18.5139 18.3478C18.4986 18.3478 18.4721 18.3674 18.4551 18.3913C18.438 18.4152 18.4069 18.4348 18.3859 18.4348C18.3649 18.4348 18.3477 18.4446 18.3477 18.4565C18.3477 18.4685 18.3283 18.4783 18.3047 18.4783C18.2811 18.4783 18.2617 18.488 18.2617 18.5C18.2617 18.512 18.2327 18.5217 18.1973 18.5217C18.1618 18.5217 18.1328 18.5315 18.1328 18.5435C18.1328 18.5554 18.1038 18.5652 18.0684 18.5652C18.0329 18.5652 18.0039 18.575 18.0039 18.587C18.0039 18.6014 15.9557 18.6087 11.9023 18.6087C7.84895 18.6087 5.80078 18.6014 5.80078 18.587C5.80078 18.575 5.81045 18.5652 5.82226 18.5652C5.83408 18.5652 5.84375 18.5457 5.84375 18.5217C5.84375 18.4978 5.85342 18.4783 5.86523 18.4783C5.87705 18.4783 5.88672 18.4587 5.88672 18.4348C5.88672 18.4109 5.89639 18.3913 5.9082 18.3913C5.92002 18.3913 5.92969 18.3717 5.92969 18.3478C5.92969 18.3239 5.93936 18.3043 5.95117 18.3043C5.96299 18.3043 5.97266 18.2848 5.97266 18.2609C5.97266 18.237 5.98232 18.2174 5.99414 18.2174C6.00596 18.2174 6.01562 18.188 6.01562 18.1522C6.01562 18.1163 6.02529 18.087 6.03711 18.087C6.04892 18.087 6.05859 18.0478 6.05859 18C6.05859 17.9522 6.06826 17.913 6.08008 17.913C6.09189 17.913 6.10156 17.8641 6.10156 17.8043C6.10156 17.7446 6.11123 17.6957 6.12305 17.6957C6.13733 17.6957 6.14453 15.413 6.14453 10.8913C6.14453 6.36957 6.13733 4.08696 6.12305 4.08696C6.11123 4.08696 6.10156 4.04783 6.10156 4C6.10156 3.95217 6.09189 3.91304 6.08008 3.91304C6.06826 3.91304 6.05859 3.8837 6.05859 3.84783C6.05859 3.81196 6.04893 3.78261 6.03711 3.78261C6.02529 3.78261 6.01562 3.76304 6.01562 3.73913C6.01562 3.71522 6.00596 3.69565 5.99414 3.69565C5.98232 3.69565 5.97266 3.67609 5.97266 3.65217C5.97266 3.62826 5.96299 3.6087 5.95117 3.6087C5.93936 3.6087 5.92969 3.59128 5.92969 3.57002C5.92969 3.54874 5.91035 3.51724 5.88672 3.5C5.86309 3.48276 5.84375 3.456 5.84375 3.44054C5.84375 3.40387 5.48758 3.04348 5.45134 3.04348C5.43606 3.04348 5.40961 3.02391 5.39258 3C5.37554 2.97609 5.34441 2.95652 5.32338 2.95652C5.30236 2.95652 5.28516 2.94674 5.28516 2.93478C5.28516 2.92283 5.26582 2.91304 5.24219 2.91304C5.21856 2.91304 5.19922 2.90326 5.19922 2.8913C5.19922 2.87935 5.17988 2.86956 5.15625 2.86956C5.13262 2.86956 5.11328 2.85978 5.11328 2.84783C5.11328 2.83587 5.07461 2.82609 5.02734 2.82609C4.98008 2.82609 4.94141 2.8163 4.94141 2.80435C4.94141 2.79239 4.89307 2.78261 4.83398 2.78261C4.7749 2.78261 4.72656 2.77283 4.72656 2.76087C4.72656 2.74711 4.56902 2.73913 4.29687 2.73913C4.02473 2.73913 3.86719 2.74711 3.86719 2.76087C3.86719 2.77283 3.81885 2.78261 3.75977 2.78261C3.70068 2.78261 3.65234 2.79239 3.65234 2.80435C3.65234 2.8163 3.62334 2.82609 3.58789 2.82609C3.55244 2.82609 3.52344 2.83587 3.52344 2.84783C3.52344 2.85978 3.5041 2.86956 3.48047 2.86956C3.45684 2.86956 3.4375 2.87935 3.4375 2.8913C3.4375 2.90326 3.41816 2.91304 3.39453 2.91304C3.3709 2.91304 3.35156 2.92283 3.35156 2.93478C3.35156 2.94674 3.33223 2.95652 3.30859 2.95652C3.28496 2.95652 3.26562 2.9663 3.26562 2.97826C3.26562 2.99022 3.24842 3 3.2274 3C3.20637 3 3.17524 3.01956 3.1582 3.04348C3.14117 3.06739 3.11472 3.08696 3.0994 3.08696C3.06311 3.08696 2.75 3.40378 2.75 3.4405C2.75 3.456 2.73066 3.48276 2.70703 3.5C2.6834 3.51724 2.66406 3.54874 2.66406 3.57002C2.66406 3.59128 2.65439 3.6087 2.64258 3.6087C2.63076 3.6087 2.62109 3.62826 2.62109 3.65217C2.62109 3.67609 2.61143 3.69565 2.59961 3.69565C2.58779 3.69565 2.57812 3.71522 2.57812 3.73913C2.57812 3.76304 2.56846 3.78261 2.55664 3.78261C2.54482 3.78261 2.53516 3.81196 2.53516 3.84783C2.53516 3.8837 2.52549 3.91304 2.51367 3.91304C2.50186 3.91304 2.49219 3.94239 2.49219 3.97826C2.49219 4.01413 2.48252 4.04348 2.4707 4.04348C2.45843 4.04348 2.44922 4.1087 2.44922 4.19565C2.44922 4.28261 2.44 4.34783 2.42773 4.34783C2.41347 4.34783 2.40625 6.34783 2.40625 10.3043C2.40625 14.2609 2.41347 16.2609 2.42773 16.2609C2.43955 16.2609 2.44922 16.3098 2.44922 16.3696C2.44922 16.4293 2.45889 16.4783 2.4707 16.4783C2.48252 16.4783 2.49219 16.4931 2.49219 16.5113C2.49219 16.5543 2.76083 16.8261 2.8033 16.8261C2.82126 16.8261 2.83594 16.8359 2.83594 16.8478C2.83594 16.8598 2.87461 16.8696 2.92187 16.8696C2.96914 16.8696 3.00781 16.8793 3.00781 16.8913C3.00781 16.9033 3.04648 16.913 3.09375 16.913C3.14102 16.913 3.17969 16.9033 3.17969 16.8913C3.17969 16.8793 3.21836 16.8696 3.26562 16.8696C3.31289 16.8696 3.35156 16.8598 3.35156 16.8478C3.35156 16.8359 3.3709 16.8261 3.39453 16.8261C3.41816 16.8261 3.4375 16.8163 3.4375 16.8043C3.4375 16.7924 3.45232 16.7826 3.47044 16.7826C3.51065 16.7826 3.65234 16.643 3.65234 16.6033C3.65234 16.5877 3.67168 16.5607 3.69531 16.5435C3.72053 16.5251 3.73828 16.4872 3.73828 16.4517C3.73828 16.4185 3.74795 16.3913 3.75976 16.3913C3.77403 16.3913 3.78125 14.3696 3.78125 10.3696C3.78125 6.36957 3.78847 4.34783 3.80273 4.34783C3.81455 4.34783 3.82422 4.33283 3.82422 4.3145C3.82422 4.29615 3.85773 4.24724 3.8987 4.2058L3.97317 4.13043L4.30691 4.13043C4.51507 4.13043 4.64062 4.13861 4.64062 4.15217C4.64062 4.16413 4.65996 4.17391 4.68359 4.17391C4.71223 4.17391 4.72656 4.18841 4.72656 4.21739C4.72656 4.2413 4.73623 4.26087 4.74805 4.26087C4.75986 4.26087 4.76953 4.28043 4.76953 4.30435C4.76953 4.32826 4.7792 4.34783 4.79102 4.34783C4.80528 4.34783 4.8125 6.52898 4.8125 10.8478C4.8125 15.1667 4.80528 17.3478 4.79101 17.3478C4.7792 17.3478 4.76953 17.3967 4.76953 17.4565C4.76953 17.5163 4.75986 17.5652 4.74805 17.5652C4.73623 17.5652 4.72656 17.5946 4.72656 17.6304C4.72656 17.6663 4.71689 17.6957 4.70508 17.6957C4.69326 17.6957 4.68359 17.725 4.68359 17.7609C4.68359 17.7967 4.67392 17.8261 4.66211 17.8261C4.65029 17.8261 4.64062 17.8435 4.64062 17.8648C4.64062 17.886 4.62129 17.9175 4.59766 17.9348C4.57402 17.952 4.55469 17.9788 4.55469 17.9942C4.55469 18.0338 4.19708 18.3913 4.15753 18.3913C4.13963 18.3913 4.125 18.4011 4.125 18.413C4.125 18.425 4.10566 18.4348 4.08203 18.4348C4.0584 18.4348 4.03906 18.4446 4.03906 18.4565C4.03906 18.4685 4.01972 18.4783 3.99609 18.4783C3.97246 18.4783 3.95312 18.488 3.95312 18.5C3.95312 18.512 3.93379 18.5217 3.91016 18.5217C3.88652 18.5217 3.86719 18.5315 3.86719 18.5435C3.86719 18.5554 3.82852 18.5652 3.78125 18.5652C3.73398 18.5652 3.69531 18.575 3.69531 18.587C3.69531 18.6009 3.48047 18.6087 3.09375 18.6087C2.70703 18.6087 2.49219 18.6009 2.49219 18.587C2.49219 18.575 2.46318 18.5652 2.42773 18.5652C2.39228 18.5652 2.36328 18.5554 2.36328 18.5435C2.36328 18.5315 2.33428 18.5217 2.29883 18.5217C2.26338 18.5217 2.23437 18.512 2.23437 18.5C2.23437 18.488 2.21504 18.4783 2.19141 18.4783C2.16777 18.4783 2.14844 18.4685 2.14844 18.4565C2.14844 18.4446 2.13123 18.4348 2.11022 18.4348C2.08918 18.4348 2.05805 18.4152 2.04101 18.3913C2.02398 18.3674 1.99753 18.3478 1.98221 18.3478C1.94593 18.3478 1.63281 18.031 1.63281 17.9943C1.63281 17.9788 1.61348 17.952 1.58984 17.9348C1.56621 17.9175 1.54687 17.886 1.54687 17.8648C1.54687 17.8435 1.53721 17.8261 1.52539 17.8261C1.51357 17.8261 1.50391 17.8065 1.50391 17.7826C1.50391 17.7587 1.49424 17.7391 1.48242 17.7391C1.47061 17.7391 1.46094 17.7098 1.46094 17.6739C1.46094 17.638 1.45127 17.6087 1.43945 17.6087C1.42764 17.6087 1.41797 17.5696 1.41797 17.5217C1.41797 17.4739 1.4083 17.4348 1.39648 17.4348C1.3822 17.4348 1.375 15.1015 1.375 10.4783C1.375 5.85506 1.3822 3.52174 1.39648 3.52174C1.4083 3.52174 1.41797 3.47283 1.41797 3.41304C1.41797 3.35326 1.42764 3.30435 1.43945 3.30435C1.45127 3.30435 1.46094 3.26522 1.46094 3.21739C1.46094 3.16956 1.47061 3.13043 1.48242 3.13043C1.49424 3.13043 1.50391 3.10109 1.50391 3.06522C1.50391 3.02935 1.51357 3 1.52539 3C1.53721 3 1.54687 2.98043 1.54687 2.95652C1.54687 2.93261 1.55654 2.91304 1.56836 2.91304C1.58018 2.91304 1.58984 2.89348 1.58984 2.86956C1.58984 2.84565 1.59951 2.82609 1.61133 2.82609C1.62314 2.82609 1.63281 2.80652 1.63281 2.78261C1.63281 2.75869 1.64248 2.73913 1.6543 2.73913C1.66611 2.73913 1.67578 2.71956 1.67578 2.69565C1.67578 2.67174 1.68545 2.65217 1.69727 2.65217C1.70908 2.65217 1.71875 2.63476 1.71875 2.6135C1.71875 2.59222 1.73809 2.56072 1.76172 2.54348C1.78535 2.52624 1.80469 2.49689 1.80469 2.47826C1.80469 2.45963 1.82402 2.43028 1.84766 2.41304C1.87129 2.3958 1.89062 2.36906 1.89062 2.35361C1.89062 2.31939 2.28862 1.91304 2.32216 1.91304C2.33529 1.91304 2.37314 1.88369 2.40625 1.84783C2.43936 1.81196 2.47979 1.78261 2.49605 1.78261C2.51234 1.78261 2.5396 1.76304 2.55664 1.73913C2.57368 1.71522 2.60481 1.69565 2.62584 1.69565C2.64685 1.69565 2.66406 1.68587 2.66406 1.67391C2.66406 1.66196 2.6834 1.65217 2.70703 1.65217C2.73066 1.65217 2.75 1.64239 2.75 1.63043C2.75 1.61848 2.76934 1.6087 2.79297 1.6087C2.8166 1.6087 2.83594 1.59891 2.83594 1.58696C2.83594 1.575 2.86494 1.56522 2.90039 1.56522C2.93584 1.56522 2.96484 1.55543 2.96484 1.54348C2.96484 1.53152 2.98418 1.52174 3.00781 1.52174C3.03144 1.52174 3.05078 1.51196 3.05078 1.5C3.05078 1.48804 3.08945 1.47826 3.13672 1.47826C3.18398 1.47826 3.22266 1.46848 3.22266 1.45652C3.22266 1.44456 3.26133 1.43478 3.30859 1.43478C3.35586 1.43478 3.39453 1.425 3.39453 1.41304C3.39453 1.39893 3.68098 1.3913 4.21094 1.3913C4.74089 1.3913 5.02734 1.39893 5.02734 1.41304C5.02734 1.425 5.06602 1.43478 5.11328 1.43478C5.16055 1.43478 5.19922 1.44456 5.19922 1.45652C5.19922 1.46848 5.23789 1.47826 5.28516 1.47826C5.33242 1.47826 5.37109 1.48804 5.37109 1.5C5.37109 1.51196 5.39043 1.52174 5.41406 1.52174C5.43769 1.52174 5.45703 1.53152 5.45703 1.54348C5.45703 1.55543 5.48603 1.56522 5.52148 1.56522C5.55693 1.56522 5.58594 1.575 5.58594 1.58696C5.58594 1.59891 5.60527 1.6087 5.62891 1.6087C5.65254 1.6087 5.67187 1.61848 5.67187 1.63043C5.67187 1.64239 5.68908 1.65217 5.7101 1.65217C5.73113 1.65217 5.76226 1.67174 5.7793 1.69565C5.79633 1.71956 5.82746 1.73913 5.8485 1.73913C5.86951 1.73913 5.88672 1.74891 5.88672 1.76087C5.88672 1.77283 5.90197 1.78261 5.92062 1.78261C5.93929 1.78261 5.99169 1.82174 6.03711 1.86956C6.08253 1.91739 6.13031 1.95652 6.14331 1.95652C6.17412 1.95652 6.40234 2.18746 6.40234 2.21863C6.40234 2.23178 6.44102 2.28013 6.48828 2.32609C6.53555 2.37204 6.57422 2.42291 6.57422 2.43915C6.57422 2.45539 6.59355 2.48276 6.61719 2.5C6.64082 2.51724 6.66016 2.54874 6.66016 2.57002C6.66016 2.59128 6.66982 2.6087 6.68164 2.6087C6.69346 2.6087 6.70312 2.62826 6.70312 2.65217C6.70312 2.67609 6.71279 2.69565 6.72461 2.69565C6.73643 2.69565 6.74609 2.71522 6.74609 2.73913C6.74609 2.76304 6.75576 2.78261 6.76758 2.78261C6.77939 2.78261 6.78906 2.80217 6.78906 2.82609C6.78906 2.85 6.79873 2.86956 6.81055 2.86956C6.82236 2.86956 6.83203 2.89891 6.83203 2.93478C6.83203 2.97065 6.8417 3 6.85352 3C6.86533 3 6.875 3.02935 6.875 3.06522C6.875 3.10109 6.88467 3.13043 6.89648 3.13043C6.9083 3.13043 6.91797 3.15978 6.91797 3.19565C6.91797 3.23152 6.92764 3.26087 6.93945 3.26087C6.95127 3.26087 6.96094 3.30978 6.96094 3.36956C6.96094 3.42935 6.97061 3.47826 6.98242 3.47826C6.99669 3.47826 7.00391 5.5145 7.00391 9.54348C7.00391 13.5725 7.01112 15.6087 7.02539 15.6087C7.03721 15.6087 7.04687 15.6576 7.04687 15.7174C7.04687 15.7772 7.05654 15.8261 7.06836 15.8261C7.08017 15.8261 7.08984 15.8554 7.08984 15.8913C7.08984 15.9272 7.09951 15.9565 7.11133 15.9565C7.12314 15.9565 7.13281 15.9761 7.13281 16C7.13281 16.0239 7.14248 16.0435 7.1543 16.0435C7.16611 16.0435 7.17578 16.0609 7.17578 16.0822C7.17578 16.1034 7.19512 16.1349 7.21875 16.1522C7.24238 16.1694 7.26172 16.197 7.26172 16.2135C7.26172 16.2299 7.29072 16.2708 7.32617 16.3043C7.36162 16.3378 7.39062 16.3767 7.39062 16.3907C7.39062 16.4233 7.44461 16.4783 7.47671 16.4783C7.49029 16.4783 7.53857 16.5174 7.58398 16.5652C7.6294 16.613 7.6818 16.6522 7.70047 16.6522C7.71912 16.6522 7.73437 16.662 7.73437 16.6739C7.73437 16.6859 7.75371 16.6957 7.77734 16.6957C7.80098 16.6957 7.82031 16.7054 7.82031 16.7174C7.82031 16.7293 7.83965 16.7391 7.86328 16.7391C7.88691 16.7391 7.90625 16.7489 7.90625 16.7609C7.90625 16.7728 7.92559 16.7826 7.94922 16.7826C7.97285 16.7826 7.99219 16.7924 7.99219 16.8043C7.99219 16.8163 8.02119 16.8261 8.05664 16.8261C8.09209 16.8261 8.12109 16.8359 8.12109 16.8478C8.12109 16.8598 8.16943 16.8696 8.22851 16.8696C8.2876 16.8696 8.33594 16.8793 8.33594 16.8913C8.33594 16.9057 10.1478 16.913 13.7285 16.913C17.3093 16.913 19.1211 16.9203 19.1211 16.9348C19.1211 16.9467 19.1114 16.9565 19.0996 16.9565Z" fill="#4F4F4F"/>
</svg>
