<svg width="24" height="21" viewBox="0 0 24 21" fill="none" xmlns="http://www.w3.org/2000/svg">
<path d="M23.4193 4.30353C23.047 3.46138 22.51 2.69823 21.8386 2.05681C21.1667 1.41347 20.3745 0.902212 19.505 0.550847C18.6035 0.185057 17.6365 -0.0021756 16.6602 1.90724e-05C15.2906 1.90724e-05 13.9544 0.366333 12.7931 1.05826C12.5153 1.22378 12.2514 1.40558 12.0014 1.60366C11.7513 1.40558 11.4874 1.22378 11.2096 1.05826C10.0484 0.366333 8.71211 1.90724e-05 7.34251 1.90724e-05C6.35628 1.90724e-05 5.40062 0.184533 4.49774 0.550847C3.62542 0.903594 2.83921 1.41101 2.16414 2.05681C1.49183 2.69751 0.95477 3.46084 0.5834 4.30353C0.197245 5.17997 0 6.11068 0 7.06853C0 7.9721 0.188911 8.91366 0.563954 9.87151C0.877878 10.672 1.32793 11.5023 1.903 12.3407C2.81421 13.6676 4.06713 15.0515 5.62287 16.4543C8.20094 18.7797 10.754 20.3861 10.8624 20.4512L11.5208 20.8637C11.8125 21.0455 12.1875 21.0455 12.4792 20.8637L13.1376 20.4512C13.246 20.3834 15.7963 18.7797 18.3771 16.4543C19.9328 15.0515 21.1858 13.6676 22.097 12.3407C22.672 11.5023 23.1249 10.672 23.436 9.87151C23.8111 8.91366 24 7.9721 24 7.06853C24.0028 6.11068 23.8055 5.17997 23.4193 4.30353ZM12.0014 18.7173C12.0014 18.7173 2.11135 12.528 2.11135 7.06853C2.11135 4.30353 4.45329 2.06223 7.34251 2.06223C9.3733 2.06223 11.1346 3.16932 12.0014 4.78652C12.8681 3.16932 14.6295 2.06223 16.6602 2.06223C19.5495 2.06223 21.8914 4.30353 21.8914 7.06853C21.8914 12.528 12.0014 18.7173 12.0014 18.7173Z" fill="white"/>
</svg>
